<svg width="18" height="13" viewBox="0 0 18 13" fill="none" xmlns="http://www.w3.org/2000/svg">
<path d="M13.2272 3.38135C12.7708 3.38135 12.3994 3.75269 12.3994 4.20914C12.3994 4.66558 12.7708 5.03692 13.2272 5.03692C13.6836 5.03692 14.055 4.66558 14.055 4.20914C14.055 3.75269 13.6836 3.38135 13.2272 3.38135ZM13.2272 4.50855C13.0621 4.50855 12.9278 4.3742 12.9278 4.20914C12.9278 4.04407 13.0621 3.90972 13.2272 3.90972C13.3923 3.90972 13.5266 4.04407 13.5266 4.20914C13.5266 4.3742 13.3923 4.50855 13.2272 4.50855Z" fill="#318124"/>
<path d="M16.8728 9.01761V7.89041H15.182V6.59047C15.8698 6.02472 16.3092 5.16745 16.3092 4.20939C16.3092 2.50986 14.9265 1.1272 13.227 1.1272C11.5275 1.1272 10.1448 2.50986 10.1448 4.20939C10.1448 4.71346 10.2644 5.19865 10.4937 5.63601H5.03718V3.34638H9.8454V2.818H5.03718V0H3.3816V7.29159H4.50881V7.89041H1.1272V9.01761H0V10.6732H1.1272V11.8004H2.2544V12.9276H5.03718V11.8004H12.3816V11.272H1.65558V8.41879H4.50881V9.01761H2.2544V10.6732H3.90998V9.54599H4.50881V10.1096H6.182V9.58122H5.03718V7.29159H10.1448V9.58122H6.7456V10.1096H10.6732V9.54599H14.09V10.6732H15.7456V9.01761H10.6732V8.41879H16.3444V11.272H12.9628V12.9276H15.7456V11.8004H16.8728V10.6732H18V9.01761H16.8728ZM1.1272 10.1448H0.528376V9.54599H1.1272V10.1448ZM2.78278 11.8004H4.50881V12.3992H2.78278V11.8004ZM3.3816 10.1448H2.78278V9.54599H3.3816V10.1448ZM14.6184 9.54599H15.2172V10.1448H14.6184V9.54599ZM3.90998 0.528376H4.50881V5.63601H3.90998V0.528376ZM3.90998 6.76321V6.16438H11.272V6.76321H3.90998ZM14.6536 7.89041H10.6732V7.29159H11.8004V6.94268C12.2377 7.17203 12.7229 7.29159 13.227 7.29159C13.7415 7.29159 14.2268 7.16471 14.6536 6.94089V7.89041ZM13.227 6.76321C12.7126 6.76321 12.2223 6.61276 11.8004 6.32755V5.63601H11.1089C10.8236 5.21415 10.6732 4.72375 10.6732 4.20939C10.6732 2.8012 11.8188 1.65558 13.227 1.65558C14.6352 1.65558 15.7808 2.8012 15.7808 4.20939C15.7808 5.61759 14.6352 6.76321 13.227 6.76321ZM15.2172 12.3992H13.4912V11.8004H15.2172V12.3992ZM17.4716 10.1448H16.8728V9.54599H17.4716V10.1448Z" fill="#318124"/>
<path d="M8.43652 8.17236H9.00012V8.70074H8.43652V8.17236Z" fill="#318124"/>
<path d="M7.30908 8.17236H7.87268V8.70074H7.30908V8.17236Z" fill="#318124"/>
<path d="M6.18213 8.17236H6.74573V8.70074H6.18213V8.17236Z" fill="#318124"/>
</svg>
