<svg width="22" height="16" viewBox="0 0 22 16" fill="none" xmlns="http://www.w3.org/2000/svg">
<path d="M20.9688 14.5142H20.625C20.5338 14.5142 20.4464 14.5504 20.3819 14.6148C20.3175 14.6793 20.2812 14.7667 20.2812 14.8579C20.2812 14.9491 20.3175 15.0365 20.3819 15.101C20.4464 15.1654 20.5338 15.2017 20.625 15.2017H20.9688C21.0599 15.2017 21.1474 15.1654 21.2118 15.101C21.2763 15.0365 21.3125 14.9491 21.3125 14.8579C21.3125 14.7667 21.2763 14.6793 21.2118 14.6148C21.1474 14.5504 21.0599 14.5142 20.9688 14.5142Z" fill="#318124"/>
<path d="M14.7812 9.01416C14.6901 9.01416 14.6026 9.05038 14.5382 9.11484C14.4737 9.17931 14.4375 9.26674 14.4375 9.35791V13.8696C14.4375 13.9608 14.4737 14.0482 14.5382 14.1127C14.6026 14.1772 14.6901 14.2134 14.7812 14.2134C14.8724 14.2134 14.9599 14.1772 15.0243 14.1127C15.0888 14.0482 15.125 13.9608 15.125 13.8696V9.35791C15.125 9.26674 15.0888 9.17931 15.0243 9.11484C14.9599 9.05038 14.8724 9.01416 14.7812 9.01416Z" fill="#318124"/>
<path d="M20.1807 13.2397C20.1161 13.1753 20.0287 13.1392 19.9375 13.1392C19.8463 13.1392 19.7589 13.1753 19.6943 13.2397L18.8667 14.0677L15.0829 7.13084C15.0534 7.07661 15.0098 7.03135 14.9567 6.99982C14.9036 6.96828 14.843 6.95165 14.7813 6.95166H5.84375C5.78201 6.95165 5.7214 6.96828 5.66832 6.99982C5.61523 7.03135 5.57163 7.07661 5.54211 7.13084L1.75828 14.0677L0.930703 13.2397C0.898765 13.2078 0.86085 13.1824 0.819121 13.1652C0.777392 13.1479 0.732667 13.139 0.6875 13.139C0.642333 13.139 0.597608 13.1479 0.555879 13.1652C0.514151 13.1824 0.476235 13.2078 0.444297 13.2397C0.412359 13.2716 0.387024 13.3096 0.36974 13.3513C0.352455 13.393 0.343559 13.4377 0.343559 13.4829C0.343559 13.5281 0.352455 13.5728 0.36974 13.6145C0.387024 13.6563 0.412359 13.6942 0.444297 13.7261L1.23277 14.5142H0.34375C0.252582 14.5142 0.165148 14.5504 0.100682 14.6148C0.0362164 14.6793 0 14.7667 0 14.8579C0 14.9491 0.0362164 15.0365 0.100682 15.101C0.165148 15.1654 0.252582 15.2017 0.34375 15.2017H19.5938C19.6849 15.2017 19.7724 15.1654 19.8368 15.101C19.9013 15.0365 19.9375 14.9491 19.9375 14.8579C19.9375 14.7667 19.9013 14.6793 19.8368 14.6148C19.7724 14.5504 19.6849 14.5142 19.5938 14.5142H19.3922L20.1807 13.7261C20.2451 13.6616 20.2813 13.5741 20.2813 13.4829C20.2813 13.3917 20.2451 13.3043 20.1807 13.2397V13.2397ZM2.29797 14.5142L6.04785 7.63916H14.202L10.4521 14.5142H2.29797ZM11.2355 14.5142L14.7813 8.01342L18.327 14.5142H11.2355Z" fill="#318124"/>
<path d="M1.9474 6.11127H5.58806C5.94539 6.11153 6.28929 5.97267 6.54934 5.72313C6.8094 5.47358 6.96594 5.13224 6.9869 4.76899C7.00786 4.40575 6.89166 4.04808 6.66209 3.76924C6.43253 3.4904 6.10696 3.31148 5.75207 3.26911C5.62651 2.90219 5.4052 2.577 5.11189 2.32846C4.81859 2.07992 4.46436 1.9174 4.08722 1.85835C3.71007 1.7993 3.32426 1.84594 2.97118 1.99328C2.6181 2.14061 2.31109 2.38307 2.08308 2.69464C2.03788 2.69091 1.99265 2.68905 1.9474 2.68905C1.50175 2.68905 1.07436 2.86932 0.759241 3.19022C0.444122 3.51112 0.26709 3.94634 0.26709 4.40016C0.26709 4.85398 0.444122 5.2892 0.759241 5.6101C1.07436 5.931 1.50175 6.11127 1.9474 6.11127V6.11127ZM1.9474 3.25942C2.01991 3.25943 2.09226 3.2666 2.16342 3.28081C2.21937 3.29193 2.27733 3.28541 2.32955 3.26213C2.38177 3.23886 2.42579 3.19992 2.45573 3.15051C2.61548 2.88615 2.84867 2.67598 3.12577 2.54663C3.40286 2.41727 3.71142 2.37454 4.01238 2.42383C4.31333 2.47313 4.59316 2.61224 4.81645 2.82356C5.03974 3.03487 5.19645 3.3089 5.26674 3.61094C5.28191 3.67552 5.31863 3.73273 5.37063 3.77278C5.42264 3.81284 5.48669 3.83325 5.55183 3.83054C5.5638 3.83 5.57602 3.82975 5.58799 3.82975C5.81082 3.82975 6.02451 3.91989 6.18207 4.08034C6.33963 4.24079 6.42815 4.4584 6.42815 4.68531C6.42815 4.91222 6.33963 5.12983 6.18207 5.29028C6.02451 5.45073 5.81082 5.54087 5.58799 5.54087H1.9474C1.6503 5.54087 1.36537 5.42068 1.15529 5.20675C0.945214 4.99282 0.827192 4.70267 0.827192 4.40012C0.827192 4.09758 0.945214 3.80743 1.15529 3.5935C1.36537 3.37957 1.6503 3.25938 1.9474 3.25938V3.25942Z" fill="#318124"/>
<path d="M17.1494 5.5C17.5573 5.5 17.9561 5.37903 18.2953 5.1524C18.6344 4.92577 18.8988 4.60366 19.0549 4.22678C19.211 3.84991 19.2519 3.43521 19.1723 3.03513C19.0927 2.63504 18.8963 2.26754 18.6078 1.97909C18.3194 1.69065 17.9519 1.49421 17.5518 1.41463C17.1517 1.33505 16.737 1.37589 16.3601 1.532C15.9833 1.6881 15.6611 1.95246 15.4345 2.29164C15.2079 2.63081 15.0869 3.02958 15.0869 3.4375C15.0875 3.98432 15.305 4.50858 15.6917 4.89524C16.0783 5.2819 16.6026 5.49939 17.1494 5.5V5.5ZM17.1494 2.0625C17.4214 2.0625 17.6872 2.14314 17.9133 2.29423C18.1394 2.44532 18.3157 2.66006 18.4197 2.91131C18.5238 3.16256 18.551 3.43902 18.498 3.70575C18.4449 3.97247 18.314 4.21747 18.1217 4.40977C17.9294 4.60207 17.6844 4.73302 17.4177 4.78608C17.1509 4.83913 16.8745 4.8119 16.6232 4.70783C16.372 4.60376 16.1572 4.42753 16.0061 4.20141C15.8551 3.97529 15.7744 3.70945 15.7744 3.4375C15.7748 3.07295 15.9198 2.72345 16.1776 2.46568C16.4354 2.20791 16.7849 2.06291 17.1494 2.0625Z" fill="#318124"/>
<path d="M17.1494 1.03125C17.2406 1.03125 17.328 0.995034 17.3925 0.930568C17.4569 0.866102 17.4932 0.778668 17.4932 0.6875V0.34375C17.4932 0.252582 17.4569 0.165148 17.3925 0.100682C17.328 0.0362164 17.2406 0 17.1494 0C17.0582 0 16.9708 0.0362164 16.9063 0.100682C16.8419 0.165148 16.8057 0.252582 16.8057 0.34375V0.6875C16.8057 0.778668 16.8419 0.866102 16.9063 0.930568C16.9708 0.995034 17.0582 1.03125 17.1494 1.03125Z" fill="#318124"/>
<path d="M16.8057 6.1875V6.53125C16.8057 6.62242 16.8419 6.70985 16.9063 6.77432C16.9708 6.83878 17.0582 6.875 17.1494 6.875C17.2406 6.875 17.328 6.83878 17.3925 6.77432C17.4569 6.70985 17.4932 6.62242 17.4932 6.53125V6.1875C17.4932 6.09633 17.4569 6.0089 17.3925 5.94443C17.328 5.87997 17.2406 5.84375 17.1494 5.84375C17.0582 5.84375 16.9708 5.87997 16.9063 5.94443C16.8419 6.0089 16.8057 6.09633 16.8057 6.1875Z" fill="#318124"/>
<path d="M19.5557 3.4375C19.5557 3.52867 19.5919 3.6161 19.6563 3.68057C19.7208 3.74503 19.8082 3.78125 19.8994 3.78125H20.2432C20.3343 3.78125 20.4218 3.74503 20.4862 3.68057C20.5507 3.6161 20.5869 3.52867 20.5869 3.4375C20.5869 3.34633 20.5507 3.2589 20.4862 3.19443C20.4218 3.12997 20.3343 3.09375 20.2432 3.09375H19.8994C19.8082 3.09375 19.7208 3.12997 19.6563 3.19443C19.5919 3.2589 19.5557 3.34633 19.5557 3.4375Z" fill="#318124"/>
<path d="M14.0557 3.78125H14.3994C14.4906 3.78125 14.578 3.74503 14.6425 3.68057C14.7069 3.6161 14.7432 3.52867 14.7432 3.4375C14.7432 3.34633 14.7069 3.2589 14.6425 3.19443C14.578 3.12997 14.4906 3.09375 14.3994 3.09375H14.0557C13.9645 3.09375 13.8771 3.12997 13.8126 3.19443C13.7481 3.2589 13.7119 3.34633 13.7119 3.4375C13.7119 3.52867 13.7481 3.6161 13.8126 3.68057C13.8771 3.74503 13.9645 3.78125 14.0557 3.78125Z" fill="#318124"/>
<path d="M19.0942 1.83683C19.1393 1.8369 19.184 1.82803 19.2257 1.81076C19.2675 1.79348 19.3054 1.76813 19.3372 1.73616L19.5803 1.49308C19.6448 1.42862 19.681 1.34118 19.681 1.25001C19.681 1.15884 19.6448 1.0714 19.5803 1.00693C19.5158 0.942467 19.4284 0.90625 19.3372 0.90625C19.2461 0.90625 19.1586 0.942467 19.0942 1.00693L18.8512 1.25001C18.8031 1.29808 18.7704 1.35933 18.7571 1.42602C18.7438 1.4927 18.7506 1.56182 18.7767 1.62463C18.8027 1.68745 18.8467 1.74113 18.9033 1.77891C18.9598 1.81668 19.0263 1.83684 19.0942 1.83683H19.0942Z" fill="#318124"/>
<path d="M14.9619 5.13926L14.7188 5.38233C14.6869 5.41426 14.6616 5.45215 14.6443 5.49386C14.6271 5.53556 14.6182 5.58027 14.6182 5.62541C14.6182 5.67055 14.6271 5.71525 14.6443 5.75696C14.6616 5.79867 14.6869 5.83656 14.7188 5.86848C14.7508 5.9004 14.7887 5.92573 14.8304 5.943C14.8721 5.96028 14.9168 5.96917 14.9619 5.96917C15.0071 5.96917 15.0518 5.96028 15.0935 5.943C15.1352 5.92573 15.1731 5.9004 15.205 5.86848L15.4481 5.62541C15.48 5.59349 15.5053 5.55559 15.5226 5.51388C15.5399 5.47218 15.5488 5.42748 15.5488 5.38233C15.5488 5.33719 15.5399 5.29249 15.5226 5.25078C15.5053 5.20908 15.48 5.17118 15.4481 5.13926C15.4162 5.10734 15.3783 5.08202 15.3365 5.06474C15.2948 5.04747 15.2501 5.03857 15.205 5.03857C15.1599 5.03857 15.1152 5.04747 15.0734 5.06474C15.0317 5.08202 14.9938 5.10734 14.9619 5.13926V5.13926Z" fill="#318124"/>
<path d="M19.3371 5.13912C19.3054 5.10629 19.2675 5.0801 19.2255 5.06209C19.1836 5.04407 19.1385 5.03459 19.0928 5.03419C19.0472 5.0338 19.0019 5.04249 18.9597 5.05978C18.9174 5.07706 18.8791 5.10259 18.8468 5.13486C18.8145 5.16714 18.789 5.20552 18.7717 5.24776C18.7544 5.29001 18.7457 5.33527 18.7461 5.38092C18.7465 5.42656 18.756 5.47167 18.774 5.5136C18.792 5.55554 18.8182 5.59347 18.851 5.62518L19.0941 5.86826C19.1586 5.93273 19.246 5.96894 19.3372 5.96894C19.4284 5.96894 19.5158 5.93273 19.5803 5.86826C19.6447 5.80379 19.6809 5.71635 19.6809 5.62518C19.6809 5.53401 19.6447 5.44658 19.5803 5.38211L19.3371 5.13912Z" fill="#318124"/>
<path d="M14.962 1.73607C14.9937 1.7689 15.0317 1.79509 15.0736 1.81311C15.1155 1.83112 15.1606 1.8406 15.2063 1.841C15.2519 1.8414 15.2972 1.8327 15.3394 1.81542C15.3817 1.79813 15.4201 1.77261 15.4523 1.74033C15.4846 1.70806 15.5101 1.66968 15.5274 1.62743C15.5447 1.58518 15.5534 1.53992 15.553 1.49428C15.5526 1.44863 15.5431 1.40353 15.5251 1.36159C15.5071 1.31965 15.4809 1.28172 15.4481 1.25001L15.205 1.00693C15.1405 0.942467 15.0531 0.90625 14.9619 0.90625C14.8708 0.90625 14.7833 0.942467 14.7188 1.00693C14.6544 1.0714 14.6182 1.15884 14.6182 1.25001C14.6182 1.34118 14.6544 1.42862 14.7188 1.49308L14.962 1.73607Z" fill="#318124"/>
</svg>
