<svg width="15" height="15" viewBox="0 0 15 15" fill="none" xmlns="http://www.w3.org/2000/svg">
<g clip-path="url(#clip0)">
<path d="M2.33154 3.45085V2.20459C2.33154 2.08317 2.23312 1.98486 2.11182 1.98486C1.99039 1.98486 1.89209 2.08317 1.89209 2.20459V3.45085C1.89209 3.57227 1.99039 3.67058 2.11182 3.67058C2.23312 3.67058 2.33154 3.57227 2.33154 3.45085Z" fill="#318124"/>
<path d="M2.11182 6.18994C1.99039 6.18994 1.89209 6.28825 1.89209 6.40967V7.65593C1.89209 7.77735 1.99039 7.87566 2.11182 7.87566C2.23312 7.87566 2.33154 7.77735 2.33154 7.65593V6.40967C2.33154 6.28836 2.23312 6.18994 2.11182 6.18994Z" fill="#318124"/>
<path d="M14.1592 10.4213C14.2806 10.4213 14.3789 10.3229 14.3789 10.2016V9.19041C14.3789 8.78426 14.0484 8.45375 13.6422 8.45375H11.2576C11.2568 8.45375 11.256 8.45364 11.2553 8.45364H10.0064V0.602875C10.0064 0.270424 9.73583 0 9.4035 0H1.21822C0.885773 0 0.615234 0.270424 0.615234 0.602875V1.76514C0.615234 1.88656 0.713654 1.98486 0.834961 1.98486C0.956383 1.98486 1.05469 1.88656 1.05469 1.76514V0.602875C1.05469 0.51281 1.12804 0.439453 1.21822 0.439453H9.4035C9.49356 0.439453 9.56692 0.51281 9.56692 0.602875V4.15421H1.05469V2.64404C1.05469 2.52262 0.956383 2.42432 0.834961 2.42432C0.713654 2.42432 0.615234 2.52262 0.615234 2.64404V4.37164V4.37393V5.625V5.62729V13.3793C0.615234 13.7117 0.885773 13.9823 1.21822 13.9823H1.36265V14.7217C1.36265 14.8751 1.4875 15 1.64097 15H2.36904C2.52056 15 2.64427 14.8782 2.64725 14.7274H3.42728C3.5487 14.7274 3.647 14.6291 3.647 14.5077C3.647 14.3864 3.5487 14.2879 3.42728 14.2879H2.48623C2.33471 14.2879 2.211 14.4097 2.20791 14.5605H1.8021V13.9823H4.06448V14.2632C4.06448 14.6695 4.39499 15 4.80125 15H13.6422C14.0484 15 14.3789 14.6695 14.3789 14.2632V11.0804C14.3789 10.9591 14.2806 10.8607 14.1592 10.8607C14.0379 10.8607 13.9395 10.9591 13.9395 11.0804V14.2632C13.9395 14.4272 13.8062 14.5605 13.6422 14.5605H11.475V8.8932H13.6422C13.8062 8.8932 13.9395 9.02653 13.9395 9.19041V10.2016C13.9395 10.3229 14.0379 10.4213 14.1592 10.4213V10.4213ZM9.5668 4.59366V4.80949H3.27805C3.1881 4.80949 3.10352 4.84451 3.03978 4.90826L2.54276 5.40527H1.05469V4.59366H9.5668ZM1.21822 13.5428C1.12804 13.5428 1.05469 13.4695 1.05469 13.3793V5.84473H2.58522C2.67529 5.84473 2.75986 5.80971 2.82349 5.74608L3.3205 5.24895H9.56692V8.45364H4.80125C4.4236 8.45364 4.1114 8.7394 4.06929 9.10595C4.06609 9.13376 4.06448 9.16191 4.06448 9.19052V13.5428H1.21822ZM11.0355 14.5605H4.80125C4.63726 14.5605 4.50394 14.4271 4.50394 14.2632V9.19052C4.50394 9.02653 4.63737 8.8932 4.80125 8.8932H11.0355V14.5605Z" fill="#318124"/>
<path d="M4.70654 14.0214C4.70654 14.2071 4.85772 14.3583 5.04346 14.3583H10.4962C10.6821 14.3583 10.8331 14.2071 10.8331 14.0214V9.43262C10.8331 9.24688 10.6821 9.0957 10.4962 9.0957H6.48415C6.36285 9.0957 6.26443 9.19412 6.26443 9.31543C6.26443 9.43685 6.36285 9.53516 6.48415 9.53516H10.3937V13.9188H5.146V9.53516H5.60525C5.72655 9.53516 5.82497 9.43685 5.82497 9.31543C5.82497 9.19412 5.72655 9.0957 5.60525 9.0957H5.04346C4.85772 9.0957 4.70654 9.24688 4.70654 9.43262V14.0214Z" fill="#318124"/>
<path d="M13.4327 10.641C13.4327 10.241 13.1073 9.91553 12.7073 9.91553C12.3073 9.91553 11.9819 10.241 11.9819 10.641C11.9819 11.0409 12.3073 11.3664 12.7073 11.3664C13.1073 11.3664 13.4327 11.0409 13.4327 10.641V10.641ZM12.4214 10.641C12.4214 10.4833 12.5497 10.355 12.7073 10.355C12.865 10.355 12.9932 10.4833 12.9932 10.641C12.9932 10.7987 12.865 10.927 12.7073 10.927C12.5497 10.927 12.4214 10.7987 12.4214 10.641V10.641Z" fill="#318124"/>
<path d="M12.3496 11.9673H12.1328C12.0115 11.9673 11.9131 12.0656 11.9131 12.187C11.9131 12.3083 12.0115 12.4067 12.1328 12.4067H12.3496C12.4709 12.4067 12.5693 12.3083 12.5693 12.187C12.5693 12.0656 12.4709 11.9673 12.3496 11.9673Z" fill="#318124"/>
<path d="M13.2817 11.9673H13.0649C12.9436 11.9673 12.8452 12.0656 12.8452 12.187C12.8452 12.3083 12.9436 12.4067 13.0649 12.4067H13.2817C13.403 12.4067 13.5014 12.3083 13.5014 12.187C13.5014 12.0656 13.403 11.9673 13.2817 11.9673Z" fill="#318124"/>
<path d="M12.3496 12.8052H12.1328C12.0115 12.8052 11.9131 12.9035 11.9131 13.0249C11.9131 13.1463 12.0115 13.2446 12.1328 13.2446H12.3496C12.4709 13.2446 12.5693 13.1463 12.5693 13.0249C12.5693 12.9035 12.4709 12.8052 12.3496 12.8052Z" fill="#318124"/>
<path d="M13.2817 12.8052H13.0649C12.9436 12.8052 12.8452 12.9035 12.8452 13.0249C12.8452 13.1463 12.9436 13.2446 13.0649 13.2446H13.2817C13.403 13.2446 13.5014 13.1463 13.5014 13.0249C13.5014 12.9035 13.403 12.8052 13.2817 12.8052Z" fill="#318124"/>
</g>
<defs>
<clipPath id="clip0">
<rect width="15" height="15" fill="white"/>
</clipPath>
</defs>
</svg>
