<?xml version="1.0" standalone="no"?>
<!DOCTYPE svg PUBLIC "-//W3C//DTD SVG 20010904//EN"
 "http://www.w3.org/TR/2001/REC-SVG-20010904/DTD/svg10.dtd">
<svg version="1.0" xmlns="http://www.w3.org/2000/svg"
 width="1536.000000pt" height="1080.000000pt" viewBox="0 0 1536.000000 1080.000000"
 preserveAspectRatio="xMidYMid meet">
<metadata>
Created by potrace 1.16, written by Peter Selinger 2001-2019
</metadata>
<g transform="translate(0.000000,1080.000000) scale(0.100000,-0.100000)"
fill="#000000" stroke="none">
<path d="M7958 10416 c-143 -51 -263 -171 -314 -314 -34 -96 -34 -248 0 -344
51 -143 171 -263 314 -314 54 -19 87 -24 172 -24 85 0 118 5 172 24 143 51
263 171 314 314 34 96 34 248 0 344 -51 143 -171 263 -314 314 -54 19 -87 24
-172 24 -85 0 -118 -5 -172 -24z"/>
<path d="M6318 8841 c-159 -52 -282 -177 -329 -333 -28 -92 -24 -254 10 -340
48 -124 164 -240 289 -290 49 -20 75 -23 187 -23 112 0 138 3 187 23 125 50
240 165 290 290 20 49 23 75 23 187 0 112 -3 138 -23 187 -50 125 -166 241
-290 289 -81 32 -262 37 -344 10z"/>
<path d="M9600 7715 l0 -205 700 0 700 0 0 205 0 205 -700 0 -700 0 0 -205z"/>
<path d="M13340 7771 c-91 -29 -142 -61 -211 -130 -106 -106 -149 -212 -149
-366 0 -154 43 -260 149 -366 106 -106 212 -149 366 -149 154 0 260 43 366
149 106 106 149 212 149 366 0 154 -43 260 -149 366 -107 107 -212 149 -370
148 -63 0 -115 -6 -151 -18z"/>
<path d="M8388 6641 c-160 -52 -291 -185 -339 -343 -29 -94 -24 -264 10 -351
48 -123 173 -249 298 -298 51 -21 75 -24 193 -24 118 0 142 3 193 24 124 49
249 174 298 298 21 51 24 75 24 193 0 118 -3 142 -24 193 -49 125 -175 250
-298 298 -82 32 -272 37 -355 10z"/>
</g>
</svg>
