<svg width="29" height="29" viewBox="0 0 29 29" fill="none" xmlns="http://www.w3.org/2000/svg">
<path d="M26.5833 0H6.28333C4.94933 0.00157083 3.86824 1.08267 3.86667 2.41667V25.1333H0.483333C0.216412 25.1333 0 25.3497 0 25.6167V26.5833C0.00157083 27.9173 1.08267 28.9984 2.41667 29H22.7167C24.0507 28.9984 25.1318 27.9173 25.1333 26.5833V15.1834L28.1334 12.1834C28.7225 11.5943 28.7225 10.6391 28.1334 10.0499C27.5443 9.46083 26.5891 9.46083 25.9999 10.0499L25.1333 10.9166V3.86667H28.5167C28.7836 3.86667 29 3.65025 29 3.38333V2.41667C28.9984 1.08267 27.9173 0.00157083 26.5833 0ZM2.41667 28.0333C1.61584 28.0333 0.966667 27.3842 0.966667 26.5833V26.1H20.3V26.5833C20.3011 26.734 20.3163 26.8841 20.3454 27.0319C20.3541 27.0802 20.3682 27.1213 20.3793 27.1662C20.4033 27.2647 20.4333 27.3615 20.4692 27.4562C20.488 27.5046 20.5083 27.55 20.5301 27.5964C20.5713 27.6845 20.6178 27.77 20.6693 27.8526C20.6944 27.8932 20.7176 27.9342 20.7461 27.9729C20.7596 27.9927 20.7698 28.0145 20.7843 28.0333H2.41667ZM24.1667 26.5833C24.1667 27.3842 23.5175 28.0333 22.7167 28.0333C21.9158 28.0333 21.2667 27.3842 21.2667 26.5833V25.6167C21.2667 25.3497 21.0503 25.1333 20.7833 25.1333H4.83333V2.41667C4.83333 1.61584 5.48251 0.966667 6.28333 0.966667H24.65C24.6355 0.985517 24.6253 1.00727 24.6118 1.02708C24.5843 1.06575 24.5601 1.10683 24.535 1.14743C24.4835 1.22996 24.437 1.31551 24.3958 1.4036C24.374 1.45193 24.3537 1.4964 24.3349 1.54377C24.299 1.6385 24.269 1.73535 24.245 1.83377C24.2338 1.87872 24.2198 1.92222 24.2111 1.96813C24.1823 2.11591 24.1675 2.26611 24.1667 2.41667V11.8832L18.025 18.025C17.963 18.0869 17.919 18.1646 17.8978 18.2497L17.4145 20.183C17.3734 20.3477 17.4217 20.5217 17.5416 20.6417C17.5824 20.6809 17.6299 20.7125 17.6818 20.735C17.6943 20.7408 17.7059 20.7461 17.719 20.7509C17.7706 20.7706 17.8252 20.7815 17.8804 20.7829H17.8833C17.9228 20.7828 17.9621 20.778 18.0003 20.7684L19.9336 20.285C20.0187 20.2638 20.0964 20.2199 20.1584 20.1579L24.1667 16.1501V26.5833ZM26.6834 10.7334C26.8979 10.5285 27.2355 10.5285 27.4499 10.7334C27.6612 10.9452 27.6612 11.2881 27.4499 11.4999L27.0667 11.8832L26.3001 11.1167L26.6834 10.7334ZM25.6167 11.8001L26.3832 12.5667L19.5682 19.3817L18.5465 19.6374L18.8022 18.6156L25.6167 11.8001ZM28.0333 2.9H25.1333V2.41667C25.1333 1.61584 25.7825 0.966667 26.5833 0.966667C27.3842 0.966667 28.0333 1.61584 28.0333 2.41667V2.9Z" fill="#6B6B6B"/>
<path d="M19.8169 2.90002H9.18359V3.86669H19.8169V2.90002Z" fill="#6B6B6B"/>
<path d="M10.7739 4.97498L9.88796 5.86093C9.82005 5.82244 9.74362 5.80154 9.66562 5.80003H7.24896C6.98204 5.80003 6.76562 6.01644 6.76562 6.28336V8.70002C6.76562 8.96695 6.98204 9.18336 7.24896 9.18336H9.66562C9.93254 9.18336 10.149 8.96695 10.149 8.70002V6.96679L11.4573 5.65841L10.7739 4.97498ZM9.18229 8.21669H7.73229V6.76669H8.98219L8.35724 7.39164L9.04067 8.07507L9.18229 7.93346V8.21669Z" fill="#6B6B6B"/>
<path d="M22.232 5.80005H12.082V6.76672H22.232V5.80005Z" fill="#6B6B6B"/>
<path d="M20.2987 7.73328H12.082V8.69994H20.2987V7.73328Z" fill="#6B6B6B"/>
<path d="M10.7739 9.80823L9.88796 10.6942C9.82005 10.6557 9.74362 10.6348 9.66562 10.6333H7.24896C6.98204 10.6333 6.76562 10.8497 6.76562 11.1166V13.5333C6.76562 13.8002 6.98204 14.0166 7.24896 14.0166H9.66562C9.93254 14.0166 10.149 13.8002 10.149 13.5333V11.8L11.4573 10.4917L10.7739 9.80823ZM9.18229 13.0499H7.73229V11.5999H8.98219L8.35724 12.2249L9.04067 12.9083L9.18229 12.7667V13.0499Z" fill="#6B6B6B"/>
<path d="M22.232 10.6333H12.082V11.6H22.232V10.6333Z" fill="#6B6B6B"/>
<path d="M20.2987 12.5667H12.082V13.5333H20.2987V12.5667Z" fill="#6B6B6B"/>
<path d="M10.7739 14.6416L9.88796 15.5276C9.82005 15.4891 9.74362 15.4682 9.66562 15.4667H7.24896C6.98204 15.4667 6.76562 15.6831 6.76562 15.95V18.3667C6.76562 18.6336 6.98204 18.85 7.24896 18.85H9.66562C9.93254 18.85 10.149 18.6336 10.149 18.3667V16.6334L11.4573 15.325L10.7739 14.6416ZM9.18229 17.8833H7.73229V16.4333H8.98219L8.35724 17.0583L9.04067 17.7417L9.18229 17.6001V17.8833Z" fill="#6B6B6B"/>
<path d="M18.3654 15.4667H12.082V16.4333H18.3654V15.4667Z" fill="#6B6B6B"/>
<path d="M16.432 17.4H12.082V18.3667H16.432V17.4Z" fill="#6B6B6B"/>
<path d="M10.7739 19.475L9.88796 20.3609C9.82005 20.3224 9.74362 20.3015 9.66562 20.3H7.24896C6.98204 20.3 6.76562 20.5164 6.76562 20.7834V23.2C6.76562 23.4669 6.98204 23.6834 7.24896 23.6834H9.66562C9.93254 23.6834 10.149 23.4669 10.149 23.2V21.4668L11.4573 20.1584L10.7739 19.475ZM9.18229 22.7167H7.73229V21.2667H8.98219L8.35724 21.8916L9.04067 22.5751L9.18229 22.4335V22.7167Z" fill="#6B6B6B"/>
<path d="M16.432 20.3H12.082V21.2667H16.432V20.3Z" fill="#6B6B6B"/>
<path d="M20.2987 22.2334H12.082V23.2001H20.2987V22.2334Z" fill="#6B6B6B"/>
</svg>
