<svg width="30" height="30" viewBox="0 0 30 30" fill="none" xmlns="http://www.w3.org/2000/svg">
<path d="M15.4844 10.6452C15.4844 14.3808 12.4458 17.4194 8.71018 17.4194C4.97459 17.4194 1.93599 14.3808 1.93599 10.6452C1.93599 6.90958 4.97459 3.87097 8.71018 3.87097C12.4458 3.87097 15.4844 6.90958 15.4844 10.6452ZM11.6134 5.62453V7.74194H13.7308C13.2219 6.86469 12.4907 6.13345 11.6134 5.62453ZM13.0258 14.5161H10.6457V13.5484H13.7308C13.9085 13.2422 14.0573 12.919 14.1778 12.5807H10.6457V11.6129H14.429C14.4824 11.2975 14.5166 10.9757 14.5166 10.6452H10.6457V9.67742H14.429C14.373 9.34405 14.2882 9.02132 14.1778 8.70968H10.6457V5.17752C10.334 5.06671 10.0113 4.98236 9.67792 4.92637V16.3644C10.9989 16.1409 12.167 15.4723 13.0258 14.5161ZM2.90373 10.6452C2.90373 13.847 5.50832 16.4516 8.71018 16.4516V4.83871C5.50832 4.83871 2.90373 7.4433 2.90373 10.6452Z" fill="#6B6B6B"/>
<path d="M0 10.6452C0 7.23397 1.97565 4.28325 4.83871 2.85432V2.41935C4.83871 1.0854 5.92411 0 7.25806 0H23.7097C25.0436 0 26.129 1.0854 26.129 2.41935V21.2903H30V23.7097C30 25.0436 28.9146 26.129 27.5806 26.129H11.129V27.5806C11.129 28.9146 10.0436 30 8.70968 30C7.37572 30 6.29032 28.9146 6.29032 27.5806V20.3226H7.25806V19.2237C3.14563 18.5293 0 14.952 0 10.6452ZM0.967743 10.6452C0.967743 14.9138 4.44108 18.3871 8.70968 18.3871C12.9783 18.3871 16.4516 14.9138 16.4516 10.6452C16.4516 6.37656 12.9783 2.90323 8.70968 2.90323C4.44108 2.90323 0.967743 6.37656 0.967743 10.6452ZM16.9114 7.74194H23.2258V2.90323H12.6818C14.6413 3.91255 16.1657 5.64248 16.9114 7.74194ZM5.80645 2.41935V2.44345C6.68961 2.12993 7.63444 1.94942 8.62202 1.93974C8.42285 1.37554 7.8896 0.967742 7.25806 0.967742C6.45784 0.967742 5.80645 1.61912 5.80645 2.41935ZM11.129 20.3226V25.1613C11.9293 25.1613 12.5806 24.5099 12.5806 23.7097V21.2903H24.1935V22.2581H13.5484V23.7097C13.5484 24.2564 13.3591 24.7559 13.052 25.1613H27.5806C28.3809 25.1613 29.0323 24.5099 29.0323 23.7097V22.2581H25.1613V2.41935C25.1613 1.61912 24.5099 0.967742 23.7097 0.967742H9.18103C9.40453 1.26331 9.56425 1.60684 9.63347 1.98581C9.97795 2.02219 10.3137 2.08409 10.6452 2.15994V1.93548H24.1935V8.70968H17.1949C17.267 9.02651 17.3256 9.3483 17.3622 9.67742H22.2581V10.6452H17.4194C17.4194 10.9726 17.3976 11.2944 17.3622 11.6129H24.1935V12.5806H17.1949C17.1193 12.9112 17.0231 13.2334 16.9109 13.5484H24.1935V14.5161H16.5005C15.2797 16.9631 12.9454 18.7538 10.1613 19.2237V20.3226H11.129ZM7.25806 27.5806C7.25806 28.3809 7.90945 29.0323 8.70968 29.0323C9.50991 29.0323 10.1613 28.3809 10.1613 27.5806V21.2903H7.25806V27.5806ZM8.22581 20.3226H9.19355V19.3303C9.03242 19.3392 8.87317 19.3548 8.70968 19.3548C8.54618 19.3548 8.38694 19.3392 8.22581 19.3303V20.3226Z" fill="#6B6B6B"/>
<path d="M24.1953 9.67737H23.2276V10.6451H24.1953V9.67737Z" fill="#6B6B6B"/>
<path d="M24.1953 15.4839H16.9372V16.4516H24.1953V15.4839Z" fill="#6B6B6B"/>
<path d="M24.1953 17.4193H15.9695V18.3871H24.1953V17.4193Z" fill="#6B6B6B"/>
<path d="M14.0312 19.3549H13.0635V20.3226H14.0312V19.3549Z" fill="#6B6B6B"/>
<path d="M24.1953 19.3549H15.0018V20.3226H24.1953V19.3549Z" fill="#6B6B6B"/>
</svg>
