<svg width="26" height="17" viewBox="0 0 26 17" fill="none" xmlns="http://www.w3.org/2000/svg">
<path d="M13.4626 13.7402L13.464 13.7411C14.0897 14.1559 14.919 13.9764 15.3244 13.3679C15.3245 13.3678 15.3245 13.3677 15.3246 13.3676L17.5397 10.0449C17.3982 10.3813 17.32 10.7507 17.32 11.1381C17.32 12.6979 18.5879 13.9658 20.1477 13.9658C21.7074 13.9658 22.9753 12.6979 22.9753 11.1381C22.9753 9.57841 21.7074 8.31051 20.1477 8.31051C19.3591 8.31051 18.6452 8.63456 18.132 9.15655L21.2647 4.4574C21.6763 3.84008 21.5096 3.00716 20.8924 2.59566L20.8912 2.59483C20.2753 2.18643 19.4422 2.34907 19.0304 2.96836C19.0303 2.96847 19.0302 2.96859 19.0302 2.9687L16.8152 6.29109C16.9567 5.95464 17.0349 5.58522 17.0349 5.1978C17.0349 3.63806 15.767 2.37017 14.2073 2.37017C12.6476 2.37017 11.3797 3.63806 11.3797 5.1978C11.3797 6.75753 12.6476 8.02543 14.2073 8.02543C14.9959 8.02543 15.7098 7.70136 16.2231 7.17934L13.0903 11.8785C12.6787 12.4958 12.8454 13.3287 13.4626 13.7402ZM24.6029 15.7359H8.02543V14.1083C8.02543 13.3665 7.42468 12.7658 6.68288 12.7658C5.94109 12.7658 5.34034 13.3665 5.34034 14.1083V15.7359H0.742543C0.663485 15.7359 0.6 15.6725 0.6 15.5934V11.1381C0.6 11.0591 0.663486 10.9956 0.742543 10.9956C2.30228 10.9956 3.57017 9.7277 3.57017 8.16797C3.57017 6.60823 2.30228 5.34034 0.742543 5.34034C0.663486 5.34034 0.6 5.27686 0.6 5.1978V0.742543C0.6 0.663485 0.663485 0.6 0.742543 0.6H5.40197V2.22763C5.40197 2.96943 6.00272 3.57017 6.74451 3.57017C7.48631 3.57017 8.08706 2.96943 8.08706 2.22763V0.6H24.6029C24.682 0.6 24.7455 0.663486 24.7455 0.742543V15.5934C24.7455 15.6725 24.682 15.7359 24.6029 15.7359ZM6.68288 12.4807C7.42468 12.4807 8.02543 11.8799 8.02543 11.1381V9.65305C8.02543 8.91125 7.42468 8.31051 6.68288 8.31051C5.94109 8.31051 5.34034 8.91125 5.34034 9.65305V11.1381C5.34034 11.8799 5.94109 12.4807 6.68288 12.4807ZM6.68288 8.02543C7.42468 8.02543 8.02543 7.42468 8.02543 6.68288V5.1978C8.02543 4.456 7.42468 3.85526 6.68288 3.85526C5.94109 3.85526 5.34034 4.456 5.34034 5.1978V6.68288C5.34034 7.42468 5.94108 8.02543 6.68288 8.02543Z" stroke="#6B6B6B" stroke-width="1.2"/>
</svg>
