<svg width="22" height="22" viewBox="0 0 22 22" fill="none" xmlns="http://www.w3.org/2000/svg">
<path d="M22.0001 14.8886C22.0001 12.1586 20.4339 9.72215 18.0883 8.53699C18.0154 13.7715 13.7716 18.0153 8.53711 18.0881C9.72227 20.4338 12.1587 22 14.8888 22C16.1688 22 17.4135 21.6591 18.5072 21.0114L21.969 21.9689L21.0115 18.5071C21.6592 17.4134 22.0001 16.1686 22.0001 14.8886Z" fill="#318124"/>
<path d="M16.8008 8.40039C16.8008 3.76833 13.0325 0 8.40039 0C3.76833 0 0 3.76833 0 8.40039C0 9.91 0.401825 11.3798 1.16486 12.6702L0.0308838 16.7697L4.13054 15.6359C5.42094 16.399 6.89078 16.8008 8.40039 16.8008C13.0325 16.8008 16.8008 13.0325 16.8008 8.40039ZM7.11133 6.44531H5.82227C5.82227 5.02365 6.97873 3.86719 8.40039 3.86719C9.82205 3.86719 10.9785 5.02365 10.9785 6.44531C10.9785 7.16689 10.673 7.86043 10.1401 8.34785L9.04492 9.35023V10.3555H7.75586V8.78258L9.26984 7.39684C9.54041 7.14926 9.68945 6.81139 9.68945 6.44531C9.68945 5.73448 9.11122 5.15625 8.40039 5.15625C7.68956 5.15625 7.11133 5.73448 7.11133 6.44531ZM7.75586 11.6445H9.04492V12.9336H7.75586V11.6445Z" fill="#318124"/>
</svg>
