<svg width="26" height="23" viewBox="0 0 26 23" fill="none" xmlns="http://www.w3.org/2000/svg">
<path d="M18.6273 9.64566H17.4775C17.2231 9.64566 17.0176 9.44007 17.0176 9.18573V7.31982L11.8301 11.0254L17.0176 14.731V12.8651C17.0176 12.6108 17.2231 12.4052 17.4775 12.4052H17.7074C21.1311 12.4052 23.9164 15.1905 23.9164 18.6142C23.9164 20.3246 23.2215 21.8755 22.0988 22.9995C24.2793 21.7789 25.7561 19.4462 25.7561 16.7745C25.7561 12.8435 22.5583 9.64566 18.6273 9.64566Z" fill="#318124"/>
<path d="M21.1565 14.6084C20.284 13.8559 19.1641 13.3831 17.937 13.3302V15.6248C17.937 15.7973 17.8409 15.955 17.6877 16.0341C17.5337 16.1119 17.3497 16.0994 17.2099 15.9992L10.7709 11.3999C10.65 11.3135 10.5782 11.1741 10.5782 11.0256C10.5782 10.877 10.65 10.7376 10.7709 10.6516L17.2099 6.05241C17.3497 5.95168 17.5337 5.93835 17.6877 6.01745C17.8409 6.0961 17.937 6.25385 17.937 6.42633V8.72594H18.6269C19.5113 8.72594 20.3599 8.8745 21.1565 9.13941V4.12671H12.4179V7.34617C12.4179 7.60051 12.2123 7.8061 11.958 7.8061H9.19847C8.94413 7.8061 8.73854 7.60051 8.73854 7.34617V4.12671H0V20.6839H21.1565V14.6084ZM6.43893 19.7641H0.919847V18.8443H6.43893V19.7641ZM6.43893 17.9244H0.919847V17.0046H6.43893V17.9244Z" fill="#318124"/>
<path d="M9.6582 3.85714V6.88619H11.4979V3.85714L14.527 0.447266H13.0681L9.6582 3.85714Z" fill="#318124"/>
<path d="M3.40993 0.447266L0.650391 3.20681H9.00812L11.7677 0.447266H3.40993Z" fill="#318124"/>
<path d="M13.0684 3.20681H21.4261L24.1856 0.447266H15.8279L13.0684 3.20681Z" fill="#318124"/>
<path d="M24.8367 10.3357V1.09766L22.0771 3.8572V8.95591L24.8367 10.3357Z" fill="#318124"/>
</svg>
