<svg width="21" height="13" viewBox="0 0 21 13" fill="none" xmlns="http://www.w3.org/2000/svg">
<path d="M19.0312 0H1.3125C0.964503 0.000310275 0.630853 0.132106 0.384782 0.366459C0.138711 0.600812 0.000325789 0.918575 0 1.25V8.125C0.000325789 8.45643 0.138711 8.77419 0.384782 9.00854C0.630853 9.24289 0.964503 9.37469 1.3125 9.375H19.0312C19.3792 9.37469 19.7129 9.24289 19.959 9.00854C20.205 8.77419 20.3434 8.45643 20.3438 8.125V1.25C20.3434 0.918575 20.205 0.600812 19.959 0.366459C19.7129 0.132106 19.3792 0.000310275 19.0312 0ZM19.6875 8.125C19.6873 8.29069 19.6181 8.44954 19.495 8.5667C19.372 8.68387 19.2052 8.74978 19.0312 8.75H1.3125C1.13852 8.74978 0.971734 8.68387 0.848713 8.5667C0.725692 8.44954 0.656478 8.29069 0.65625 8.125V1.25C0.656478 1.08431 0.725692 0.925461 0.848713 0.808298C0.971734 0.691135 1.13852 0.625217 1.3125 0.625H19.0312C19.2052 0.625217 19.372 0.691135 19.495 0.808298C19.6181 0.925461 19.6873 1.08431 19.6875 1.25V8.125Z" fill="#318124"/>
<path d="M17.7188 6.25H2.625C2.53798 6.25 2.45452 6.28292 2.39298 6.34153C2.33145 6.40013 2.29687 6.47962 2.29688 6.5625V7.8125C2.29687 7.89538 2.33145 7.97487 2.39298 8.03347C2.45452 8.09208 2.53798 8.125 2.625 8.125H17.7188C17.8058 8.125 17.8892 8.09208 17.9508 8.03347C18.0123 7.97487 18.0469 7.89538 18.0469 7.8125V6.5625C18.0469 6.47962 18.0123 6.40013 17.9508 6.34153C17.8892 6.28292 17.8058 6.25 17.7188 6.25V6.25ZM7.875 6.875H9.84375V7.5H7.875V6.875ZM7.21875 7.5H5.25V6.875H7.21875V7.5ZM10.5 6.875H12.4688V7.5H10.5V6.875ZM13.125 6.875H15.0938V7.5H13.125V6.875ZM2.95312 6.875H4.59375V7.5H2.95312V6.875ZM17.3906 7.5H15.75V6.875H17.3906V7.5Z" fill="#318124"/>
<path d="M6.5625 2.8125V1.5625C6.5625 1.47962 6.52793 1.40013 6.46639 1.34153C6.40486 1.28292 6.3214 1.25 6.23438 1.25H1.64062C1.5536 1.25 1.47014 1.28292 1.40861 1.34153C1.34707 1.40013 1.3125 1.47962 1.3125 1.5625V2.8125C1.3125 2.89538 1.34707 2.97487 1.40861 3.03347C1.47014 3.09208 1.5536 3.125 1.64062 3.125H6.23438C6.3214 3.125 6.40486 3.09208 6.46639 3.03347C6.52793 2.97487 6.5625 2.89538 6.5625 2.8125ZM5.90625 2.5H1.96875V1.875H5.90625V2.5Z" fill="#318124"/>
<path d="M18.7031 1.25H16.7344C16.6474 1.25 16.5639 1.28292 16.5024 1.34153C16.4408 1.40013 16.4062 1.47962 16.4062 1.5625C16.4062 1.64538 16.4408 1.72487 16.5024 1.78347C16.5639 1.84208 16.6474 1.875 16.7344 1.875H18.7031C18.7901 1.875 18.8736 1.84208 18.9351 1.78347C18.9967 1.72487 19.0312 1.64538 19.0312 1.5625C19.0312 1.47962 18.9967 1.40013 18.9351 1.34153C18.8736 1.28292 18.7901 1.25 18.7031 1.25Z" fill="#318124"/>
<path d="M18.7031 2.1875H17.7188C17.6317 2.1875 17.5483 2.22042 17.4867 2.27903C17.4252 2.33763 17.3906 2.41712 17.3906 2.5C17.3906 2.58288 17.4252 2.66237 17.4867 2.72097C17.5483 2.77958 17.6317 2.8125 17.7188 2.8125H18.7031C18.7901 2.8125 18.8736 2.77958 18.9351 2.72097C18.9967 2.66237 19.0312 2.58288 19.0312 2.5C19.0312 2.41712 18.9967 2.33763 18.9351 2.27903C18.8736 2.22042 18.7901 2.1875 18.7031 2.1875Z" fill="#318124"/>
<path d="M10.6641 10.3125C10.6641 10.2296 10.6295 10.1501 10.568 10.0915C10.5064 10.0329 10.423 10 10.3359 10C10.2489 10 10.1655 10.0329 10.1039 10.0915C10.0424 10.1501 10.0078 10.2296 10.0078 10.3125C10.0078 10.3362 10.0078 10.3393 9.93985 10.4041C9.84256 10.4967 9.67969 10.6518 9.67969 10.9375C9.67969 11.2232 9.84256 11.3783 9.93985 11.471C10.0078 11.5357 10.0078 11.5388 10.0078 11.5625C10.0078 11.5862 10.0078 11.5893 9.93985 11.654C9.84256 11.7467 9.67969 11.9018 9.67969 12.1875C9.67969 12.2704 9.71426 12.3499 9.77579 12.4085C9.83733 12.4671 9.92079 12.5 10.0078 12.5C10.0948 12.5 10.1783 12.4671 10.2398 12.4085C10.3014 12.3499 10.3359 12.2704 10.3359 12.1875C10.3359 12.1638 10.3359 12.1607 10.4039 12.096C10.5012 12.0034 10.6641 11.8482 10.6641 11.5625C10.6641 11.2768 10.5012 11.1217 10.4039 11.029C10.3359 10.9644 10.3359 10.9613 10.3359 10.9375C10.3359 10.9137 10.3359 10.9107 10.4039 10.8459C10.5012 10.7533 10.6641 10.5982 10.6641 10.3125Z" fill="#318124"/>
<path d="M8.20312 10.3125C8.20312 10.2296 8.16856 10.1501 8.10702 10.0915C8.04548 10.0329 7.96202 10 7.875 10C7.78798 10 7.70452 10.0329 7.64298 10.0915C7.58144 10.1501 7.54688 10.2296 7.54688 10.3125C7.54688 10.3362 7.54688 10.3393 7.47891 10.4041C7.38162 10.4967 7.21875 10.6518 7.21875 10.9375C7.21875 11.2232 7.38162 11.3783 7.47891 11.471C7.54688 11.5357 7.54688 11.5388 7.54688 11.5625C7.54688 11.5862 7.54688 11.5893 7.47891 11.654C7.38162 11.7467 7.21875 11.9018 7.21875 12.1875C7.21875 12.2704 7.25332 12.3499 7.31486 12.4085C7.37639 12.4671 7.45985 12.5 7.54688 12.5C7.6339 12.5 7.71736 12.4671 7.77889 12.4085C7.84043 12.3499 7.875 12.2704 7.875 12.1875C7.875 12.1638 7.875 12.1607 7.94296 12.096C8.04025 12.0034 8.20312 11.8482 8.20312 11.5625C8.20312 11.2768 8.04025 11.1217 7.94296 11.029C7.875 10.9644 7.875 10.9613 7.875 10.9375C7.875 10.9137 7.875 10.9107 7.94296 10.8459C8.04025 10.7533 8.20312 10.5982 8.20312 10.3125Z" fill="#318124"/>
<path d="M5.57812 10.3125C5.57812 10.2296 5.54356 10.1501 5.48202 10.0915C5.42048 10.0329 5.33702 10 5.25 10C5.16298 10 5.07952 10.0329 5.01798 10.0915C4.95644 10.1501 4.92188 10.2296 4.92188 10.3125C4.92188 10.3362 4.92188 10.3393 4.85391 10.4041C4.75662 10.4967 4.59375 10.6518 4.59375 10.9375C4.59375 11.2232 4.75662 11.3783 4.85391 11.471C4.92188 11.5357 4.92188 11.5388 4.92188 11.5625C4.92188 11.5862 4.92188 11.5893 4.85391 11.654C4.75662 11.7467 4.59375 11.9018 4.59375 12.1875C4.59375 12.2704 4.62832 12.3499 4.68986 12.4085C4.75139 12.4671 4.83485 12.5 4.92188 12.5C5.0089 12.5 5.09236 12.4671 5.15389 12.4085C5.21543 12.3499 5.25 12.2704 5.25 12.1875C5.25 12.1638 5.25 12.1607 5.31796 12.096C5.41525 12.0034 5.57812 11.8482 5.57812 11.5625C5.57812 11.2768 5.41525 11.1217 5.31796 11.029C5.25 10.9644 5.25 10.9613 5.25 10.9375C5.25 10.9137 5.25 10.9107 5.31796 10.8459C5.41525 10.7533 5.57812 10.5982 5.57812 10.3125Z" fill="#318124"/>
<path d="M16.0781 10.3125C16.0781 10.2296 16.0436 10.1501 15.982 10.0915C15.9205 10.0329 15.837 10 15.75 10C15.663 10 15.5795 10.0329 15.518 10.0915C15.4564 10.1501 15.4219 10.2296 15.4219 10.3125C15.4219 10.3362 15.4219 10.3393 15.3539 10.4041C15.2566 10.4967 15.0938 10.6518 15.0938 10.9375C15.0938 11.2232 15.2566 11.3783 15.3539 11.471C15.4219 11.5357 15.4219 11.5388 15.4219 11.5625C15.4219 11.5862 15.4219 11.5893 15.3539 11.654C15.2566 11.7467 15.0938 11.9018 15.0938 12.1875C15.0938 12.2704 15.1283 12.3499 15.1899 12.4085C15.2514 12.4671 15.3349 12.5 15.4219 12.5C15.5089 12.5 15.5924 12.4671 15.6539 12.4085C15.7154 12.3499 15.75 12.2704 15.75 12.1875C15.75 12.1638 15.75 12.1607 15.818 12.096C15.9153 12.0034 16.0781 11.8482 16.0781 11.5625C16.0781 11.2768 15.9153 11.1217 15.818 11.029C15.75 10.9644 15.75 10.9613 15.75 10.9375C15.75 10.9137 15.75 10.9107 15.818 10.8459C15.9153 10.7533 16.0781 10.5982 16.0781 10.3125Z" fill="#318124"/>
<path d="M13.4531 10.3125C13.4531 10.2296 13.4186 10.1501 13.357 10.0915C13.2955 10.0329 13.212 10 13.125 10C13.038 10 12.9545 10.0329 12.893 10.0915C12.8314 10.1501 12.7969 10.2296 12.7969 10.3125C12.7969 10.3362 12.7969 10.3393 12.7289 10.4041C12.6316 10.4967 12.4688 10.6518 12.4688 10.9375C12.4688 11.2232 12.6316 11.3783 12.7289 11.471C12.7969 11.5357 12.7969 11.5388 12.7969 11.5625C12.7969 11.5862 12.7969 11.5893 12.7289 11.654C12.6316 11.7467 12.4688 11.9018 12.4688 12.1875C12.4688 12.2704 12.5033 12.3499 12.5649 12.4085C12.6264 12.4671 12.7099 12.5 12.7969 12.5C12.8839 12.5 12.9674 12.4671 13.0289 12.4085C13.0904 12.3499 13.125 12.2704 13.125 12.1875C13.125 12.1638 13.125 12.1607 13.193 12.096C13.2903 12.0034 13.4531 11.8482 13.4531 11.5625C13.4531 11.2768 13.2903 11.1217 13.193 11.029C13.125 10.9644 13.125 10.9613 13.125 10.9375C13.125 10.9137 13.125 10.9107 13.193 10.8459C13.2903 10.7533 13.4531 10.5982 13.4531 10.3125Z" fill="#318124"/>
</svg>
