<svg width="13" height="14" viewBox="0 0 13 14" fill="none" xmlns="http://www.w3.org/2000/svg">
<path d="M12.2781 1.37318C12.0728 1.08509 11.7944 0.848886 11.4675 0.685628C11.1407 0.52237 10.7756 0.437127 10.4049 0.4375H10.3125V0.21875C10.3125 0.160734 10.2878 0.105094 10.2439 0.0640704C10.1999 0.0230468 10.1403 0 10.0781 0C10.016 0 9.95635 0.0230468 9.9124 0.0640704C9.86844 0.105094 9.84375 0.160734 9.84375 0.21875V0.4375H1.64063C1.20565 0.437956 0.788639 0.59943 0.481068 0.886496C0.173497 1.17356 0.000488518 1.56278 0 1.96875V3.28125C0.000473327 3.61088 0.114713 3.93159 0.32579 4.19587C0.536867 4.46014 0.833549 4.65392 1.17188 4.74849V5.19531C1.17206 5.31631 1.21994 5.43302 1.30639 5.52319C1.39283 5.61336 1.5118 5.6707 1.64063 5.68427V6.125H1.28906C1.16615 6.12486 1.04631 6.16085 0.946538 6.22785C0.84677 6.29486 0.772139 6.38948 0.733233 6.49831C0.694327 6.60713 0.693121 6.72462 0.729786 6.83412C0.766451 6.94361 0.839125 7.03956 0.9375 7.10834V9.00052C0.937886 9.30116 1.01288 9.59764 1.15661 9.86669C1.39936 10.3235 1.82627 10.6718 2.34375 10.8352V11.375H0.703125C0.516645 11.375 0.337802 11.4441 0.205941 11.5672C0.0740791 11.6903 0 11.8572 0 12.0312C0 12.2053 0.0740791 12.3722 0.205941 12.4953C0.337802 12.6184 0.516645 12.6875 0.703125 12.6875V12.9062C0.703125 12.9643 0.727818 13.0199 0.771772 13.0609C0.815726 13.102 0.87534 13.125 0.9375 13.125H1.875C1.90578 13.125 1.93626 13.1193 1.96469 13.1084C1.99313 13.0974 2.01897 13.0812 2.04073 13.0609L2.44081 12.6875H10.0072L10.6512 13.0883C10.6897 13.1122 10.735 13.125 10.7813 13.125H11.4844C11.5465 13.125 11.6062 13.102 11.6501 13.0609C11.6941 13.0199 11.7188 12.9643 11.7188 12.9062V11.5938C11.7188 11.591 11.7184 11.5881 11.7183 11.5853C11.7183 11.582 11.718 11.5787 11.7178 11.5754C11.7173 11.5704 11.7166 11.5654 11.7158 11.5605C11.7154 11.5586 11.7154 11.5566 11.715 11.5546L11.229 9.06013C10.9428 7.59332 11.1037 6.08097 11.6935 4.69536L12.2781 3.87682C12.5251 3.53183 12.6567 3.12616 12.6563 2.71127V2.53873C12.6567 2.12384 12.5251 1.71817 12.2781 1.37318V1.37318ZM0.46875 3.28125V1.96875C0.469099 1.67877 0.592676 1.40076 0.81237 1.19571C1.03206 0.990664 1.32993 0.875326 1.64063 0.875H10.4049C10.6985 0.874707 10.9875 0.942202 11.2463 1.07147C11.5051 1.20073 11.7256 1.38775 11.8881 1.61585C11.9193 1.65944 11.9478 1.70428 11.9742 1.75H11.25C11.1878 1.75 11.1282 1.77305 11.0843 1.81407C11.0403 1.85509 11.0156 1.91073 11.0156 1.96875C11.0156 2.02677 11.0403 2.08241 11.0843 2.12343C11.1282 2.16445 11.1878 2.1875 11.25 2.1875H12.1473C12.174 2.30292 12.1875 2.42066 12.1875 2.53873V2.625H11.25C11.1878 2.625 11.1282 2.64805 11.0843 2.68907C11.0403 2.73009 11.0156 2.78573 11.0156 2.84375C11.0156 2.90177 11.0403 2.95741 11.0843 2.99843C11.1282 3.03945 11.1878 3.0625 11.25 3.0625H12.1473C12.112 3.21559 12.0535 3.36321 11.9737 3.50096C11.9669 3.50041 11.96 3.5 11.9532 3.5H11.25C11.1878 3.5 11.1282 3.52305 11.0843 3.56407C11.0403 3.60509 11.0156 3.66073 11.0156 3.71875C11.0156 3.77677 11.0403 3.83241 11.0843 3.87343C11.1282 3.91445 11.1878 3.9375 11.25 3.9375H11.6714L11.359 4.375H1.64063C1.32993 4.37467 1.03206 4.25934 0.81237 4.05429C0.592676 3.84924 0.469099 3.57123 0.46875 3.28125V3.28125ZM8.24839 6.38203C8.37389 6.81156 8.43748 7.25479 8.4375 7.7V7.89687C8.44131 9.19512 7.9012 10.4433 6.93249 11.375H6.09375V10.8352C6.61119 10.6718 7.0381 10.3236 7.28089 9.86686C7.42461 9.59779 7.49961 9.30131 7.5 9.00066V7.10847C7.59844 7.03971 7.67117 6.94376 7.70787 6.83424C7.74457 6.72471 7.74338 6.60718 7.70447 6.49833C7.66556 6.38947 7.5909 6.29482 7.49109 6.22781C7.39128 6.16079 7.27139 6.12482 7.14844 6.125H3.04688V5.6875H4.16016C4.29997 5.68735 4.434 5.63544 4.53287 5.54317C4.63173 5.4509 4.68734 5.3258 4.6875 5.19531V4.8125H7.78975L8.24839 6.38203ZM4.21875 4.8125V5.19531C4.21875 5.20982 4.21258 5.22373 4.20159 5.23398C4.1906 5.24424 4.1757 5.25 4.16016 5.25H1.69922C1.68368 5.25 1.66878 5.24424 1.65779 5.23398C1.6468 5.22373 1.64063 5.20982 1.64063 5.19531V4.8125H4.21875ZM2.10938 5.6875H2.57813V6.125H2.10938V5.6875ZM1.28906 6.5625H7.14844C7.17952 6.5625 7.20933 6.57402 7.2313 6.59454C7.25328 6.61505 7.26563 6.64287 7.26563 6.67188C7.26563 6.70088 7.25328 6.7287 7.2313 6.74921C7.20933 6.76973 7.17952 6.78125 7.14844 6.78125H1.28906C1.25798 6.78125 1.22818 6.76973 1.2062 6.74921C1.18422 6.7287 1.17188 6.70088 1.17188 6.67188C1.17188 6.64287 1.18422 6.61505 1.2062 6.59454C1.22818 6.57402 1.25798 6.5625 1.28906 6.5625ZM1.57585 9.67116C1.4646 9.46288 1.40655 9.23338 1.40625 9.00066V7.21875H7.03125V9.00066C7.03095 9.23339 6.9729 9.4629 6.86165 9.67118C6.72905 9.92084 6.52415 10.1308 6.27019 10.2773C6.01622 10.4238 5.72336 10.501 5.42482 10.5H3.01269C2.71413 10.501 2.42127 10.4238 2.16731 10.2773C1.91334 10.1308 1.70845 9.92082 1.57585 9.67116ZM2.8125 10.9375H5.625V11.375H2.8125V10.9375ZM11.25 12.6875H10.8522L10.2081 12.2867C10.1696 12.2628 10.1244 12.25 10.0781 12.25H2.34375C2.31297 12.25 2.28249 12.2557 2.25406 12.2666C2.22562 12.2776 2.19978 12.2938 2.17802 12.3141L1.77794 12.6875H1.17188V12.4688C1.17188 12.4107 1.14718 12.3551 1.10323 12.3141C1.05927 12.273 0.99966 12.25 0.9375 12.25H0.703125C0.640965 12.25 0.581351 12.227 0.537397 12.1859C0.493443 12.1449 0.46875 12.0893 0.46875 12.0312C0.46875 11.9732 0.493443 11.9176 0.537397 11.8766C0.581351 11.8355 0.640965 11.8125 0.703125 11.8125H11.25V12.6875ZM10.7678 9.13828L11.2035 11.375H7.56193C8.43063 10.3973 8.90612 9.16704 8.90625 7.89687V7.7C8.90625 7.21589 8.83709 6.73394 8.70059 6.26689L8.27561 4.8125H11.1452C10.6154 6.19863 10.4852 7.6904 10.7678 9.13828V9.13828Z" fill="#318124"/>
<path d="M5.62516 9.84375C5.6615 9.84374 5.69733 9.83581 5.72981 9.82059C5.91001 9.7372 6.06158 9.60836 6.16733 9.44867C6.27308 9.28897 6.32878 9.10483 6.32811 8.9171V8.75C6.32811 8.69198 6.30342 8.63634 6.25946 8.59532C6.21551 8.5543 6.15589 8.53125 6.09373 8.53125C6.03157 8.53125 5.97196 8.5543 5.92801 8.59532C5.88405 8.63634 5.85936 8.69198 5.85936 8.75V8.9171C5.85974 9.02353 5.82816 9.12794 5.76821 9.21848C5.70826 9.30902 5.62233 9.38207 5.52016 9.42936C5.47293 9.4514 5.43506 9.48769 5.41269 9.53234C5.39032 9.57699 5.38476 9.62738 5.39692 9.67534C5.40907 9.72331 5.43822 9.76604 5.47965 9.7966C5.52108 9.82717 5.57235 9.84378 5.62516 9.84375V9.84375Z" fill="#318124"/>
<path d="M6.09375 8.3125C6.15591 8.3125 6.21552 8.28945 6.25948 8.24843C6.30343 8.20741 6.32812 8.15177 6.32812 8.09375V7.875C6.32812 7.81698 6.30343 7.76134 6.25948 7.72032C6.21552 7.6793 6.15591 7.65625 6.09375 7.65625C6.03159 7.65625 5.97198 7.6793 5.92802 7.72032C5.88407 7.76134 5.85938 7.81698 5.85938 7.875V8.09375C5.85938 8.15177 5.88407 8.20741 5.92802 8.24843C5.97198 8.28945 6.03159 8.3125 6.09375 8.3125Z" fill="#318124"/>
<path d="M9.375 3.5C9.56042 3.5 9.74168 3.44868 9.89585 3.35254C10.05 3.25639 10.1702 3.11973 10.2411 2.95985C10.3121 2.79996 10.3307 2.62403 10.2945 2.4543C10.2583 2.28456 10.169 2.12865 10.0379 2.00628C9.9068 1.88391 9.73976 1.80058 9.5579 1.76681C9.37604 1.73305 9.18754 1.75038 9.01624 1.81661C8.84493 1.88283 8.69851 1.99498 8.5955 2.13888C8.49248 2.28277 8.4375 2.45194 8.4375 2.625C8.43778 2.85698 8.53664 3.07939 8.7124 3.24343C8.88815 3.40747 9.12645 3.49974 9.375 3.5ZM9.375 2.1875C9.46771 2.1875 9.55834 2.21316 9.63543 2.26123C9.71251 2.30931 9.77259 2.37763 9.80807 2.45758C9.84355 2.53752 9.85283 2.62549 9.83475 2.71035C9.81666 2.79522 9.77202 2.87317 9.70646 2.93436C9.6409 2.99555 9.55738 3.03721 9.46645 3.05409C9.37552 3.07098 9.28127 3.06231 9.19562 3.0292C9.10997 2.99608 9.03676 2.94001 8.98525 2.86806C8.93374 2.79612 8.90625 2.71153 8.90625 2.625C8.9064 2.50901 8.95583 2.39781 9.04371 2.31579C9.13158 2.23378 9.25073 2.18764 9.375 2.1875V2.1875Z" fill="#318124"/>
<path d="M7.03125 3.5C7.21667 3.5 7.39793 3.44868 7.5521 3.35254C7.70627 3.25639 7.82643 3.11973 7.89739 2.95985C7.96835 2.79996 7.98691 2.62403 7.95074 2.4543C7.91457 2.28456 7.82528 2.12865 7.69417 2.00628C7.56305 1.88391 7.39601 1.80058 7.21415 1.76681C7.03229 1.73305 6.84379 1.75038 6.67249 1.81661C6.50118 1.88283 6.35476 1.99498 6.25175 2.13888C6.14873 2.28277 6.09375 2.45194 6.09375 2.625C6.09403 2.85698 6.19289 3.07939 6.36865 3.24343C6.5444 3.40747 6.7827 3.49974 7.03125 3.5V3.5ZM7.03125 2.1875C7.12396 2.1875 7.21459 2.21316 7.29168 2.26123C7.36876 2.30931 7.42884 2.37763 7.46432 2.45758C7.4998 2.53752 7.50908 2.62549 7.491 2.71035C7.47291 2.79522 7.42827 2.87317 7.36271 2.93436C7.29715 2.99555 7.21363 3.03721 7.1227 3.05409C7.03177 3.07098 6.93752 3.06231 6.85187 3.0292C6.76622 2.99608 6.69301 2.94001 6.6415 2.86806C6.58999 2.79612 6.5625 2.71153 6.5625 2.625C6.56265 2.50901 6.61208 2.39781 6.69996 2.31579C6.78783 2.23378 6.90698 2.18764 7.03125 2.1875V2.1875Z" fill="#318124"/>
<path d="M2.10938 1.75C2.10938 1.69198 2.08468 1.63634 2.04073 1.59532C1.99677 1.5543 1.93716 1.53125 1.875 1.53125H1.40625C1.34409 1.53125 1.28448 1.5543 1.24052 1.59532C1.19657 1.63634 1.17188 1.69198 1.17188 1.75C1.17188 1.80802 1.19657 1.86366 1.24052 1.90468C1.28448 1.9457 1.34409 1.96875 1.40625 1.96875H1.875C1.93716 1.96875 1.99677 1.9457 2.04073 1.90468C2.08468 1.86366 2.10938 1.80802 2.10938 1.75Z" fill="#318124"/>
<path d="M2.8125 1.96875H3.98438C4.04654 1.96875 4.10615 1.9457 4.1501 1.90468C4.19406 1.86366 4.21875 1.80802 4.21875 1.75C4.21875 1.69198 4.19406 1.63634 4.1501 1.59532C4.10615 1.5543 4.04654 1.53125 3.98438 1.53125H2.8125C2.75034 1.53125 2.69073 1.5543 2.64677 1.59532C2.60282 1.63634 2.57812 1.69198 2.57812 1.75C2.57812 1.80802 2.60282 1.86366 2.64677 1.90468C2.69073 1.9457 2.75034 1.96875 2.8125 1.96875Z" fill="#318124"/>
</svg>
