<svg width="18" height="15" viewBox="0 0 18 15" fill="none" xmlns="http://www.w3.org/2000/svg">
<path d="M5.77849 8.83758C6.21657 8.83758 6.57321 8.50114 6.57321 8.08752C6.57321 7.67443 6.21657 7.33838 5.77849 7.33838C5.34096 7.33838 4.98486 7.6743 4.98486 8.08752C4.98486 8.50114 5.34096 8.83758 5.77849 8.83758ZM5.77849 7.84019C5.92364 7.84019 6.04175 7.95108 6.04175 8.08752C6.04175 8.22436 5.92364 8.33577 5.77849 8.33577C5.63388 8.33577 5.51619 8.22436 5.51619 8.08752C5.51619 7.95108 5.63388 7.84019 5.77849 7.84019Z" fill="#318124"/>
<path d="M8.19414 8.83019C8.63181 8.83019 8.98776 8.49427 8.98776 8.08118C8.98776 7.66808 8.63181 7.33203 8.19414 7.33203C7.75592 7.33203 7.39941 7.66808 7.39941 8.08118C7.39941 8.49427 7.75592 8.83019 8.19414 8.83019ZM8.19414 7.83384C8.33875 7.83384 8.45644 7.94473 8.45644 8.08105C8.45644 8.21749 8.33875 8.32838 8.19414 8.32838C8.04898 8.32838 7.93088 8.21749 7.93088 8.08105C7.93088 7.94473 8.04898 7.83384 8.19414 7.83384Z" fill="#318124"/>
<path d="M16.8917 2.20346H11.2934C10.6821 2.20346 10.185 2.67259 10.185 3.24936V5.73349H9.39013V0.579238C9.39013 0.259918 9.11479 0 8.77641 0H2.85946C2.52095 0 2.24574 0.259918 2.24574 0.579238V3.09632C2.24574 3.23483 2.36467 3.34715 2.51133 3.34715C2.65814 3.34715 2.77706 3.23483 2.77706 3.09632V0.579238C2.77706 0.537215 2.81483 0.501807 2.85946 0.501807H4.44616V1.17119C4.44616 1.44822 4.68484 1.67351 4.97831 1.67351H6.60744C6.90077 1.67351 7.13959 1.44822 7.13959 1.17119V0.501807H8.77641C8.82104 0.501807 8.85881 0.537215 8.85881 0.579238V5.73349H2.7772L2.77802 4.23015C2.77802 4.0915 2.6591 3.97918 2.51243 3.97905H2.51229C2.36563 3.97905 2.2467 4.09137 2.24656 4.22989L2.24574 5.74296C0.970228 5.84607 0 6.84541 0 8.10336C0 9.31955 0.994673 10.3201 2.25645 10.4199V13.5418C2.25645 14.0572 2.68052 14.4765 3.20155 14.4765C3.72271 14.4765 4.14664 14.0572 4.14664 13.5418V11.8222H11.0276V13.5418C11.0276 14.0572 11.4512 14.4765 11.9718 14.4765C12.4929 14.4765 12.9169 14.0572 12.9169 13.5418V11.8222H15.2682V13.5418C15.2682 14.0572 15.6917 14.4765 16.2124 14.4765C16.7335 14.4765 17.1575 14.0572 17.1575 13.5418V10.8342C17.6406 10.7215 18 10.3092 18 9.81877V3.24936C18 2.67259 17.5028 2.20346 16.8917 2.20346ZM6.60744 1.1717L4.97735 1.17119V0.501807H6.60799L6.60744 1.1717ZM3.61532 13.5419C3.61532 13.7806 3.42965 13.9747 3.20155 13.9747C2.97344 13.9747 2.78778 13.7806 2.78778 13.5419V10.4287H3.61518V13.5419H3.61532ZM2.46423 9.92694C1.39842 9.92694 0.531325 9.10892 0.531325 8.10336C0.531325 7.05591 1.38029 6.2353 2.46423 6.2353H2.51119H2.51133H10.185V6.59262H2.48771C2.43113 6.59262 2.37908 6.59522 2.32882 6.60054C1.52009 6.67745 0.91049 7.31375 0.91049 8.08118C0.91049 8.90192 1.61801 9.56974 2.48771 9.56974H10.185V9.8189C10.185 9.85534 10.1871 9.8914 10.1909 9.92694H2.46423ZM10.185 7.09443V9.06781H2.48771C1.91107 9.06781 1.44182 8.62527 1.44182 8.08118C1.44182 7.58054 1.85545 7.14942 2.38334 7.09962C2.38458 7.09962 2.38568 7.09949 2.38691 7.09936C2.41767 7.09599 2.45063 7.09443 2.48771 7.09443H10.185ZM11.0276 11.3204H4.14664V10.4287H10.3937C10.5453 10.6273 10.7686 10.7739 11.0276 10.8342V11.3204ZM12.3854 13.5419C12.3854 13.7806 12.1999 13.9747 11.9718 13.9747C11.7441 13.9747 11.559 13.7806 11.559 13.5419V10.8648H12.3854V13.5419ZM15.2682 11.3204H12.9167V10.8648H15.2682V11.3204ZM16.626 13.5419C16.626 13.7806 16.4405 13.9747 16.2122 13.9747C15.9847 13.9747 15.7995 13.7806 15.7995 13.5419V10.8648H16.626V13.5419ZM17.4686 9.8189C17.4686 10.1189 17.2099 10.3631 16.8917 10.3631H11.2934C10.9752 10.3631 10.7163 10.1189 10.7163 9.8189V3.24936C10.7163 2.94937 10.9752 2.70514 11.2934 2.70514H16.8917C17.2098 2.70514 17.4686 2.94937 17.4686 3.24936V9.8189Z" fill="#318124"/>
<path d="M16.1624 3.41309H12.023C11.7161 3.41309 11.4663 3.64849 11.4663 3.93772V5.75987C11.4663 6.04962 11.7161 6.28542 12.023 6.28542H13.6798C13.8266 6.28542 13.9455 6.1731 13.9455 6.03445C13.9455 5.89593 13.8266 5.78361 13.6798 5.78361H12.023C12.0096 5.78361 11.9978 5.77245 11.9978 5.75974V3.93772C11.9978 3.92579 12.0099 3.91489 12.023 3.91489H16.1624C16.1749 3.91489 16.1867 3.92605 16.1867 3.93772V5.75974C16.1867 5.77219 16.1752 5.78361 16.1624 5.78361H14.8292C14.6824 5.78361 14.5634 5.89593 14.5634 6.03445C14.5634 6.1731 14.6824 6.28542 14.8292 6.28542H16.1624C16.4688 6.28542 16.718 6.04962 16.718 5.75987V3.93772C16.718 3.64849 16.4688 3.41309 16.1624 3.41309Z" fill="#318124"/>
<path d="M13.2528 6.8042H12.3964C12.0297 6.8042 11.7314 7.08526 11.7314 7.43091C11.7314 7.77682 12.0297 8.05839 12.3964 8.05839H13.2528C13.6188 8.05839 13.9166 7.77682 13.9166 7.43091C13.9166 7.08526 13.6188 6.8042 13.2528 6.8042ZM13.2528 7.55659H12.3964C12.324 7.55659 12.2629 7.499 12.2629 7.43091C12.2629 7.3632 12.324 7.30601 12.3964 7.30601H13.2528C13.3258 7.30601 13.3853 7.36204 13.3853 7.43091C13.3852 7.499 13.3246 7.55659 13.2528 7.55659Z" fill="#318124"/>
<path d="M13.2361 8.40186H12.3797C12.0135 8.40186 11.7158 8.68304 11.7158 9.02856C11.7158 9.3746 12.0135 9.65618 12.3797 9.65618H13.2361C13.6027 9.65618 13.9009 9.3746 13.9009 9.02856C13.9009 8.68304 13.6027 8.40186 13.2361 8.40186V8.40186ZM13.2361 9.15437H12.3797C12.3078 9.15437 12.2471 9.09679 12.2471 9.02856C12.2471 8.95969 12.3066 8.90366 12.3797 8.90366H13.2361C13.3084 8.90366 13.3695 8.96086 13.3695 9.02856C13.3695 9.09679 13.3084 9.15437 13.2361 9.15437Z" fill="#318124"/>
<path d="M14.9998 8.05839H15.8562C16.2221 8.05839 16.52 7.77682 16.52 7.43091C16.52 7.08526 16.2221 6.8042 15.8562 6.8042H14.9998C14.6331 6.8042 14.335 7.08526 14.335 7.43091C14.335 7.77682 14.6331 8.05839 14.9998 8.05839ZM14.9998 7.30601H15.8562C15.9292 7.30601 15.9887 7.36204 15.9887 7.43091C15.9887 7.499 15.928 7.55659 15.8562 7.55659H14.9998C14.9274 7.55659 14.8663 7.499 14.8663 7.43091C14.8663 7.3632 14.9274 7.30601 14.9998 7.30601Z" fill="#318124"/>
<path d="M15.8938 8.40186H15.0374C14.6708 8.40186 14.3726 8.68304 14.3726 9.02856C14.3726 9.3746 14.6708 9.65618 15.0374 9.65618H15.8938C16.2599 9.65618 16.5576 9.3746 16.5576 9.02856C16.5576 8.68304 16.2599 8.40186 15.8938 8.40186V8.40186ZM15.8938 9.15437H15.0374C14.965 9.15437 14.9039 9.09679 14.9039 9.02856C14.9039 8.96086 14.965 8.90366 15.0374 8.90366H15.8938C15.9668 8.90366 16.0263 8.95969 16.0263 9.02856C16.0263 9.09679 15.9656 9.15437 15.8938 9.15437Z" fill="#318124"/>
<path d="M3.36406 8.84441C3.80159 8.84441 4.15768 8.50836 4.15768 8.09527C4.15768 7.68166 3.80159 7.34521 3.36406 7.34521C2.92584 7.34521 2.56934 7.68166 2.56934 8.09527C2.56934 8.50836 2.92584 8.84441 3.36406 8.84441ZM3.36406 7.84702C3.50867 7.84702 3.62636 7.95844 3.62636 8.09527C3.62636 8.23158 3.50867 8.34261 3.36406 8.34261C3.21877 8.34261 3.10066 8.23158 3.10066 8.09527C3.10066 7.95844 3.21877 7.84702 3.36406 7.84702Z" fill="#318124"/>
</svg>
