<svg width="18" height="18" viewBox="0 0 18 18" fill="none" xmlns="http://www.w3.org/2000/svg">
<g clip-path="url(#clip0)">
<path d="M13.2272 5.91748C12.7708 5.91748 12.3994 6.28882 12.3994 6.74527C12.3994 7.20171 12.7708 7.57306 13.2272 7.57306C13.6836 7.57306 14.055 7.20171 14.055 6.74527C14.055 6.28882 13.6836 5.91748 13.2272 5.91748ZM13.2272 7.04468C13.0621 7.04468 12.9278 6.91033 12.9278 6.74527C12.9278 6.5802 13.0621 6.44586 13.2272 6.44586C13.3923 6.44586 13.5266 6.5802 13.5266 6.74527C13.5266 6.91033 13.3923 7.04468 13.2272 7.04468Z" fill="black"/>
<path d="M16.8728 11.5537V10.4265H15.182V9.1266C15.8698 8.56085 16.3092 7.70358 16.3092 6.74553C16.3092 5.04599 14.9265 3.66333 13.227 3.66333C11.5275 3.66333 10.1448 5.04599 10.1448 6.74553C10.1448 7.2496 10.2644 7.73479 10.4937 8.17214H5.03718V5.88251H9.8454V5.35414H5.03718V2.53613H3.3816V9.82772H4.50881V10.4265H1.1272V11.5537H0V13.2093H1.1272V14.3365H2.2544V15.4637H5.03718V14.3365H12.3816V13.8082H1.65558V10.9549H4.50881V11.5537H2.2544V13.2093H3.90998V12.0821H4.50881V12.6457H6.182V12.1173H5.03718V9.82772H10.1448V12.1173H6.7456V12.6457H10.6732V12.0821H14.09V13.2093H15.7456V11.5537H10.6732V10.9549H16.3444V13.8082H12.9628V15.4637H15.7456V14.3365H16.8728V13.2093H18V11.5537H16.8728ZM1.1272 12.6809H0.528376V12.0821H1.1272V12.6809ZM2.78278 14.3365H4.50881V14.9354H2.78278V14.3365ZM3.3816 12.6809H2.78278V12.0821H3.3816V12.6809ZM14.6184 12.0821H15.2172V12.6809H14.6184V12.0821ZM3.90998 3.06451H4.50881V8.17214H3.90998V3.06451ZM3.90998 9.29934V8.70052H11.272V9.29934H3.90998ZM14.6536 10.4265H10.6732V9.82772H11.8004V9.47882C12.2377 9.70817 12.7229 9.82772 13.227 9.82772C13.7415 9.82772 14.2268 9.70084 14.6536 9.47702V10.4265ZM13.227 9.29934C12.7126 9.29934 12.2223 9.1489 11.8004 8.86368V8.17214H11.1089C10.8236 7.75029 10.6732 7.25988 10.6732 6.74553C10.6732 5.33733 11.8188 4.19171 13.227 4.19171C14.6352 4.19171 15.7808 5.33733 15.7808 6.74553C15.7808 8.15372 14.6352 9.29934 13.227 9.29934ZM15.2172 14.9354H13.4912V14.3365H15.2172V14.9354ZM17.4716 12.6809H16.8728V12.0821H17.4716V12.6809Z" fill="black"/>
<path d="M8.43652 10.7085H9.00012V11.2369H8.43652V10.7085Z" fill="black"/>
<path d="M7.30908 10.7085H7.87268V11.2369H7.30908V10.7085Z" fill="black"/>
<path d="M6.18213 10.7085H6.74573V11.2369H6.18213V10.7085Z" fill="black"/>
</g>
<defs>
<clipPath id="clip0">
<rect width="18" height="18" fill="white"/>
</clipPath>
</defs>
</svg>
