<svg width="21" height="25" viewBox="0 0 21 25" fill="none" xmlns="http://www.w3.org/2000/svg">
<path d="M10.1563 22.2656C9.92448 22.2656 9.69791 22.1969 9.50519 22.0681C9.31248 21.9394 9.16228 21.7563 9.07358 21.5422C8.98488 21.3281 8.96168 21.0925 9.00689 20.8651C9.05211 20.6378 9.16372 20.429 9.32761 20.2651C9.4915 20.1012 9.70031 19.9896 9.92763 19.9444C10.155 19.8992 10.3906 19.9224 10.6047 20.0111C10.8188 20.0998 11.0019 20.25 11.1306 20.4427C11.2594 20.6354 11.3281 20.862 11.3281 21.0938C11.3281 21.4046 11.2047 21.7026 10.9849 21.9224C10.7651 22.1422 10.4671 22.2656 10.1563 22.2656ZM10.1563 20.7031C10.079 20.7031 10.0035 20.726 9.93923 20.769C9.875 20.8119 9.82493 20.8729 9.79536 20.9443C9.7658 21.0156 9.75806 21.0942 9.77313 21.17C9.78821 21.2457 9.82541 21.3153 9.88004 21.37C9.93467 21.4246 10.0043 21.4618 10.08 21.4769C10.1558 21.4919 10.2344 21.4842 10.3057 21.4546C10.3771 21.4251 10.4381 21.375 10.4811 21.3108C10.524 21.2465 10.5469 21.171 10.5469 21.0938C10.5469 20.9902 10.5057 20.8908 10.4325 20.8175C10.3592 20.7443 10.2599 20.7031 10.1563 20.7031Z" fill="#4E4E4E"/>
<path d="M10.1563 5.85937C9.92448 5.85937 9.69791 5.79064 9.50519 5.66188C9.31248 5.53311 9.16228 5.35009 9.07358 5.13596C8.98488 4.92182 8.96168 4.6862 9.00689 4.45888C9.05211 4.23156 9.16372 4.02275 9.32761 3.85886C9.4915 3.69497 9.70031 3.58336 9.92763 3.53814C10.155 3.49293 10.3906 3.51613 10.6047 3.60483C10.8188 3.69353 11.0019 3.84373 11.1306 4.03644C11.2594 4.22915 11.3281 4.45572 11.3281 4.6875C11.3281 4.9983 11.2047 5.29637 10.9849 5.51614C10.7651 5.73591 10.4671 5.85937 10.1563 5.85937ZM10.1563 4.29687C10.079 4.29687 10.0035 4.31978 9.93923 4.36271C9.875 4.40563 9.82493 4.46664 9.79536 4.53801C9.7658 4.60939 9.75806 4.68793 9.77313 4.76371C9.78821 4.83948 9.82541 4.90908 9.88004 4.96371C9.93467 5.01834 10.0043 5.05555 10.08 5.07062C10.1558 5.08569 10.2344 5.07795 10.3057 5.04839C10.3771 5.01882 10.4381 4.96876 10.4811 4.90452C10.524 4.84028 10.5469 4.76476 10.5469 4.6875C10.5469 4.5839 10.5057 4.48454 10.4325 4.41129C10.3592 4.33803 10.2599 4.29687 10.1563 4.29687Z" fill="#4E4E4E"/>
<path d="M17.5781 9.375C17.3464 9.375 17.1198 9.30627 16.9271 9.1775C16.7344 9.04873 16.5842 8.86571 16.4955 8.65158C16.4068 8.43745 16.3836 8.20182 16.4288 7.9745C16.474 7.74718 16.5856 7.53837 16.7495 7.37448C16.9134 7.21059 17.1222 7.09898 17.3495 7.05377C17.5768 7.00855 17.8125 7.03176 18.0266 7.12045C18.2407 7.20915 18.4237 7.35935 18.5525 7.55207C18.6813 7.74478 18.75 7.97135 18.75 8.20312C18.75 8.51392 18.6265 8.812 18.4068 9.03176C18.187 9.25153 17.8889 9.375 17.5781 9.375ZM17.5781 7.8125C17.5009 7.8125 17.4253 7.83541 17.3611 7.87833C17.2969 7.92125 17.2468 7.98226 17.2172 8.05364C17.1877 8.12502 17.1799 8.20356 17.195 8.27933C17.2101 8.35511 17.2473 8.42471 17.3019 8.47934C17.3565 8.53397 17.4261 8.57117 17.5019 8.58624C17.5777 8.60132 17.6562 8.59358 17.7276 8.56401C17.799 8.53445 17.86 8.48438 17.9029 8.42014C17.9458 8.35591 17.9688 8.28038 17.9688 8.20312C17.9688 8.09952 17.9276 8.00017 17.8543 7.92691C17.7811 7.85365 17.6817 7.8125 17.5781 7.8125Z" fill="#4E4E4E"/>
<path d="M2.73437 8.98437C2.5026 8.98437 2.27603 8.91564 2.08332 8.78688C1.8906 8.65811 1.7404 8.47509 1.6517 8.26096C1.56301 8.04682 1.5398 7.8112 1.58502 7.58388C1.63023 7.35656 1.74184 7.14775 1.90573 6.98386C2.06962 6.81997 2.27843 6.70836 2.50575 6.66314C2.73307 6.61793 2.9687 6.64113 3.18283 6.72983C3.39696 6.81853 3.57998 6.96873 3.70875 7.16144C3.83752 7.35416 3.90625 7.58072 3.90625 7.8125C3.90625 8.1233 3.78278 8.42137 3.56301 8.64114C3.34325 8.86091 3.04517 8.98437 2.73437 8.98437ZM2.73437 7.42187C2.65712 7.42187 2.58159 7.44478 2.51735 7.48771C2.45312 7.53063 2.40305 7.59164 2.37348 7.66301C2.34392 7.73439 2.33618 7.81293 2.35126 7.88871C2.36633 7.96448 2.40353 8.03408 2.45816 8.08871C2.51279 8.14334 2.58239 8.18055 2.65817 8.19562C2.73394 8.21069 2.81248 8.20295 2.88386 8.17339C2.95524 8.14382 3.01624 8.09376 3.05917 8.02952C3.10209 7.96528 3.125 7.88976 3.125 7.8125C3.125 7.7089 3.08384 7.60954 3.01059 7.53629C2.93733 7.46303 2.83797 7.42187 2.73437 7.42187Z" fill="#4E4E4E"/>
<path d="M10.1562 24.2187C10.0855 24.2188 10.016 24.1995 9.95547 24.1629L6.63789 22.1726C4.61796 20.9529 2.94617 19.2336 1.78356 17.1803C0.620955 15.1269 0.0067104 12.8088 0 10.4492V5.85937C0 5.75577 0.0411551 5.65641 0.114411 5.58315C0.187668 5.5099 0.287025 5.46874 0.390625 5.46874C1.35238 5.46738 2.31051 5.3508 3.24453 5.12148C3.34523 5.09692 3.45156 5.11338 3.54013 5.16722C3.62869 5.22106 3.69224 5.30789 3.7168 5.40859C3.74135 5.50929 3.7249 5.61561 3.67105 5.70418C3.61721 5.79275 3.53039 5.8563 3.42969 5.88085C2.56182 6.09319 1.67425 6.2148 0.78125 6.24374V10.4492C0.787419 12.6742 1.36649 14.8601 2.46267 16.7963C3.55885 18.7325 5.1352 20.3538 7.03984 21.5039L10.1562 23.3727L13.273 21.5027C14.6999 20.6487 15.947 19.5252 16.9449 18.1949C17.0071 18.112 17.0996 18.0572 17.2022 18.0426C17.3047 18.0279 17.4089 18.0546 17.4918 18.1168C17.5747 18.179 17.6295 18.2715 17.6441 18.374C17.6588 18.4766 17.6321 18.5808 17.5699 18.6637C16.5119 20.0744 15.1897 21.2659 13.677 22.1719L10.3594 24.1621C10.2982 24.1994 10.2279 24.219 10.1562 24.2187Z" fill="#4E4E4E"/>
<path d="M18.1158 17.5162C18.0474 17.516 17.9802 17.4978 17.9209 17.4634C17.8617 17.429 17.8126 17.3797 17.7784 17.3204C17.7443 17.261 17.7263 17.1937 17.7264 17.1253C17.7264 17.0568 17.7445 16.9895 17.7787 16.9302C18.9243 14.9623 19.5288 12.7262 19.5307 10.449V6.24392C17.8197 6.19002 16.1368 5.79496 14.5806 5.08192C13.0244 4.36887 11.6262 3.35221 10.4682 2.09158L10.1557 1.74978L9.84318 2.09197C8.4963 3.55748 6.82821 4.69102 4.96974 5.40369C4.92166 5.42284 4.87025 5.43224 4.8185 5.43136C4.76675 5.43047 4.7157 5.41931 4.6683 5.39852C4.6209 5.37773 4.57811 5.34773 4.5424 5.31026C4.5067 5.27279 4.4788 5.2286 4.46032 5.18026C4.44184 5.13191 4.43315 5.08038 4.43476 5.02864C4.43637 4.97691 4.44824 4.92602 4.46969 4.87891C4.49114 4.83181 4.52173 4.78944 4.5597 4.75426C4.59766 4.71908 4.64224 4.6918 4.69084 4.674C6.43568 4.00469 8.00174 2.94028 9.26623 1.56423L9.86779 0.907592C9.90536 0.869289 9.95018 0.838862 9.99965 0.818091C10.0491 0.79732 10.1022 0.786621 10.1559 0.786621C10.2095 0.786621 10.2626 0.79732 10.3121 0.818091C10.3616 0.838862 10.4064 0.869289 10.444 0.907592L11.0451 1.56228C12.1741 2.79174 13.5459 3.77367 15.0737 4.44603C16.6015 5.11838 18.2521 5.46655 19.9213 5.46853C20.0249 5.46853 20.1243 5.50968 20.1975 5.58294C20.2708 5.6562 20.3119 5.75555 20.3119 5.85915V10.449C20.3101 12.8644 19.6691 15.2364 18.4541 17.324C18.4194 17.3828 18.37 17.4315 18.3106 17.4652C18.2513 17.4989 18.1841 17.5165 18.1158 17.5162Z" fill="#4E4E4E"/>
<path d="M7.85938 21.0178C7.78849 21.0178 7.71895 20.9985 7.6582 20.962L7.4418 20.8323C5.08726 19.4078 3.28453 17.228 2.32734 14.6479C2.29108 14.5508 2.29489 14.4432 2.33793 14.3489C2.38097 14.2546 2.45971 14.1813 2.55684 14.145C2.65396 14.1087 2.76151 14.1125 2.85583 14.1556C2.95015 14.1986 3.02351 14.2774 3.05977 14.3745C3.92583 16.71 5.53283 18.6978 7.63516 20.0339C7.84367 19.5373 8.19416 19.1134 8.64267 18.8153C9.09117 18.5172 9.61772 18.3582 10.1562 18.3582C10.6948 18.3582 11.2213 18.5172 11.6698 18.8153C12.1183 19.1134 12.4688 19.5373 12.6773 20.0339C14.2277 19.051 15.5176 17.7081 16.4372 16.1195C17.3569 14.5308 17.8791 12.7435 17.9594 10.9096C17.8331 10.9279 17.7057 10.937 17.5781 10.937C16.8532 10.9362 16.1582 10.6478 15.6455 10.1352C15.1329 9.62258 14.8446 8.92756 14.8438 8.20261C14.8427 7.77991 14.9409 7.36287 15.1305 6.98503C14.2654 6.67955 13.4313 6.29252 12.6395 5.82917C12.4214 6.30438 12.0715 6.70703 11.6313 6.9893C11.1912 7.27157 10.6793 7.42161 10.1564 7.42161C9.63358 7.42161 9.12169 7.27157 8.68156 6.9893C8.24142 6.70703 7.89154 6.30438 7.67344 5.82917C6.92503 6.26756 6.13881 6.63793 5.32422 6.93581C5.46337 7.34718 5.50254 7.78577 5.43849 8.21528C5.37444 8.64479 5.20901 9.05287 4.9559 9.40574C4.70279 9.75861 4.36927 10.0461 3.98295 10.2445C3.59664 10.4428 3.16864 10.5463 2.73438 10.5464C2.60363 10.5465 2.47306 10.5368 2.34375 10.5175C2.35136 11.3282 2.44658 12.1358 2.62773 12.926C2.64012 12.9764 2.64235 13.0288 2.63428 13.08C2.62622 13.1313 2.60803 13.1804 2.58077 13.2245C2.55352 13.2687 2.51774 13.3069 2.47553 13.3371C2.43333 13.3673 2.38553 13.3887 2.33494 13.4002C2.28435 13.4117 2.23198 13.413 2.18088 13.4041C2.12978 13.3951 2.08098 13.376 2.03733 13.348C1.99368 13.32 1.95605 13.2835 1.92663 13.2408C1.89722 13.198 1.87661 13.1499 1.86602 13.0991C1.66659 12.2297 1.56479 11.3407 1.5625 10.4487V10.019C1.5625 9.95653 1.57748 9.89496 1.6062 9.83947C1.63491 9.78397 1.67652 9.73618 1.72753 9.70009C1.77854 9.66401 1.83746 9.64069 1.89935 9.63208C1.96124 9.62348 2.02429 9.62985 2.0832 9.65066C2.45436 9.78152 2.8564 9.7972 3.23663 9.69564C3.61685 9.59409 3.95753 9.38003 4.21401 9.08153C4.4705 8.78304 4.63082 8.41402 4.67398 8.02284C4.71713 7.63165 4.6411 7.23656 4.45586 6.88933C4.42892 6.83914 4.41328 6.78367 4.41004 6.72681C4.4068 6.66994 4.41604 6.61305 4.4371 6.56013C4.45817 6.50721 4.49055 6.45953 4.53198 6.42045C4.57342 6.38136 4.6229 6.35181 4.67695 6.33386C5.72961 5.98384 6.73581 5.50717 7.67344 4.91433C7.72579 4.88128 7.78525 4.86114 7.84691 4.85558C7.90857 4.85002 7.97067 4.8592 8.02809 4.88236C8.08551 4.90552 8.1366 4.94199 8.17716 4.98878C8.21771 5.03556 8.24656 5.09131 8.26133 5.15144C8.36508 5.57559 8.60818 5.95266 8.95167 6.22226C9.29517 6.49186 9.7192 6.63839 10.1559 6.63839C10.5925 6.63839 11.0166 6.49186 11.36 6.22226C11.7035 5.95266 11.9466 5.57559 12.0504 5.15144C12.0652 5.09129 12.0941 5.03552 12.1347 4.98873C12.1753 4.94195 12.2264 4.90549 12.2839 4.88237C12.3414 4.85924 12.4035 4.85012 12.4652 4.85574C12.5269 4.86137 12.5863 4.88158 12.6387 4.91472C13.6378 5.54571 14.7145 6.04465 15.8418 6.3991C15.9018 6.41802 15.9564 6.45117 16.0009 6.49573C16.0453 6.54029 16.0784 6.59493 16.0972 6.655C16.116 6.71507 16.12 6.7788 16.1088 6.84075C16.0977 6.9027 16.0717 6.96105 16.0332 7.01081C15.7678 7.35133 15.6241 7.7709 15.625 8.20261C15.6241 8.51532 15.6986 8.82365 15.842 9.10152C15.9855 9.37939 16.1937 9.61863 16.4492 9.79901C16.7046 9.9794 16.9997 10.0956 17.3096 10.1379C17.6194 10.1801 17.9349 10.1471 18.2293 10.0417C18.2882 10.0209 18.3513 10.0145 18.4132 10.0231C18.475 10.0317 18.534 10.055 18.585 10.0911C18.636 10.1272 18.6776 10.175 18.7063 10.2305C18.735 10.286 18.75 10.3475 18.75 10.41C18.7491 12.5062 18.2075 14.5666 17.1777 16.3923C16.1479 18.218 14.6646 19.7473 12.8711 20.8323L12.6543 20.9624C12.6005 20.9946 12.5398 21.0134 12.4772 21.0172C12.4147 21.021 12.3521 21.0096 12.2948 20.9842C12.2376 20.9587 12.1873 20.9198 12.1482 20.8708C12.1091 20.8218 12.0824 20.7641 12.0703 20.7026C11.9807 20.2611 11.7411 19.8641 11.3923 19.579C11.0435 19.2939 10.6068 19.1382 10.1562 19.1382C9.70572 19.1382 9.26904 19.2939 8.92021 19.579C8.57138 19.8641 8.33184 20.2611 8.24219 20.7026C8.22418 20.7908 8.17624 20.8701 8.10648 20.9271C8.03672 20.984 7.94943 21.0151 7.85938 21.0151V21.0178Z" fill="#4E4E4E"/>
<path d="M9.17902 17.2583C9.07543 17.2583 8.97609 17.2171 8.90285 17.1439L5.33996 13.581C5.26673 13.5077 5.22559 13.4084 5.22559 13.3048C5.22559 13.2012 5.26673 13.1019 5.33996 13.0286L6.99699 11.3712C7.07024 11.298 7.16958 11.2568 7.27316 11.2568C7.37674 11.2568 7.47608 11.298 7.54933 11.3712L9.17902 13.0005L12.7618 9.41808C12.8351 9.34485 12.9344 9.30371 13.038 9.30371C13.1416 9.30371 13.2409 9.34485 13.3142 9.41808L14.9712 11.0755C15.0444 11.1488 15.0856 11.2481 15.0856 11.3517C15.0856 11.4553 15.0444 11.5546 14.9712 11.6278L12.8751 13.7239C12.8015 13.7951 12.7028 13.8345 12.6004 13.8336C12.4979 13.8327 12.4 13.7916 12.3275 13.7192C12.2551 13.6468 12.214 13.5488 12.2131 13.4464C12.2122 13.3439 12.2516 13.2453 12.3228 13.1716L14.1427 11.3517L13.038 10.2466L9.4552 13.8278C9.38194 13.9011 9.2826 13.9422 9.17902 13.9422C9.07544 13.9422 8.9761 13.9011 8.90285 13.8278L7.27316 12.1985L6.16847 13.3036L9.17902 16.3153L11.2181 14.2763C11.2918 14.2051 11.3904 14.1658 11.4929 14.1666C11.5953 14.1675 11.6932 14.2086 11.7657 14.281C11.8381 14.3535 11.8792 14.4514 11.8801 14.5539C11.881 14.6563 11.8416 14.755 11.7704 14.8286L9.4552 17.1439C9.38196 17.2171 9.28262 17.2583 9.17902 17.2583Z" fill="#4E4E4E"/>
</svg>
