<svg width="22" height="22" viewBox="0 0 22 22" fill="none" xmlns="http://www.w3.org/2000/svg">
<path fill-rule="evenodd" clip-rule="evenodd" d="M20.2636 8.8806H5.60389L19.6847 4.80159C19.7942 4.76987 19.8865 4.69585 19.9415 4.59615C19.9966 4.49628 20.0097 4.37878 19.9779 4.26935L19.2411 1.72563C18.9467 0.709656 18.0007 0 16.9406 0C16.7172 0 16.4946 0.031723 16.2788 0.094162L3.05833 3.92392C2.44686 4.101 1.94013 4.50752 1.63113 5.0683C1.32229 5.62907 1.24978 6.27478 1.42686 6.88608L2.14675 9.37122V19.6087C2.14675 20.9273 3.21946 22 4.5379 22H9.70119C9.93853 22 10.1309 21.8076 10.1309 21.5703C10.1309 21.333 9.93853 21.1406 9.70119 21.1406H4.53806C3.69329 21.1406 3.00613 20.4535 3.00613 19.6087V13.7612H5.20744H5.20844H5.20928H8.57427H8.57528H8.57629H11.9413H11.9423H11.9433H15.3083H15.3093H15.3101H19.8339V19.6087C19.8339 20.4535 19.1468 21.1406 18.302 21.1406H13.1387C12.9015 21.1406 12.709 21.333 12.709 21.5703C12.709 21.8076 12.9015 22 13.1387 22H18.302C19.6206 22 20.6933 20.9273 20.6933 19.6087V9.31029C20.6933 9.07295 20.501 8.8806 20.2636 8.8806ZM12.6869 12.9019L14.5125 9.73997H16.887L15.0615 12.9019H12.6869ZM9.31985 12.9019L11.1455 9.73997H13.52L11.6945 12.9019H9.31985ZM5.95301 12.9019L7.77851 9.73997H10.1532L8.32754 12.9019H5.95301ZM7.55058 7.33926L4.49342 4.40295L6.78402 3.73946C6.80013 3.76295 6.81893 3.78511 6.84042 3.80576L9.89758 6.74207L7.60697 7.40556C7.59086 7.38206 7.57189 7.35974 7.55058 7.33926ZM13.3084 1.93208L16.3655 4.86839L14.0749 5.53189C14.0588 5.50839 14.04 5.48607 14.0185 5.46559L10.9614 2.52928L13.252 1.86578C13.2681 1.88928 13.2869 1.91144 13.3084 1.93208ZM10.0743 2.869L13.1315 5.80515L10.8409 6.46881C10.8248 6.44531 10.806 6.42299 10.7845 6.40251L7.72732 3.4662L10.0179 2.8027C10.0342 2.82603 10.053 2.84836 10.0743 2.869ZM16.518 0.919632C16.6559 0.879684 16.7981 0.859375 16.9406 0.859375C17.6205 0.859375 18.227 1.3139 18.4156 1.96481L19.033 4.09563L17.309 4.59497C17.2927 4.57147 17.2739 4.54932 17.2524 4.52867L14.1955 1.59253L16.518 0.919632ZM2.38392 5.48288C2.58198 5.12318 2.90643 4.86269 3.29751 4.74939L3.54995 4.67621C3.56623 4.69971 3.58503 4.72203 3.60635 4.74251L6.66351 7.67882L2.86967 8.77788L2.25233 6.64706C2.13903 6.25615 2.18586 5.84274 2.38392 5.48288ZM3.00613 9.73997H6.7862L4.9607 12.9019H3.00613V9.73997ZM16.0539 12.9019L17.8794 9.73997H19.8339V12.9019H16.0539Z" fill="#4E4E4E"/>
<path fill-rule="evenodd" clip-rule="evenodd" d="M14.3913 17.407C14.3913 17.2534 14.3093 17.1116 14.1764 17.0349L10.4014 14.8554C10.2684 14.7787 10.1046 14.7787 9.97168 14.8554C9.83875 14.9321 9.75684 15.0739 9.75684 15.2275V19.5865C9.75684 19.7399 9.83875 19.8817 9.97168 19.9584C10.0381 19.9969 10.1123 20.0162 10.1865 20.0162C10.2607 20.0162 10.3349 19.9969 10.4014 19.9584L14.1764 17.7791C14.3093 17.7024 14.3913 17.5606 14.3913 17.407ZM10.6162 18.8422V15.9717L13.1022 17.407L10.6162 18.8422Z" fill="#4E4E4E"/>
<path fill-rule="evenodd" clip-rule="evenodd" d="M11.4199 21.1406C11.1833 21.1406 10.9902 21.3336 10.9902 21.5703C10.9902 21.807 11.1833 22 11.4199 22C11.6568 22 11.8496 21.807 11.8496 21.5703C11.8496 21.3336 11.6568 21.1406 11.4199 21.1406Z" fill="#4E4E4E"/>
</svg>
