<svg width="22" height="22" viewBox="0 0 22 22" fill="none" xmlns="http://www.w3.org/2000/svg">
<path d="M20.1667 0H4.76667C3.75467 0.00119167 2.93453 0.821333 2.93333 1.83333V19.0667H0.366667C0.164175 19.0667 0 19.2308 0 19.4333V20.1667C0.00119167 21.1787 0.821333 21.9988 1.83333 22H17.2333C18.2453 21.9988 19.0655 21.1787 19.0667 20.1667V11.5185L21.3426 9.24257C21.7895 8.79565 21.7895 8.07102 21.3426 7.6241C20.8956 7.17718 20.171 7.17718 19.7241 7.6241L19.0667 8.28153V2.93333H21.6333C21.8358 2.93333 22 2.76916 22 2.56667V1.83333C21.9988 0.821333 21.1787 0.00119167 20.1667 0ZM1.83333 21.2667C1.22581 21.2667 0.733333 20.7742 0.733333 20.1667V19.8H15.4V20.1667C15.4008 20.2809 15.4124 20.3948 15.4345 20.5069C15.4411 20.5436 15.4517 20.5748 15.4601 20.6089C15.4783 20.6835 15.5011 20.757 15.5283 20.8289C15.5426 20.8655 15.558 20.9 15.5745 20.9352C15.6058 21.002 15.6411 21.0669 15.6801 21.1295C15.6992 21.1603 15.7168 21.1915 15.7384 21.2208C15.7487 21.2359 15.7564 21.2524 15.7674 21.2667H1.83333ZM18.3333 20.1667C18.3333 20.7742 17.8409 21.2667 17.2333 21.2667C16.6258 21.2667 16.1333 20.7742 16.1333 20.1667V19.4333C16.1333 19.2308 15.9692 19.0667 15.7667 19.0667H3.66667V1.83333C3.66667 1.22581 4.15915 0.733333 4.76667 0.733333H18.7C18.689 0.747633 18.6813 0.764133 18.671 0.779167C18.6501 0.8085 18.6318 0.839667 18.6127 0.870467C18.5737 0.933075 18.5384 0.997975 18.5071 1.0648C18.4906 1.10147 18.4752 1.1352 18.4609 1.17113C18.4337 1.243 18.4109 1.31647 18.3927 1.39113C18.3843 1.42523 18.3737 1.45823 18.3671 1.49307C18.3452 1.60518 18.3339 1.71912 18.3333 1.83333V9.01487L13.6741 13.6741C13.6271 13.7211 13.5938 13.7801 13.5777 13.8446L13.211 15.3113C13.1798 15.4362 13.2165 15.5682 13.3074 15.6592C13.3384 15.689 13.3744 15.713 13.4138 15.73C13.4233 15.7344 13.4321 15.7384 13.442 15.7421C13.4811 15.757 13.5226 15.7652 13.5645 15.7663H13.5667C13.5966 15.7663 13.6264 15.7626 13.6554 15.7553L15.1221 15.3886C15.1866 15.3725 15.2455 15.3392 15.2926 15.2922L18.3333 12.2518V20.1667ZM20.2426 8.14257C20.4053 7.98715 20.6614 7.98715 20.8241 8.14257C20.9844 8.30326 20.9844 8.56341 20.8241 8.7241L20.5333 9.01487L19.9518 8.43333L20.2426 8.14257ZM19.4333 8.9518L20.0149 9.53333L14.8449 14.7033L14.0697 14.8973L14.2637 14.1222L19.4333 8.9518ZM21.2667 2.2H19.0667V1.83333C19.0667 1.22581 19.5591 0.733333 20.1667 0.733333C20.7742 0.733333 21.2667 1.22581 21.2667 1.83333V2.2Z" fill="#6B6B6B"/>
<path d="M15.0344 2.19971H6.96777V2.93304H15.0344V2.19971Z" fill="#6B6B6B"/>
<path d="M8.17358 3.77441L7.50148 4.44651C7.44996 4.41732 7.39198 4.40146 7.33281 4.40031H5.49948C5.29699 4.40031 5.13281 4.56449 5.13281 4.76698V6.60031C5.13281 6.8028 5.29699 6.96698 5.49948 6.96698H7.33281C7.5353 6.96698 7.69948 6.8028 7.69948 6.60031V5.28545L8.69205 4.29288L8.17358 3.77441ZM6.96615 6.23365H5.86615V5.13365H6.81435L6.34025 5.60775L6.85871 6.12621L6.96615 6.01878V6.23365Z" fill="#6B6B6B"/>
<path d="M16.866 4.3999H9.16602V5.13324H16.866V4.3999Z" fill="#6B6B6B"/>
<path d="M15.3994 5.8667H9.16602V6.60003H15.3994V5.8667Z" fill="#6B6B6B"/>
<path d="M8.17358 7.44043L7.50148 8.11253C7.44996 8.08333 7.39198 8.06748 7.33281 8.06633H5.49948C5.29699 8.06633 5.13281 8.2305 5.13281 8.433V10.2663C5.13281 10.4688 5.29699 10.633 5.49948 10.633H7.33281C7.5353 10.633 7.69948 10.4688 7.69948 10.2663V8.95146L8.69205 7.9589L8.17358 7.44043ZM6.96615 9.89966H5.86615V8.79966H6.81435L6.34025 9.27376L6.85871 9.79223L6.96615 9.6848V9.89966Z" fill="#6B6B6B"/>
<path d="M16.866 8.06641H9.16602V8.79974H16.866V8.06641Z" fill="#6B6B6B"/>
<path d="M15.3994 9.53369H9.16602V10.267H15.3994V9.53369Z" fill="#6B6B6B"/>
<path d="M8.17358 11.1074L7.50148 11.7795C7.44996 11.7503 7.39198 11.7345 7.33281 11.7333H5.49948C5.29699 11.7333 5.13281 11.8975 5.13281 12.1V13.9333C5.13281 14.1358 5.29699 14.3 5.49948 14.3H7.33281C7.5353 14.3 7.69948 14.1358 7.69948 13.9333V12.6185L8.69205 11.6259L8.17358 11.1074ZM6.96615 13.5667H5.86615V12.4667H6.81435L6.34025 12.9408L6.85871 13.4592L6.96615 13.3518V13.5667Z" fill="#6B6B6B"/>
<path d="M13.9327 11.7334H9.16602V12.4667H13.9327V11.7334Z" fill="#6B6B6B"/>
<path d="M12.466 13.1997H9.16602V13.933H12.466V13.1997Z" fill="#6B6B6B"/>
<path d="M8.17358 14.7744L7.50148 15.4465C7.44996 15.4173 7.39198 15.4015 7.33281 15.4003H5.49948C5.29699 15.4003 5.13281 15.5645 5.13281 15.767V17.6003C5.13281 17.8028 5.29699 17.967 5.49948 17.967H7.33281C7.5353 17.967 7.69948 17.8028 7.69948 17.6003V16.2854L8.69205 15.2929L8.17358 14.7744ZM6.96615 17.2336H5.86615V16.1336H6.81435L6.34025 16.6077L6.85871 17.1262L6.96615 17.0188V17.2336Z" fill="#6B6B6B"/>
<path d="M12.466 15.3999H9.16602V16.1332H12.466V15.3999Z" fill="#6B6B6B"/>
<path d="M15.3994 16.8667H9.16602V17.6H15.3994V16.8667Z" fill="#6B6B6B"/>
</svg>
