<svg width="15" height="19" viewBox="0 0 15 19" fill="none" xmlns="http://www.w3.org/2000/svg">
<path d="M6.66113 17.1562H8.33882C8.13288 17.3865 7.83346 17.5313 7.49997 17.5313C7.16648 17.5313 6.86707 17.3865 6.66113 17.1562Z" stroke="#6B6B6B" stroke-width="1.5"/>
<path d="M12.375 12.6563V12.9669L12.5947 13.1866L14.1268 14.7188H0.873174L2.40535 13.1866L2.62502 12.9669V12.6563V7.96879C2.62502 5.34786 3.99588 3.31254 6.26697 2.77349L6.84377 2.63659V2.04377V1.40625C6.84377 1.04232 7.1361 0.75 7.50002 0.75C7.86395 0.75 8.15627 1.04233 8.15627 1.40625V2.04372V2.63654L8.73307 2.77345C11.0042 3.3125 12.375 5.34782 12.375 7.96874V12.6563Z" stroke="#6B6B6B" stroke-width="1.5"/>
</svg>
