<svg width="22" height="22" viewBox="0 0 22 22" fill="none" xmlns="http://www.w3.org/2000/svg">
<path d="M11.3555 7.80637C11.3555 10.5458 9.12716 12.7741 6.38773 12.7741C3.6483 12.7741 1.41998 10.5458 1.41998 7.80637C1.41998 5.06693 3.6483 2.83862 6.38773 2.83862C9.12716 2.83862 11.3555 5.06693 11.3555 7.80637ZM8.51676 4.12457V5.67733H10.0695C9.69632 5.03401 9.16008 4.49777 8.51676 4.12457ZM9.55251 10.6451H7.80708V9.9354H10.0695C10.1998 9.71085 10.309 9.47383 10.3973 9.22572H7.80708V8.51604H10.5815C10.6207 8.28474 10.6458 8.04876 10.6458 7.80637H7.80708V7.09669H10.5815C10.5404 6.85222 10.4782 6.61554 10.3973 6.38701H7.80708V3.79676C7.57855 3.7155 7.34188 3.65364 7.0974 3.61258V12.0005C8.06611 11.8366 8.92271 11.3463 9.55251 10.6451ZM2.12966 7.80637C2.12966 10.1544 4.03969 12.0644 6.38773 12.0644V3.5483C4.03969 3.5483 2.12966 5.45833 2.12966 7.80637Z" fill="#6B6B6B"/>
<path d="M0 7.80645C0 5.30491 1.44881 3.14105 3.54839 2.09317V1.77419C3.54839 0.795961 4.34435 0 5.32258 0H17.3871C18.3653 0 19.1613 0.795961 19.1613 1.77419V15.6129H22V17.3871C22 18.3653 21.204 19.1613 20.2258 19.1613H8.16129V20.2258C8.16129 21.204 7.36533 22 6.3871 22C5.40886 22 4.6129 21.204 4.6129 20.2258V14.9032H5.32258V14.0974C2.3068 13.5882 0 10.9648 0 7.80645ZM0.709679 7.80645C0.709679 10.9368 3.25679 13.4839 6.3871 13.4839C9.51741 13.4839 12.0645 10.9368 12.0645 7.80645C12.0645 4.67614 9.51741 2.12903 6.3871 2.12903C3.25679 2.12903 0.709679 4.67614 0.709679 7.80645ZM12.4017 5.67742H17.0323V2.12903H9.29996C10.737 2.8692 11.8549 4.13782 12.4017 5.67742ZM4.25806 1.77419V1.79187C4.90571 1.56195 5.59859 1.42958 6.32282 1.42247C6.17676 1.00873 5.78571 0.709677 5.32258 0.709677C4.73575 0.709677 4.25806 1.18736 4.25806 1.77419ZM8.16129 14.9032V18.4516C8.74813 18.4516 9.22581 17.9739 9.22581 17.3871V15.6129H17.7419V16.3226H9.93548V17.3871C9.93548 17.788 9.7967 18.1543 9.57146 18.4516H20.2258C20.8126 18.4516 21.2903 17.9739 21.2903 17.3871V16.3226H18.4516V1.77419C18.4516 1.18736 17.9739 0.709677 17.3871 0.709677H6.73275C6.89666 0.926427 7.01378 1.17835 7.06455 1.45626C7.31716 1.48294 7.56337 1.52834 7.80645 1.58395V1.41935H17.7419V6.3871H12.6096C12.6624 6.61944 12.7054 6.85542 12.7323 7.09677H16.3226V7.80645H12.7742C12.7742 8.04659 12.7583 8.28257 12.7323 8.51613H17.7419V9.22581H12.6096C12.5542 9.4682 12.4836 9.70453 12.4013 9.93548H17.7419V10.6452H12.1004C11.2051 12.4396 9.49332 13.7528 7.45161 14.0974V14.9032H8.16129ZM5.32258 20.2258C5.32258 20.8126 5.80026 21.2903 6.3871 21.2903C6.97393 21.2903 7.45161 20.8126 7.45161 20.2258V15.6129H5.32258V20.2258ZM6.03226 14.9032H6.74194V14.1755C6.62377 14.1821 6.50699 14.1935 6.3871 14.1935C6.2672 14.1935 6.15042 14.1821 6.03226 14.1755V14.9032Z" fill="#6B6B6B"/>
<path d="M17.7422 7.09668H17.0325V7.80636H17.7422V7.09668Z" fill="#6B6B6B"/>
<path d="M17.7422 11.3547H12.4196V12.0644H17.7422V11.3547Z" fill="#6B6B6B"/>
<path d="M17.7422 12.7742H11.7099V13.4838H17.7422V12.7742Z" fill="#6B6B6B"/>
<path d="M10.291 14.1936H9.58134V14.9033H10.291V14.1936Z" fill="#6B6B6B"/>
<path d="M17.7422 14.1936H11.0003V14.9033H17.7422V14.1936Z" fill="#6B6B6B"/>
</svg>
