<svg width="15" height="15" viewBox="0 0 15 15" fill="none" xmlns="http://www.w3.org/2000/svg">
<path d="M8.33333 0H6.66667V8.33333H8.33333V0ZM12.3583 1.80833L11.175 2.99167C12.4917 4.05 13.3333 5.675 13.3333 7.5C13.3333 10.725 10.725 13.3333 7.5 13.3333C4.275 13.3333 1.66667 10.725 1.66667 7.5C1.66667 5.675 2.50833 4.05 3.81667 2.98333L2.64167 1.80833C1.025 3.18333 0 5.21667 0 7.5C0 11.6417 3.35833 15 7.5 15C11.6417 15 15 11.6417 15 7.5C15 5.21667 13.975 3.18333 12.3583 1.80833Z" fill="#6B6B6B"/>
</svg>
