<svg width="13" height="14" viewBox="0 0 13 14" fill="none" xmlns="http://www.w3.org/2000/svg">
<path d="M2.38337 11.6668H1.30003V11.2001C1.30003 11.0713 1.20303 10.9668 1.08337 10.9668C0.963704 10.9668 0.866699 11.0713 0.866699 11.2001V11.9001C0.866699 12.029 0.963704 12.1335 1.08337 12.1335H2.38337C2.50303 12.1335 2.60003 12.029 2.60003 11.9001C2.60003 11.7713 2.50303 11.6668 2.38337 11.6668Z" fill="black"/>
<path d="M0.433333 4.9V9.8C0.19401 9.8 0 10.0089 0 10.2667V11.9C0.000716326 12.544 0.485322 13.0659 1.08333 13.0667V13.3C1.08333 13.6866 1.37435 14 1.73333 14H3.03333C3.39232 14 3.68333 13.6866 3.68333 13.3V13.0667H9.31667V13.3C9.31667 13.6866 9.60768 14 9.96667 14H11.2667C11.6257 14 11.9167 13.6866 11.9167 13.3V13.0667C12.5147 13.0659 12.9993 12.544 13 11.9V10.2667C13 10.0089 12.806 9.8 12.5667 9.8V4.9C12.806 4.9 13 4.69107 13 4.43333V2.8C12.9994 2.24581 12.6374 1.7683 12.1333 1.65667V0.7C12.1333 0.313401 11.8423 0 11.4833 0H11.2667C10.9922 0.00122532 10.748 0.187985 10.6565 0.466667H2.34347C2.25198 0.187985 2.0078 0.00122532 1.73333 0H1.51667C1.15768 0 0.866667 0.313401 0.866667 0.7V1.65667C0.36261 1.7683 0.00064963 2.24581 0 2.8V4.43333C0 4.5571 0.0456546 4.6758 0.12692 4.76332C0.208186 4.85083 0.318406 4.9 0.433333 4.9ZM3.25 13.3C3.25 13.4289 3.153 13.5333 3.03333 13.5333H1.73333C1.61367 13.5333 1.51667 13.4289 1.51667 13.3V13.0667H3.25V13.3ZM11.4833 13.3C11.4833 13.4289 11.3863 13.5333 11.2667 13.5333H9.96667C9.847 13.5333 9.75 13.4289 9.75 13.3V13.0667H11.4833V13.3ZM12.5667 11.9C12.5667 12.2866 12.2757 12.6 11.9167 12.6H1.08333C0.724348 12.6 0.433333 12.2866 0.433333 11.9V10.2667H12.5667V11.9ZM1.95 8.63333V7.7H4.98333V8.63333C4.98262 9.27735 4.49801 9.79923 3.9 9.8H3.03333C2.43532 9.79923 1.95072 9.27735 1.95 8.63333ZM5.89983 7.93333C5.99693 7.93538 6.08153 8.00513 6.1087 8.10553C6.14956 8.23576 6.12912 8.37925 6.05388 8.4903C5.88304 8.68121 5.65234 8.79683 5.4067 8.81463C5.4132 8.75445 5.41652 8.69392 5.41667 8.63333V7.93333H5.89983ZM12.1333 9.8H4.9595C5.09616 9.65609 5.20641 9.48574 5.2845 9.29787C5.79128 9.2554 6.1945 9.0678 6.40142 8.76983C6.55692 8.54375 6.60355 8.2516 6.52708 7.98257C6.44868 7.67887 6.19253 7.46819 5.89983 7.46667H5.35643C5.27964 7.32276 5.13745 7.23383 4.98333 7.23333H1.95C1.71068 7.23333 1.51667 7.44227 1.51667 7.7V8.63333C1.51661 9.07273 1.68149 9.49349 1.97383 9.8H0.866667V4.9H1.73333V5.36667C1.73333 5.75327 2.02435 6.06667 2.38333 6.06667H4.55C4.90899 6.06667 5.2 5.75327 5.2 5.36667V4.9H7.8V5.36667C7.80114 5.66225 7.97456 5.92521 8.23333 6.02373V6.76667C8.23495 6.99295 8.33781 7.2045 8.50958 7.33483C8.35442 7.81763 8.50899 8.35298 8.89102 8.6559C9.27304 8.95881 9.79363 8.95881 10.1757 8.6559C10.5577 8.35298 10.7122 7.81763 10.5571 7.33483C10.7289 7.2045 10.8317 6.99295 10.8333 6.76667V6.02373C11.0921 5.92521 11.2655 5.66225 11.2667 5.36667V4.9H12.1333V9.8ZM2.16667 4.9H4.76667V5.36667C4.76667 5.49553 4.66966 5.6 4.55 5.6H2.38333C2.26367 5.6 2.16667 5.49553 2.16667 5.36667V4.9ZM5.41667 3.26667C5.41667 2.62233 5.90169 2.1 6.5 2.1C7.09831 2.1 7.58333 2.62233 7.58333 3.26667C7.58333 3.911 7.09831 4.43333 6.5 4.43333C5.90199 4.43256 5.41738 3.91068 5.41667 3.26667ZM10.3374 6.92557C10.1343 6.67629 9.84128 6.53337 9.53333 6.53337C9.22539 6.53337 8.93238 6.67629 8.72928 6.92557C8.68999 6.8834 8.66753 6.82639 8.66667 6.76667V6.06667H10.4V6.76667C10.3991 6.82639 10.3767 6.8834 10.3374 6.92557ZM9.53333 7C9.89232 7 10.1833 7.3134 10.1833 7.7C10.1833 8.0866 9.89232 8.4 9.53333 8.4C9.17435 8.4 8.88333 8.0866 8.88333 7.7C8.88333 7.3134 9.17435 7 9.53333 7ZM10.6167 5.6H8.45C8.33034 5.6 8.23333 5.49553 8.23333 5.36667V4.9H10.8333V5.36667C10.8333 5.49553 10.7363 5.6 10.6167 5.6ZM12.5667 2.8V4.43333H7.5595C7.85181 4.12679 8.01668 3.70605 8.01668 3.26667C8.01668 2.82728 7.85181 2.40654 7.5595 2.1H11.9167C12.2757 2.1 12.5667 2.4134 12.5667 2.8ZM11.2667 0.466667H11.4833C11.603 0.466667 11.7 0.571134 11.7 0.7V1.63333H11.05V0.7C11.05 0.571134 11.147 0.466667 11.2667 0.466667ZM10.6167 0.933333V1.63333H2.38333V0.933333H10.6167ZM1.3 0.7C1.3 0.571134 1.397 0.466667 1.51667 0.466667H1.73333C1.853 0.466667 1.95 0.571134 1.95 0.7V1.63333H1.3V0.7ZM0.433333 2.8C0.433333 2.4134 0.724348 2.1 1.08333 2.1H5.4405C5.14819 2.40654 4.98332 2.82728 4.98332 3.26667C4.98332 3.70605 5.14819 4.12679 5.4405 4.43333H0.433333V2.8Z" fill="black"/>
<path d="M1.7335 3.96689C2.09248 3.96689 2.3835 3.65349 2.3835 3.26689C2.3835 2.88029 2.09248 2.56689 1.7335 2.56689C1.37451 2.56689 1.0835 2.88029 1.0835 3.26689C1.0835 3.65349 1.37451 3.96689 1.7335 3.96689ZM1.7335 3.03356C1.85316 3.03356 1.95016 3.13803 1.95016 3.26689C1.95016 3.39576 1.85316 3.50023 1.7335 3.50023C1.61383 3.50023 1.51683 3.39576 1.51683 3.26689C1.51683 3.13803 1.61383 3.03356 1.7335 3.03356Z" fill="black"/>
<path d="M3.6832 3.96689C4.04219 3.96689 4.3332 3.65349 4.3332 3.26689C4.3332 2.88029 4.04219 2.56689 3.6832 2.56689C3.32422 2.56689 3.0332 2.88029 3.0332 3.26689C3.0332 3.65349 3.32422 3.96689 3.6832 3.96689ZM3.6832 3.03356C3.80286 3.03356 3.89987 3.13803 3.89987 3.26689C3.89987 3.39576 3.80286 3.50023 3.6832 3.50023C3.56354 3.50023 3.46654 3.39576 3.46654 3.26689C3.46654 3.13803 3.56354 3.03356 3.6832 3.03356Z" fill="black"/>
<path d="M9.3165 2.56689C8.95752 2.56689 8.6665 2.88029 8.6665 3.26689C8.6665 3.65349 8.95752 3.96689 9.3165 3.96689C9.67549 3.96689 9.9665 3.65349 9.9665 3.26689C9.9665 2.88029 9.67549 2.56689 9.3165 2.56689ZM9.3165 3.50023C9.19684 3.50023 9.09984 3.39576 9.09984 3.26689C9.09984 3.13803 9.19684 3.03356 9.3165 3.03356C9.43616 3.03356 9.53317 3.13803 9.53317 3.26689C9.53317 3.39576 9.43616 3.50023 9.3165 3.50023Z" fill="black"/>
<path d="M11.2667 2.56689C10.9077 2.56689 10.6167 2.88029 10.6167 3.26689C10.6167 3.65349 10.9077 3.96689 11.2667 3.96689C11.6257 3.96689 11.9167 3.65349 11.9167 3.26689C11.9167 2.88029 11.6257 2.56689 11.2667 2.56689ZM11.2667 3.50023C11.147 3.50023 11.05 3.39576 11.05 3.26689C11.05 3.13803 11.147 3.03356 11.2667 3.03356C11.3864 3.03356 11.4834 3.13803 11.4834 3.26689C11.4834 3.39576 11.3864 3.50023 11.2667 3.50023Z" fill="black"/>
<path d="M6.49987 2.56689C6.38021 2.56689 6.2832 2.67136 6.2832 2.80023V3.2669C6.2832 3.39576 6.38021 3.50023 6.49987 3.50023C6.61953 3.50023 6.71653 3.39576 6.71653 3.2669V2.80023C6.71653 2.67136 6.61953 2.56689 6.49987 2.56689Z" fill="black"/>
</svg>
