<svg width="21" height="20" viewBox="0 0 21 20" fill="none" xmlns="http://www.w3.org/2000/svg">
<path d="M19.3594 3.75H1.64062C1.29263 3.75031 0.958978 3.88211 0.712907 4.11646C0.466836 4.35081 0.328451 4.66857 0.328125 5V11.875C0.328451 12.2064 0.466836 12.5242 0.712907 12.7585C0.958978 12.9929 1.29263 13.1247 1.64062 13.125H19.3594C19.7074 13.1247 20.041 12.9929 20.2871 12.7585C20.5332 12.5242 20.6715 12.2064 20.6719 11.875V5C20.6715 4.66857 20.5332 4.35081 20.2871 4.11646C20.041 3.88211 19.7074 3.75031 19.3594 3.75ZM20.0156 11.875C20.0154 12.0407 19.9462 12.1995 19.8232 12.3167C19.7001 12.4339 19.5334 12.4998 19.3594 12.5H1.64062C1.46665 12.4998 1.29986 12.4339 1.17684 12.3167C1.05382 12.1995 0.984603 12.0407 0.984375 11.875V5C0.984603 4.83431 1.05382 4.67546 1.17684 4.5583C1.29986 4.44113 1.46665 4.37522 1.64062 4.375H19.3594C19.5334 4.37522 19.7001 4.44113 19.8232 4.5583C19.9462 4.67546 20.0154 4.83431 20.0156 5V11.875Z" fill="black"/>
<path d="M18.0469 10H2.95312C2.8661 10 2.78264 10.0329 2.72111 10.0915C2.65957 10.1501 2.625 10.2296 2.625 10.3125V11.5625C2.625 11.6454 2.65957 11.7249 2.72111 11.7835C2.78264 11.8421 2.8661 11.875 2.95312 11.875H18.0469C18.1339 11.875 18.2174 11.8421 18.2789 11.7835C18.3404 11.7249 18.375 11.6454 18.375 11.5625V10.3125C18.375 10.2296 18.3404 10.1501 18.2789 10.0915C18.2174 10.0329 18.1339 10 18.0469 10ZM8.20312 10.625H10.1719V11.25H8.20312V10.625ZM7.54688 11.25H5.57812V10.625H7.54688V11.25ZM10.8281 10.625H12.7969V11.25H10.8281V10.625ZM13.4531 10.625H15.4219V11.25H13.4531V10.625ZM3.28125 10.625H4.92188V11.25H3.28125V10.625ZM17.7188 11.25H16.0781V10.625H17.7188V11.25Z" fill="black"/>
<path d="M6.89062 6.5625V5.3125C6.89062 5.22962 6.85606 5.15013 6.79452 5.09153C6.73298 5.03292 6.64952 5 6.5625 5H1.96875C1.88173 5 1.79827 5.03292 1.73673 5.09153C1.6752 5.15013 1.64062 5.22962 1.64062 5.3125V6.5625C1.64062 6.64538 1.6752 6.72487 1.73673 6.78347C1.79827 6.84208 1.88173 6.875 1.96875 6.875H6.5625C6.64952 6.875 6.73298 6.84208 6.79452 6.78347C6.85606 6.72487 6.89062 6.64538 6.89062 6.5625ZM6.23438 6.25H2.29688V5.625H6.23438V6.25Z" fill="black"/>
<path d="M19.0312 5H17.0625C16.9755 5 16.892 5.03292 16.8305 5.09153C16.7689 5.15013 16.7344 5.22962 16.7344 5.3125C16.7344 5.39538 16.7689 5.47487 16.8305 5.53347C16.892 5.59208 16.9755 5.625 17.0625 5.625H19.0312C19.1183 5.625 19.2017 5.59208 19.2633 5.53347C19.3248 5.47487 19.3594 5.39538 19.3594 5.3125C19.3594 5.22962 19.3248 5.15013 19.2633 5.09153C19.2017 5.03292 19.1183 5 19.0312 5Z" fill="black"/>
<path d="M19.0312 5.9375H18.0469C17.9599 5.9375 17.8764 5.97042 17.8149 6.02903C17.7533 6.08763 17.7188 6.16712 17.7188 6.25C17.7188 6.33288 17.7533 6.41237 17.8149 6.47097C17.8764 6.52958 17.9599 6.5625 18.0469 6.5625H19.0312C19.1183 6.5625 19.2017 6.52958 19.2633 6.47097C19.3248 6.41237 19.3594 6.33288 19.3594 6.25C19.3594 6.16712 19.3248 6.08763 19.2633 6.02903C19.2017 5.97042 19.1183 5.9375 19.0312 5.9375Z" fill="black"/>
<path d="M10.9922 14.0625C10.9922 13.9796 10.9576 13.9001 10.8961 13.8415C10.8345 13.7829 10.7511 13.75 10.6641 13.75C10.577 13.75 10.4936 13.7829 10.432 13.8415C10.3705 13.9001 10.3359 13.9796 10.3359 14.0625C10.3359 14.0863 10.3359 14.0893 10.268 14.1541C10.1707 14.2467 10.0078 14.4018 10.0078 14.6875C10.0078 14.9732 10.1707 15.1283 10.268 15.221C10.3359 15.2857 10.3359 15.2888 10.3359 15.3125C10.3359 15.3362 10.3359 15.3393 10.268 15.404C10.1707 15.4967 10.0078 15.6518 10.0078 15.9375C10.0078 16.0204 10.0424 16.0999 10.1039 16.1585C10.1655 16.2171 10.2489 16.25 10.3359 16.25C10.423 16.25 10.5064 16.2171 10.568 16.1585C10.6295 16.0999 10.6641 16.0204 10.6641 15.9375C10.6641 15.9138 10.6641 15.9107 10.732 15.846C10.8293 15.7534 10.9922 15.5982 10.9922 15.3125C10.9922 15.0268 10.8293 14.8717 10.732 14.779C10.6641 14.7144 10.6641 14.7113 10.6641 14.6875C10.6641 14.6637 10.6641 14.6607 10.732 14.5959C10.8293 14.5033 10.9922 14.3482 10.9922 14.0625Z" fill="black"/>
<path d="M8.53125 14.0625C8.53125 13.9796 8.49668 13.9001 8.43514 13.8415C8.37361 13.7829 8.29015 13.75 8.20312 13.75C8.1161 13.75 8.03264 13.7829 7.97111 13.8415C7.90957 13.9001 7.875 13.9796 7.875 14.0625C7.875 14.0863 7.875 14.0893 7.80704 14.1541C7.70975 14.2467 7.54688 14.4018 7.54688 14.6875C7.54688 14.9732 7.70975 15.1283 7.80704 15.221C7.875 15.2857 7.875 15.2888 7.875 15.3125C7.875 15.3362 7.875 15.3393 7.80704 15.404C7.70975 15.4967 7.54688 15.6518 7.54688 15.9375C7.54688 16.0204 7.58144 16.0999 7.64298 16.1585C7.70452 16.2171 7.78798 16.25 7.875 16.25C7.96202 16.25 8.04548 16.2171 8.10702 16.1585C8.16856 16.0999 8.20312 16.0204 8.20312 15.9375C8.20312 15.9138 8.20312 15.9107 8.27109 15.846C8.36838 15.7534 8.53125 15.5982 8.53125 15.3125C8.53125 15.0268 8.36838 14.8717 8.27109 14.779C8.20312 14.7144 8.20312 14.7113 8.20312 14.6875C8.20312 14.6637 8.20312 14.6607 8.27109 14.5959C8.36838 14.5033 8.53125 14.3482 8.53125 14.0625Z" fill="black"/>
<path d="M5.90625 14.0625C5.90625 13.9796 5.87168 13.9001 5.81014 13.8415C5.74861 13.7829 5.66515 13.75 5.57812 13.75C5.4911 13.75 5.40764 13.7829 5.34611 13.8415C5.28457 13.9001 5.25 13.9796 5.25 14.0625C5.25 14.0863 5.25 14.0893 5.18204 14.1541C5.08475 14.2467 4.92188 14.4018 4.92188 14.6875C4.92188 14.9732 5.08475 15.1283 5.18204 15.221C5.25 15.2857 5.25 15.2888 5.25 15.3125C5.25 15.3362 5.25 15.3393 5.18204 15.404C5.08475 15.4967 4.92188 15.6518 4.92188 15.9375C4.92188 16.0204 4.95645 16.0999 5.01798 16.1585C5.07952 16.2171 5.16298 16.25 5.25 16.25C5.33702 16.25 5.42048 16.2171 5.48202 16.1585C5.54356 16.0999 5.57812 16.0204 5.57812 15.9375C5.57812 15.9138 5.57812 15.9107 5.64609 15.846C5.74338 15.7534 5.90625 15.5982 5.90625 15.3125C5.90625 15.0268 5.74338 14.8717 5.64609 14.779C5.57812 14.7144 5.57812 14.7113 5.57812 14.6875C5.57812 14.6637 5.57812 14.6607 5.64609 14.5959C5.74338 14.5033 5.90625 14.3482 5.90625 14.0625Z" fill="black"/>
<path d="M16.4062 14.0625C16.4062 13.9796 16.3717 13.9001 16.3101 13.8415C16.2486 13.7829 16.1651 13.75 16.0781 13.75C15.9911 13.75 15.9076 13.7829 15.8461 13.8415C15.7846 13.9001 15.75 13.9796 15.75 14.0625C15.75 14.0863 15.75 14.0893 15.682 14.1541C15.5847 14.2467 15.4219 14.4018 15.4219 14.6875C15.4219 14.9732 15.5847 15.1283 15.682 15.221C15.75 15.2857 15.75 15.2888 15.75 15.3125C15.75 15.3362 15.75 15.3393 15.682 15.404C15.5847 15.4967 15.4219 15.6518 15.4219 15.9375C15.4219 16.0204 15.4564 16.0999 15.518 16.1585C15.5795 16.2171 15.663 16.25 15.75 16.25C15.837 16.25 15.9205 16.2171 15.982 16.1585C16.0436 16.0999 16.0781 16.0204 16.0781 15.9375C16.0781 15.9138 16.0781 15.9107 16.1461 15.846C16.2434 15.7534 16.4062 15.5982 16.4062 15.3125C16.4062 15.0268 16.2434 14.8717 16.1461 14.779C16.0781 14.7144 16.0781 14.7113 16.0781 14.6875C16.0781 14.6637 16.0781 14.6607 16.1461 14.5959C16.2434 14.5033 16.4062 14.3482 16.4062 14.0625Z" fill="black"/>
<path d="M13.7812 14.0625C13.7812 13.9796 13.7467 13.9001 13.6851 13.8415C13.6236 13.7829 13.5401 13.75 13.4531 13.75C13.3661 13.75 13.2826 13.7829 13.2211 13.8415C13.1596 13.9001 13.125 13.9796 13.125 14.0625C13.125 14.0863 13.125 14.0893 13.057 14.1541C12.9597 14.2467 12.7969 14.4018 12.7969 14.6875C12.7969 14.9732 12.9597 15.1283 13.057 15.221C13.125 15.2857 13.125 15.2888 13.125 15.3125C13.125 15.3362 13.125 15.3393 13.057 15.404C12.9597 15.4967 12.7969 15.6518 12.7969 15.9375C12.7969 16.0204 12.8314 16.0999 12.893 16.1585C12.9545 16.2171 13.038 16.25 13.125 16.25C13.212 16.25 13.2955 16.2171 13.357 16.1585C13.4186 16.0999 13.4531 16.0204 13.4531 15.9375C13.4531 15.9138 13.4531 15.9107 13.5211 15.846C13.6184 15.7534 13.7812 15.5982 13.7812 15.3125C13.7812 15.0268 13.6184 14.8717 13.5211 14.779C13.4531 14.7144 13.4531 14.7113 13.4531 14.6875C13.4531 14.6637 13.4531 14.6607 13.5211 14.5959C13.6184 14.5033 13.7812 14.3482 13.7812 14.0625Z" fill="black"/>
</svg>
