<svg width="22" height="22" viewBox="0 0 22 22" fill="none" xmlns="http://www.w3.org/2000/svg">
<path d="M21.3125 20.625H20.9688C20.8776 20.625 20.7901 20.6612 20.7257 20.7257C20.6612 20.7901 20.625 20.8776 20.625 20.9688C20.625 21.0599 20.6612 21.1474 20.7257 21.2118C20.7901 21.2763 20.8776 21.3125 20.9688 21.3125H21.3125C21.4037 21.3125 21.4911 21.2763 21.5556 21.2118C21.62 21.1474 21.6562 21.0599 21.6562 20.9688C21.6562 20.8776 21.62 20.7901 21.5556 20.7257C21.4911 20.6612 21.4037 20.625 21.3125 20.625Z" fill="black"/>
<path d="M15.125 15.125C15.0338 15.125 14.9464 15.1612 14.8819 15.2257C14.8175 15.2901 14.7812 15.3776 14.7812 15.4688V19.9805C14.7812 20.0716 14.8175 20.1591 14.8819 20.2235C14.9464 20.288 15.0338 20.3242 15.125 20.3242C15.2162 20.3242 15.3036 20.288 15.3681 20.2235C15.4325 20.1591 15.4688 20.0716 15.4688 19.9805V15.4688C15.4688 15.3776 15.4325 15.2901 15.3681 15.2257C15.3036 15.1612 15.2162 15.125 15.125 15.125Z" fill="black"/>
<path d="M20.5245 19.3505C20.4599 19.2862 20.3724 19.25 20.2813 19.25C20.1901 19.25 20.1026 19.2862 20.038 19.3505L19.2105 20.1786L15.4266 13.2417C15.3971 13.1875 15.3535 13.1422 15.3004 13.1107C15.2473 13.0791 15.1867 13.0625 15.125 13.0625H6.1875C6.12576 13.0625 6.06515 13.0791 6.01207 13.1107C5.95898 13.1422 5.91538 13.1875 5.88586 13.2417L2.10203 20.1786L1.27445 19.3505C1.24252 19.3186 1.2046 19.2933 1.16287 19.276C1.12114 19.2587 1.07642 19.2498 1.03125 19.2498C0.986083 19.2498 0.941358 19.2587 0.899629 19.276C0.857901 19.2933 0.819985 19.3186 0.788047 19.3505C0.756109 19.3825 0.730774 19.4204 0.71349 19.4621C0.696205 19.5039 0.687309 19.5486 0.687309 19.5938C0.687309 19.6389 0.696205 19.6836 0.71349 19.7254C0.730774 19.7671 0.756109 19.805 0.788047 19.837L1.57652 20.625H0.6875C0.596332 20.625 0.508898 20.6612 0.444432 20.7257C0.379966 20.7901 0.34375 20.8776 0.34375 20.9688C0.34375 21.0599 0.379966 21.1474 0.444432 21.2118C0.508898 21.2763 0.596332 21.3125 0.6875 21.3125H19.9375C20.0287 21.3125 20.1161 21.2763 20.1806 21.2118C20.245 21.1474 20.2813 21.0599 20.2813 20.9688C20.2813 20.8776 20.245 20.7901 20.1806 20.7257C20.1161 20.6612 20.0287 20.625 19.9375 20.625H19.736L20.5245 19.837C20.5888 19.7724 20.625 19.6849 20.625 19.5938C20.625 19.5026 20.5888 19.4151 20.5245 19.3505ZM2.64172 20.625L6.3916 13.75H14.5458L10.7959 20.625H2.64172ZM11.5792 20.625L15.125 14.1243L18.6708 20.625H11.5792Z" fill="black"/>
<path d="M2.29115 12.2221H5.93181C6.28914 12.2224 6.63304 12.0835 6.89309 11.834C7.15315 11.5844 7.30969 11.2431 7.33065 10.8798C7.35161 10.5166 7.23541 10.1589 7.00584 9.88008C6.77628 9.60124 6.45071 9.42232 6.09582 9.37995C5.97026 9.01303 5.74895 8.68784 5.45564 8.4393C5.16234 8.19076 4.80811 8.02824 4.43097 7.96919C4.05382 7.91014 3.66801 7.95678 3.31493 8.10412C2.96185 8.25145 2.65484 8.49391 2.42683 8.80548C2.38163 8.80175 2.3364 8.79989 2.29115 8.79989C1.8455 8.79989 1.41811 8.98016 1.10299 9.30106C0.787872 9.62196 0.61084 10.0572 0.61084 10.511C0.61084 10.9648 0.787872 11.4 1.10299 11.7209C1.41811 12.0418 1.8455 12.2221 2.29115 12.2221ZM2.29115 9.37026C2.36366 9.37027 2.43601 9.37744 2.50717 9.39165C2.56312 9.40277 2.62108 9.39625 2.6733 9.37297C2.72552 9.3497 2.76954 9.31076 2.79948 9.26135C2.95923 8.99698 3.19242 8.78682 3.46952 8.65747C3.74661 8.52811 4.05517 8.48538 4.35613 8.53467C4.65708 8.58397 4.93691 8.72308 5.1602 8.9344C5.38349 9.14571 5.5402 9.41974 5.61049 9.72178C5.62566 9.78636 5.66238 9.84357 5.71438 9.88362C5.76639 9.92368 5.83043 9.94409 5.89558 9.94138C5.90755 9.94084 5.91977 9.94059 5.93174 9.94059C6.15457 9.94059 6.36826 10.0307 6.52582 10.1912C6.68338 10.3516 6.7719 10.5692 6.7719 10.7961C6.7719 11.0231 6.68338 11.2407 6.52582 11.4011C6.36826 11.5616 6.15457 11.6517 5.93174 11.6517H2.29115C1.99405 11.6517 1.70912 11.5315 1.49904 11.3176C1.28896 11.1037 1.17094 10.8135 1.17094 10.511C1.17094 10.2084 1.28896 9.91827 1.49904 9.70434C1.70912 9.49041 1.99405 9.37022 2.29115 9.37022V9.37026Z" fill="black"/>
<path d="M17.4932 11.6108C17.9011 11.6108 18.2998 11.4899 18.639 11.2632C18.9782 11.0366 19.2426 10.7145 19.3987 10.3376C19.5548 9.96075 19.5956 9.54605 19.516 9.14597C19.4364 8.74588 19.24 8.37838 18.9516 8.08993C18.6631 7.80149 18.2956 7.60505 17.8955 7.52547C17.4955 7.44589 17.0808 7.48673 16.7039 7.64284C16.327 7.79894 16.0049 8.0633 15.7783 8.40248C15.5516 8.74165 15.4307 9.14042 15.4307 9.54834C15.4313 10.0952 15.6488 10.6194 16.0354 11.0061C16.4221 11.3927 16.9463 11.6102 17.4932 11.6108ZM17.4932 8.17334C17.7651 8.17334 18.031 8.25398 18.2571 8.40507C18.4832 8.55616 18.6594 8.7709 18.7635 9.02215C18.8676 9.2734 18.8948 9.54986 18.8417 9.81659C18.7887 10.0833 18.6577 10.3283 18.4654 10.5206C18.2731 10.7129 18.0281 10.8439 17.7614 10.8969C17.4947 10.95 17.2182 10.9227 16.967 10.8187C16.7157 10.7146 16.501 10.5384 16.3499 10.3122C16.1988 10.0861 16.1182 9.82029 16.1182 9.54834C16.1186 9.18379 16.2636 8.83429 16.5213 8.57652C16.7791 8.31875 17.1286 8.17375 17.4932 8.17334Z" fill="black"/>
<path d="M17.4932 7.14209C17.5843 7.14209 17.6718 7.10587 17.7362 7.04141C17.8007 6.97694 17.8369 6.88951 17.8369 6.79834V6.45459C17.8369 6.36342 17.8007 6.27599 17.7362 6.21152C17.6718 6.14706 17.5843 6.11084 17.4932 6.11084C17.402 6.11084 17.3146 6.14706 17.2501 6.21152C17.1856 6.27599 17.1494 6.36342 17.1494 6.45459V6.79834C17.1494 6.88951 17.1856 6.97694 17.2501 7.04141C17.3146 7.10587 17.402 7.14209 17.4932 7.14209Z" fill="black"/>
<path d="M17.1494 12.2983V12.6421C17.1494 12.7333 17.1856 12.8207 17.2501 12.8852C17.3146 12.9496 17.402 12.9858 17.4932 12.9858C17.5843 12.9858 17.6718 12.9496 17.7362 12.8852C17.8007 12.8207 17.8369 12.7333 17.8369 12.6421V12.2983C17.8369 12.2072 17.8007 12.1197 17.7362 12.0553C17.6718 11.9908 17.5843 11.9546 17.4932 11.9546C17.402 11.9546 17.3146 11.9908 17.2501 12.0553C17.1856 12.1197 17.1494 12.2072 17.1494 12.2983Z" fill="black"/>
<path d="M19.8994 9.54834C19.8994 9.63951 19.9356 9.72694 20.0001 9.79141C20.0646 9.85587 20.152 9.89209 20.2432 9.89209H20.5869C20.6781 9.89209 20.7655 9.85587 20.83 9.79141C20.8944 9.72694 20.9307 9.63951 20.9307 9.54834C20.9307 9.45717 20.8944 9.36974 20.83 9.30527C20.7655 9.24081 20.6781 9.20459 20.5869 9.20459H20.2432C20.152 9.20459 20.0646 9.24081 20.0001 9.30527C19.9356 9.36974 19.8994 9.45717 19.8994 9.54834Z" fill="black"/>
<path d="M14.3994 9.89209H14.7432C14.8343 9.89209 14.9218 9.85587 14.9862 9.79141C15.0507 9.72694 15.0869 9.63951 15.0869 9.54834C15.0869 9.45717 15.0507 9.36974 14.9862 9.30527C14.9218 9.24081 14.8343 9.20459 14.7432 9.20459H14.3994C14.3082 9.20459 14.2208 9.24081 14.1563 9.30527C14.0919 9.36974 14.0557 9.45717 14.0557 9.54834C14.0557 9.63951 14.0919 9.72694 14.1563 9.79141C14.2208 9.85587 14.3082 9.89209 14.3994 9.89209Z" fill="black"/>
<path d="M19.4379 7.94767C19.4831 7.94774 19.5278 7.93887 19.5695 7.9216C19.6112 7.90432 19.6491 7.87897 19.681 7.847L19.9241 7.60392C19.9885 7.53946 20.0247 7.45202 20.0247 7.36085C20.0247 7.26968 19.9885 7.18224 19.9241 7.11777C19.8596 7.05331 19.7722 7.01709 19.681 7.01709C19.5898 7.01709 19.5024 7.05331 19.4379 7.11777L19.1949 7.36085C19.1469 7.40892 19.1141 7.47017 19.1008 7.53686C19.0876 7.60354 19.0944 7.67266 19.1204 7.73547C19.1464 7.79829 19.1905 7.85197 19.247 7.88975C19.3035 7.92752 19.37 7.94768 19.438 7.94767H19.4379Z" fill="black"/>
<path d="M15.3057 11.2501L15.0626 11.4932C15.0307 11.5251 15.0054 11.563 14.9881 11.6047C14.9708 11.6464 14.9619 11.6911 14.9619 11.7362C14.9619 11.7814 14.9708 11.8261 14.9881 11.8678C15.0054 11.9095 15.0307 11.9474 15.0626 11.9793C15.0945 12.0112 15.1324 12.0366 15.1741 12.0538C15.2158 12.0711 15.2605 12.08 15.3057 12.08C15.3508 12.08 15.3955 12.0711 15.4372 12.0538C15.4789 12.0366 15.5168 12.0112 15.5487 11.9793L15.7918 11.7362C15.8237 11.7043 15.8491 11.6664 15.8663 11.6247C15.8836 11.583 15.8925 11.5383 15.8925 11.4932C15.8925 11.448 15.8836 11.4033 15.8663 11.3616C15.8491 11.3199 15.8237 11.282 15.7918 11.2501C15.7599 11.2182 15.722 11.1929 15.6803 11.1756C15.6386 11.1583 15.5939 11.1494 15.5487 11.1494C15.5036 11.1494 15.4589 11.1583 15.4172 11.1756C15.3755 11.1929 15.3376 11.2182 15.3057 11.2501Z" fill="black"/>
<path d="M19.6808 11.25C19.6491 11.2171 19.6112 11.1909 19.5693 11.1729C19.5273 11.1549 19.4822 11.1454 19.4366 11.145C19.3909 11.1446 19.3457 11.1533 19.3034 11.1706C19.2612 11.1879 19.2228 11.2134 19.1905 11.2457C19.1583 11.278 19.1327 11.3164 19.1154 11.3586C19.0982 11.4008 19.0895 11.4461 19.0899 11.4918C19.0903 11.5374 19.0997 11.5825 19.1178 11.6244C19.1358 11.6664 19.162 11.7043 19.1948 11.736L19.4379 11.9791C19.5023 12.0436 19.5898 12.0798 19.6809 12.0798C19.7721 12.0798 19.8595 12.0436 19.924 11.9791C19.9885 11.9146 20.0247 11.8272 20.0247 11.736C20.0247 11.6449 19.9885 11.5574 19.924 11.493L19.6808 11.25Z" fill="black"/>
<path d="M15.3058 7.84691C15.3375 7.87974 15.3754 7.90593 15.4173 7.92395C15.4593 7.94196 15.5044 7.95144 15.55 7.95184C15.5957 7.95224 15.6409 7.94354 15.6832 7.92626C15.7254 7.90897 15.7638 7.88345 15.7961 7.85117C15.8284 7.8189 15.8539 7.78052 15.8712 7.73827C15.8885 7.69602 15.8972 7.65076 15.8968 7.60512C15.8964 7.55947 15.8869 7.51437 15.8689 7.47243C15.8508 7.43049 15.8247 7.39256 15.7918 7.36085L15.5487 7.11777C15.4843 7.05331 15.3968 7.01709 15.3057 7.01709C15.2145 7.01709 15.1271 7.05331 15.0626 7.11777C14.9981 7.18224 14.9619 7.26968 14.9619 7.36085C14.9619 7.45202 14.9981 7.53946 15.0626 7.60392L15.3058 7.84691Z" fill="black"/>
</svg>
