<svg width="18" height="17" viewBox="0 0 18 17" fill="none" xmlns="http://www.w3.org/2000/svg">
<path d="M5.77849 10.0993C6.21657 10.0993 6.57321 9.76286 6.57321 9.34924C6.57321 8.93615 6.21657 8.6001 5.77849 8.6001C5.34096 8.6001 4.98486 8.93602 4.98486 9.34924C4.98486 9.76286 5.34096 10.0993 5.77849 10.0993ZM5.77849 9.10191C5.92364 9.10191 6.04175 9.2128 6.04175 9.34924C6.04175 9.48608 5.92364 9.59749 5.77849 9.59749C5.63388 9.59749 5.51619 9.48608 5.51619 9.34924C5.51619 9.2128 5.63388 9.10191 5.77849 9.10191Z" fill="black"/>
<path d="M8.19414 10.0919C8.63181 10.0919 8.98776 9.75599 8.98776 9.3429C8.98776 8.9298 8.63181 8.59375 8.19414 8.59375C7.75592 8.59375 7.39941 8.9298 7.39941 9.3429C7.39941 9.75599 7.75592 10.0919 8.19414 10.0919ZM8.19414 9.09556C8.33875 9.09556 8.45644 9.20645 8.45644 9.34277C8.45644 9.47921 8.33875 9.5901 8.19414 9.5901C8.04898 9.5901 7.93088 9.47921 7.93088 9.34277C7.93088 9.20645 8.04898 9.09556 8.19414 9.09556Z" fill="black"/>
<path d="M16.8917 3.46518H11.2934C10.6821 3.46518 10.185 3.93431 10.185 4.51108V6.99521H9.39013V1.84096C9.39013 1.52164 9.11479 1.26172 8.77641 1.26172H2.85946C2.52095 1.26172 2.24574 1.52164 2.24574 1.84096V4.35803C2.24574 4.49655 2.36467 4.60887 2.51133 4.60887C2.65814 4.60887 2.77706 4.49655 2.77706 4.35803V1.84096C2.77706 1.79893 2.81483 1.76353 2.85946 1.76353H4.44616V2.4329C4.44616 2.70994 4.68484 2.93523 4.97831 2.93523H6.60744C6.90077 2.93523 7.13959 2.70994 7.13959 2.4329V1.76353H8.77641C8.82104 1.76353 8.85881 1.79893 8.85881 1.84096V6.99521H2.7772L2.77802 5.49187C2.77802 5.35322 2.6591 5.2409 2.51243 5.24077H2.51229C2.36563 5.24077 2.2467 5.35309 2.24656 5.49161L2.24574 7.00468C0.970228 7.10779 0 8.10713 0 9.36508C0 10.5813 0.994673 11.5818 2.25645 11.6816V14.8035C2.25645 15.3189 2.68052 15.7383 3.20155 15.7383C3.72271 15.7383 4.14664 15.3189 4.14664 14.8035V13.084H11.0276V14.8035C11.0276 15.3189 11.4512 15.7383 11.9718 15.7383C12.4929 15.7383 12.9169 15.3189 12.9169 14.8035V13.084H15.2682V14.8035C15.2682 15.3189 15.6917 15.7383 16.2124 15.7383C16.7335 15.7383 17.1575 15.3189 17.1575 14.8035V12.0959C17.6406 11.9832 18 11.5709 18 11.0805V4.51108C18 3.93431 17.5028 3.46518 16.8917 3.46518ZM6.60744 2.43342L4.97735 2.4329V1.76353H6.60799L6.60744 2.43342ZM3.61532 14.8036C3.61532 15.0423 3.42965 15.2364 3.20155 15.2364C2.97344 15.2364 2.78778 15.0423 2.78778 14.8036V11.6905H3.61518V14.8036H3.61532ZM2.46423 11.1887C1.39842 11.1887 0.531325 10.3706 0.531325 9.36508C0.531325 8.31763 1.38029 7.49702 2.46423 7.49702H2.51119H2.51133H10.185V7.85434H2.48771C2.43113 7.85434 2.37908 7.85694 2.32882 7.86225C1.52009 7.93917 0.91049 8.57547 0.91049 9.3429C0.91049 10.1636 1.61801 10.8315 2.48771 10.8315H10.185V11.0806C10.185 11.1171 10.1871 11.1531 10.1909 11.1887H2.46423ZM10.185 8.35615V10.3295H2.48771C1.91107 10.3295 1.44182 9.88699 1.44182 9.3429C1.44182 8.84226 1.85545 8.41114 2.38334 8.36134C2.38458 8.36134 2.38568 8.36121 2.38691 8.36108C2.41767 8.35771 2.45063 8.35615 2.48771 8.35615H10.185ZM11.0276 12.5821H4.14664V11.6905H10.3937C10.5453 11.889 10.7686 12.0356 11.0276 12.0959V12.5821ZM12.3854 14.8036C12.3854 15.0423 12.1999 15.2364 11.9718 15.2364C11.7441 15.2364 11.559 15.0423 11.559 14.8036V12.1265H12.3854V14.8036ZM15.2682 12.5821H12.9167V12.1265H15.2682V12.5821ZM16.626 14.8036C16.626 15.0423 16.4405 15.2364 16.2122 15.2364C15.9847 15.2364 15.7995 15.0423 15.7995 14.8036V12.1265H16.626V14.8036ZM17.4686 11.0806C17.4686 11.3806 17.2099 11.6248 16.8917 11.6248H11.2934C10.9752 11.6248 10.7163 11.3806 10.7163 11.0806V4.51108C10.7163 4.21108 10.9752 3.96686 11.2934 3.96686H16.8917C17.2098 3.96686 17.4686 4.21108 17.4686 4.51108V11.0806Z" fill="black"/>
<path d="M16.1624 4.6748H12.023C11.7161 4.6748 11.4663 4.91021 11.4663 5.19944V7.02159C11.4663 7.31134 11.7161 7.54713 12.023 7.54713H13.6798C13.8266 7.54713 13.9455 7.43481 13.9455 7.29617C13.9455 7.15765 13.8266 7.04533 13.6798 7.04533H12.023C12.0096 7.04533 11.9978 7.03417 11.9978 7.02146V5.19944C11.9978 5.18751 12.0099 5.17661 12.023 5.17661H16.1624C16.1749 5.17661 16.1867 5.18777 16.1867 5.19944V7.02146C16.1867 7.03391 16.1752 7.04533 16.1624 7.04533H14.8292C14.6824 7.04533 14.5634 7.15765 14.5634 7.29617C14.5634 7.43481 14.6824 7.54713 14.8292 7.54713H16.1624C16.4688 7.54713 16.718 7.31134 16.718 7.02159V5.19944C16.718 4.91021 16.4688 4.6748 16.1624 4.6748Z" fill="black"/>
<path d="M13.2528 8.06592H12.3964C12.0297 8.06592 11.7314 8.34698 11.7314 8.69263C11.7314 9.03854 12.0297 9.32011 12.3964 9.32011H13.2528C13.6188 9.32011 13.9166 9.03854 13.9166 8.69263C13.9166 8.34698 13.6188 8.06592 13.2528 8.06592ZM13.2528 8.81831H12.3964C12.324 8.81831 12.2629 8.76072 12.2629 8.69263C12.2629 8.62492 12.324 8.56773 12.3964 8.56773H13.2528C13.3258 8.56773 13.3853 8.62376 13.3853 8.69263C13.3852 8.76072 13.3246 8.81831 13.2528 8.81831Z" fill="black"/>
<path d="M13.2361 9.66357H12.3797C12.0135 9.66357 11.7158 9.94476 11.7158 10.2903C11.7158 10.6363 12.0135 10.9179 12.3797 10.9179H13.2361C13.6027 10.9179 13.9009 10.6363 13.9009 10.2903C13.9009 9.94476 13.6027 9.66357 13.2361 9.66357ZM13.2361 10.4161H12.3797C12.3078 10.4161 12.2471 10.3585 12.2471 10.2903C12.2471 10.2214 12.3066 10.1654 12.3797 10.1654H13.2361C13.3084 10.1654 13.3695 10.2226 13.3695 10.2903C13.3695 10.3585 13.3084 10.4161 13.2361 10.4161Z" fill="black"/>
<path d="M14.9998 9.32011H15.8562C16.2221 9.32011 16.52 9.03854 16.52 8.69263C16.52 8.34698 16.2221 8.06592 15.8562 8.06592H14.9998C14.6331 8.06592 14.335 8.34698 14.335 8.69263C14.335 9.03854 14.6331 9.32011 14.9998 9.32011ZM14.9998 8.56773H15.8562C15.9292 8.56773 15.9887 8.62376 15.9887 8.69263C15.9887 8.76072 15.928 8.81831 15.8562 8.81831H14.9998C14.9274 8.81831 14.8663 8.76072 14.8663 8.69263C14.8663 8.62492 14.9274 8.56773 14.9998 8.56773Z" fill="black"/>
<path d="M15.8938 9.66357H15.0374C14.6708 9.66357 14.3726 9.94476 14.3726 10.2903C14.3726 10.6363 14.6708 10.9179 15.0374 10.9179H15.8938C16.2599 10.9179 16.5576 10.6363 16.5576 10.2903C16.5576 9.94476 16.2599 9.66357 15.8938 9.66357ZM15.8938 10.4161H15.0374C14.965 10.4161 14.9039 10.3585 14.9039 10.2903C14.9039 10.2226 14.965 10.1654 15.0374 10.1654H15.8938C15.9668 10.1654 16.0263 10.2214 16.0263 10.2903C16.0263 10.3585 15.9656 10.4161 15.8938 10.4161Z" fill="black"/>
<path d="M3.36406 10.1061C3.80159 10.1061 4.15768 9.77008 4.15768 9.35699C4.15768 8.94337 3.80159 8.60693 3.36406 8.60693C2.92584 8.60693 2.56934 8.94337 2.56934 9.35699C2.56934 9.77008 2.92584 10.1061 3.36406 10.1061ZM3.36406 9.10874C3.50867 9.10874 3.62636 9.22015 3.62636 9.35699C3.62636 9.4933 3.50867 9.60432 3.36406 9.60432C3.21877 9.60432 3.10066 9.4933 3.10066 9.35699C3.10066 9.22015 3.21877 9.10874 3.36406 9.10874Z" fill="black"/>
</svg>
