<svg width="15" height="14" viewBox="0 0 15 14" fill="none" xmlns="http://www.w3.org/2000/svg">
<path d="M13.9188 1.81068C13.7135 1.52259 13.435 1.28639 13.1081 1.12313C12.7813 0.95987 12.4163 0.874627 12.0456 0.875H11.9531V0.65625C11.9531 0.598234 11.9284 0.542594 11.8845 0.50157C11.8405 0.460547 11.7809 0.4375 11.7188 0.4375C11.6566 0.4375 11.597 0.460547 11.553 0.50157C11.5091 0.542594 11.4844 0.598234 11.4844 0.65625V0.875H3.28125C2.84628 0.875456 2.42926 1.03693 2.12169 1.324C1.81412 1.61106 1.64111 2.00028 1.64062 2.40625V3.71875C1.6411 4.04838 1.75534 4.36909 1.96641 4.63337C2.17749 4.89764 2.47417 5.09142 2.8125 5.18599V5.63281C2.81269 5.75381 2.86057 5.87052 2.94701 5.96069C3.03346 6.05086 3.15243 6.1082 3.28125 6.12177V6.5625H2.92969C2.80677 6.56236 2.68693 6.59835 2.58716 6.66535C2.48739 6.73236 2.41276 6.82698 2.37386 6.93581C2.33495 7.04463 2.33375 7.16212 2.37041 7.27162C2.40708 7.38111 2.47975 7.47706 2.57813 7.54584V9.43802C2.57851 9.73866 2.65351 10.0351 2.79724 10.3042C3.03998 10.761 3.4669 11.1093 3.98438 11.2727V11.8125H2.34375C2.15727 11.8125 1.97843 11.8816 1.84657 12.0047C1.7147 12.1278 1.64062 12.2947 1.64062 12.4688C1.64062 12.6428 1.7147 12.8097 1.84657 12.9328C1.97843 13.0559 2.15727 13.125 2.34375 13.125V13.3438C2.34375 13.4018 2.36844 13.4574 2.4124 13.4984C2.45635 13.5395 2.51596 13.5625 2.57813 13.5625H3.51563C3.5464 13.5625 3.57688 13.5568 3.60532 13.5459C3.63375 13.5349 3.65959 13.5187 3.68136 13.4984L4.08144 13.125H11.6478L12.2919 13.5258C12.3304 13.5497 12.3756 13.5625 12.4219 13.5625H13.125C13.1872 13.5625 13.2468 13.5395 13.2907 13.4984C13.3347 13.4574 13.3594 13.4018 13.3594 13.3438V12.0312C13.3594 12.0285 13.359 12.0256 13.3589 12.0228C13.3589 12.0195 13.3587 12.0162 13.3584 12.0129C13.3579 12.0079 13.3572 12.0029 13.3564 11.998C13.3561 11.9961 13.356 11.9941 13.3556 11.9921L12.8696 9.49763C12.5834 8.03082 12.7443 6.51847 13.3341 5.13286L13.9188 4.31432C14.1657 3.96933 14.2973 3.56366 14.2969 3.14877V2.97623C14.2973 2.56134 14.1657 2.15567 13.9188 1.81068ZM2.10938 3.71875V2.40625C2.10972 2.11627 2.2333 1.83826 2.45299 1.63321C2.67269 1.42816 2.97056 1.31283 3.28125 1.3125H12.0456C12.3391 1.31221 12.6281 1.3797 12.8869 1.50897C13.1457 1.63823 13.3662 1.82525 13.5287 2.05335C13.5599 2.09694 13.5884 2.14178 13.6148 2.1875H12.8906C12.8285 2.1875 12.7689 2.21055 12.7249 2.25157C12.6809 2.29259 12.6563 2.34823 12.6563 2.40625C12.6563 2.46427 12.6809 2.51991 12.7249 2.56093C12.7689 2.60195 12.8285 2.625 12.8906 2.625H13.788C13.8146 2.74042 13.8281 2.85816 13.8281 2.97623V3.0625H12.8906C12.8285 3.0625 12.7689 3.08555 12.7249 3.12657C12.6809 3.16759 12.6563 3.22323 12.6563 3.28125C12.6563 3.33927 12.6809 3.39491 12.7249 3.43593C12.7689 3.47695 12.8285 3.5 12.8906 3.5H13.788C13.7526 3.65309 13.6941 3.80071 13.6143 3.93846C13.6075 3.93791 13.6007 3.9375 13.5938 3.9375H12.8906C12.8285 3.9375 12.7689 3.96055 12.7249 4.00157C12.6809 4.04259 12.6563 4.09823 12.6563 4.15625C12.6563 4.21427 12.6809 4.26991 12.7249 4.31093C12.7689 4.35195 12.8285 4.375 12.8906 4.375H13.3121L12.9996 4.8125H3.28125C2.97056 4.81217 2.67269 4.69684 2.45299 4.49179C2.2333 4.28674 2.10972 4.00873 2.10938 3.71875ZM9.88901 6.81953C10.0145 7.24906 10.0781 7.69229 10.0781 8.1375V8.33437C10.0819 9.63262 9.54183 10.8808 8.57312 11.8125H7.73438V11.2727C8.25182 11.1093 8.67873 10.7611 8.92151 10.3044C9.06524 10.0353 9.14024 9.73881 9.14063 9.43816V7.54597C9.23906 7.47721 9.31179 7.38126 9.3485 7.27174C9.3852 7.16221 9.38401 7.04468 9.3451 6.93583C9.30618 6.82697 9.23152 6.73232 9.13171 6.66531C9.0319 6.59829 8.91201 6.56232 8.78906 6.5625H4.6875V6.125H5.80078C5.94059 6.12485 6.07463 6.07294 6.17349 5.98067C6.27235 5.8884 6.32796 5.7633 6.32813 5.63281V5.25H9.43037L9.88901 6.81953ZM5.85938 5.25V5.63281C5.85938 5.64732 5.8532 5.66123 5.84221 5.67148C5.83122 5.68174 5.81632 5.6875 5.80078 5.6875H3.33984C3.3243 5.6875 3.3094 5.68174 3.29841 5.67148C3.28742 5.66123 3.28125 5.64732 3.28125 5.63281V5.25H5.85938ZM3.75 6.125H4.21875V6.5625H3.75V6.125ZM2.92969 7H8.78906C8.82014 7 8.84995 7.01152 8.87193 7.03203C8.8939 7.05255 8.90625 7.08037 8.90625 7.10938C8.90625 7.13838 8.8939 7.1662 8.87193 7.18672C8.84995 7.20723 8.82014 7.21875 8.78906 7.21875H2.92969C2.89861 7.21875 2.8688 7.20723 2.84682 7.18672C2.82485 7.1662 2.8125 7.13838 2.8125 7.10938C2.8125 7.08037 2.82485 7.05255 2.84682 7.03203C2.8688 7.01152 2.89861 7 2.92969 7ZM3.21647 10.1087C3.10523 9.90038 3.04718 9.67088 3.04688 9.43816V7.65625H8.67188V9.43816C8.67157 9.67089 8.61352 9.9004 8.50228 10.1087C8.36967 10.3583 8.16477 10.5683 7.91081 10.7148C7.65685 10.8613 7.36399 10.9385 7.06544 10.9375H4.65331C4.35476 10.9385 4.06189 10.8613 3.80793 10.7148C3.55397 10.5683 3.34907 10.3583 3.21647 10.1087ZM4.45313 11.375H7.26563V11.8125H4.45313V11.375ZM12.8906 13.125H12.4928L11.8488 12.7242C11.8103 12.7003 11.765 12.6875 11.7188 12.6875H3.98438C3.9536 12.6875 3.92312 12.6932 3.89468 12.7041C3.86625 12.7151 3.84041 12.7313 3.81864 12.7516L3.41856 13.125H2.8125V12.9062C2.8125 12.8482 2.78781 12.7926 2.74385 12.7516C2.6999 12.7105 2.64029 12.6875 2.57813 12.6875H2.34375C2.28159 12.6875 2.22198 12.6645 2.17802 12.6234C2.13407 12.5824 2.10938 12.5268 2.10938 12.4688C2.10938 12.4107 2.13407 12.3551 2.17802 12.3141C2.22198 12.273 2.28159 12.25 2.34375 12.25H12.8906V13.125ZM12.4085 9.57578L12.8442 11.8125H9.20256C10.0713 10.8348 10.5467 9.60454 10.5469 8.33437V8.1375C10.5469 7.65339 10.4777 7.17144 10.3412 6.70439L9.91623 5.25H12.7859C12.256 6.63613 12.1259 8.1279 12.4085 9.57578Z" fill="black"/>
<path d="M7.26579 10.2812C7.30212 10.2812 7.33796 10.2733 7.37043 10.2581C7.55064 10.1747 7.70221 10.0459 7.80796 9.88617C7.91371 9.72647 7.9694 9.54233 7.96874 9.3546V9.1875C7.96874 9.12948 7.94404 9.07384 7.90009 9.03282C7.85613 8.9918 7.79652 8.96875 7.73436 8.96875C7.6722 8.96875 7.61259 8.9918 7.56863 9.03282C7.52468 9.07384 7.49998 9.12948 7.49998 9.1875V9.3546C7.50037 9.46103 7.46879 9.56544 7.40884 9.65598C7.34888 9.74652 7.26295 9.81957 7.16079 9.86686C7.11355 9.8889 7.07568 9.92519 7.05332 9.96984C7.03095 10.0145 7.02539 10.0649 7.03754 10.1128C7.0497 10.1608 7.07885 10.2035 7.12028 10.2341C7.1617 10.2647 7.21298 10.2813 7.26579 10.2812Z" fill="black"/>
<path d="M7.73438 8.75C7.79654 8.75 7.85615 8.72695 7.9001 8.68593C7.94406 8.64491 7.96875 8.58927 7.96875 8.53125V8.3125C7.96875 8.25448 7.94406 8.19884 7.9001 8.15782C7.85615 8.1168 7.79654 8.09375 7.73438 8.09375C7.67221 8.09375 7.6126 8.1168 7.56865 8.15782C7.52469 8.19884 7.5 8.25448 7.5 8.3125V8.53125C7.5 8.58927 7.52469 8.64491 7.56865 8.68593C7.6126 8.72695 7.67221 8.75 7.73438 8.75Z" fill="black"/>
<path d="M11.0156 3.9375C11.201 3.9375 11.3823 3.88618 11.5365 3.79004C11.6906 3.69389 11.8108 3.55723 11.8818 3.39735C11.9527 3.23746 11.9713 3.06153 11.9351 2.8918C11.8989 2.72206 11.8097 2.56615 11.6785 2.44378C11.5474 2.32141 11.3804 2.23808 11.1985 2.20431C11.0167 2.17055 10.8282 2.18788 10.6569 2.25411C10.4856 2.32033 10.3391 2.43248 10.2361 2.57638C10.1331 2.72027 10.0781 2.88944 10.0781 3.0625C10.0784 3.29448 10.1773 3.51689 10.353 3.68093C10.5288 3.84497 10.7671 3.93724 11.0156 3.9375ZM11.0156 2.625C11.1083 2.625 11.199 2.65066 11.2761 2.69873C11.3531 2.74681 11.4132 2.81513 11.4487 2.89508C11.4842 2.97502 11.4935 3.06299 11.4754 3.14785C11.4573 3.23272 11.4126 3.31067 11.3471 3.37186C11.2815 3.43305 11.198 3.47471 11.1071 3.49159C11.0161 3.50848 10.9219 3.49981 10.8362 3.4667C10.7506 3.43358 10.6774 3.37751 10.6259 3.30556C10.5744 3.23362 10.5469 3.14903 10.5469 3.0625C10.547 2.94651 10.5965 2.83531 10.6843 2.75329C10.7722 2.67128 10.8914 2.62514 11.0156 2.625Z" fill="black"/>
<path d="M8.67188 3.9375C8.8573 3.9375 9.03855 3.88618 9.19273 3.79004C9.3469 3.69389 9.46706 3.55723 9.53802 3.39735C9.60897 3.23746 9.62754 3.06153 9.59137 2.8918C9.55519 2.72206 9.4659 2.56615 9.33479 2.44378C9.20368 2.32141 9.03663 2.23808 8.85477 2.20431C8.67292 2.17055 8.48442 2.18788 8.31311 2.25411C8.1418 2.32033 7.99539 2.43248 7.89237 2.57638C7.78936 2.72027 7.73438 2.88944 7.73438 3.0625C7.73465 3.29448 7.83352 3.51689 8.00927 3.68093C8.18503 3.84497 8.42332 3.93724 8.67188 3.9375ZM8.67188 2.625C8.76459 2.625 8.85522 2.65066 8.9323 2.69873C9.00939 2.74681 9.06947 2.81513 9.10495 2.89508C9.14043 2.97502 9.14971 3.06299 9.13162 3.14785C9.11353 3.23272 9.06889 3.31067 9.00333 3.37186C8.93778 3.43305 8.85426 3.47471 8.76333 3.49159C8.6724 3.50848 8.57815 3.49981 8.49249 3.4667C8.40684 3.43358 8.33363 3.37751 8.28212 3.30556C8.23062 3.23362 8.20313 3.14903 8.20313 3.0625C8.20327 2.94651 8.25271 2.83531 8.34058 2.75329C8.42846 2.67128 8.5476 2.62514 8.67188 2.625Z" fill="black"/>
<path d="M3.75 2.1875C3.75 2.12948 3.72531 2.07384 3.68135 2.03282C3.6374 1.9918 3.57779 1.96875 3.51562 1.96875H3.04688C2.98471 1.96875 2.9251 1.9918 2.88115 2.03282C2.83719 2.07384 2.8125 2.12948 2.8125 2.1875C2.8125 2.24552 2.83719 2.30116 2.88115 2.34218C2.9251 2.3832 2.98471 2.40625 3.04688 2.40625H3.51562C3.57779 2.40625 3.6374 2.3832 3.68135 2.34218C3.72531 2.30116 3.75 2.24552 3.75 2.1875Z" fill="black"/>
<path d="M4.45312 2.40625H5.625C5.68716 2.40625 5.74677 2.3832 5.79073 2.34218C5.83468 2.30116 5.85938 2.24552 5.85938 2.1875C5.85938 2.12948 5.83468 2.07384 5.79073 2.03282C5.74677 1.9918 5.68716 1.96875 5.625 1.96875H4.45312C4.39096 1.96875 4.33135 1.9918 4.2874 2.03282C4.24344 2.07384 4.21875 2.12948 4.21875 2.1875C4.21875 2.24552 4.24344 2.30116 4.2874 2.34218C4.33135 2.3832 4.39096 2.40625 4.45312 2.40625Z" fill="black"/>
</svg>
