<svg width="22" height="22" viewBox="0 0 22 22" fill="none" xmlns="http://www.w3.org/2000/svg">
<g clip-path="url(#clip0)">
<path d="M12.8333 8.33203L20.9092 9.9362C21.56 10.0737 22 10.6237 22 11.2745V20.6245C22 21.3854 21.3858 21.9995 20.625 21.9995H12.375C12.6317 21.9995 12.8333 21.7979 12.8333 21.5412V21.0829H20.625C20.8725 21.0829 21.0833 20.8812 21.0833 20.6245V11.2745C21.0833 11.0637 20.9367 10.8712 20.7258 10.8254L12.8333 9.26703V8.33203Z" fill="#4E4E4E"/>
<path d="M17.8747 12.833C18.1313 12.833 18.333 13.0347 18.333 13.2913C18.333 13.548 18.1313 13.7497 17.8747 13.7497H16.0413C15.7847 13.7497 15.583 13.548 15.583 13.2913C15.583 13.0347 15.7847 12.833 16.0413 12.833H17.8747Z" fill="#4E4E4E"/>
<path d="M17.8747 15.583C18.1313 15.583 18.333 15.7847 18.333 16.0413C18.333 16.298 18.1313 16.4997 17.8747 16.4997H16.0413C15.7847 16.4997 15.583 16.298 15.583 16.0413C15.583 15.7847 15.7847 15.583 16.0413 15.583H17.8747Z" fill="#4E4E4E"/>
<path d="M17.8747 18.333C18.1313 18.333 18.333 18.5347 18.333 18.7913C18.333 19.048 18.1313 19.2497 17.8747 19.2497H16.0413C15.7847 19.2497 15.583 19.048 15.583 18.7913C15.583 18.5347 15.7847 18.333 16.0413 18.333H17.8747Z" fill="#4E4E4E"/>
<path d="M12.8336 21.5415C12.8336 21.7982 12.632 21.9998 12.3753 21.9998C12.1187 21.9998 11.917 21.7982 11.917 21.5415V21.0832V8.70819C11.917 8.57069 11.9812 8.44236 12.082 8.35069C12.192 8.26819 12.3295 8.23153 12.467 8.25903L12.8336 8.33236V9.26736V21.0832V21.5415Z" fill="#4E4E4E"/>
<path d="M11.9163 21.083V21.5414C11.9163 21.798 12.118 21.9997 12.3747 21.9997H8.70801C8.96467 21.9997 9.16634 21.798 9.16634 21.5414V21.083H11.9163Z" fill="#4E4E4E"/>
<path d="M9.62467 4.58301C9.88134 4.58301 10.083 4.78468 10.083 5.04134C10.083 5.29801 9.88134 5.49968 9.62467 5.49968H7.79134C7.53467 5.49968 7.33301 5.29801 7.33301 5.04134C7.33301 4.78468 7.53467 4.58301 7.79134 4.58301H9.62467Z" fill="#4E4E4E"/>
<path d="M10.083 7.79134C10.083 8.04801 9.88134 8.24968 9.62467 8.24968H7.79134C7.53467 8.24968 7.33301 8.04801 7.33301 7.79134C7.33301 7.53468 7.53467 7.33301 7.79134 7.33301H9.62467C9.88134 7.33301 10.083 7.53468 10.083 7.79134Z" fill="#4E4E4E"/>
<path d="M9.62467 10.083C9.88134 10.083 10.083 10.2847 10.083 10.5413C10.083 10.798 9.88134 10.9997 9.62467 10.9997H7.79134C7.53467 10.9997 7.33301 10.798 7.33301 10.5413C7.33301 10.2847 7.53467 10.083 7.79134 10.083H9.62467Z" fill="#4E4E4E"/>
<path d="M9.62467 12.833C9.88134 12.833 10.083 13.0347 10.083 13.2913C10.083 13.548 9.88134 13.7497 9.62467 13.7497H7.79134C7.53467 13.7497 7.33301 13.548 7.33301 13.2913C7.33301 13.0347 7.53467 12.833 7.79134 12.833H9.62467Z" fill="#4E4E4E"/>
<path d="M5.5 13.2913C5.5 13.548 5.29833 13.7497 5.04167 13.7497H3.20833C2.95167 13.7497 2.75 13.548 2.75 13.2913C2.75 13.0347 2.95167 12.833 3.20833 12.833H5.04167C5.29833 12.833 5.5 13.0347 5.5 13.2913Z" fill="#4E4E4E"/>
<path d="M5.04167 4.58301C5.29833 4.58301 5.5 4.78468 5.5 5.04134C5.5 5.29801 5.29833 5.49968 5.04167 5.49968H3.20833C2.95167 5.49968 2.75 5.29801 2.75 5.04134C2.75 4.78468 2.95167 4.58301 3.20833 4.58301H5.04167Z" fill="#4E4E4E"/>
<path d="M5.04167 7.33301C5.29833 7.33301 5.5 7.53468 5.5 7.79134C5.5 8.04801 5.29833 8.24968 5.04167 8.24968H3.20833C2.95167 8.24968 2.75 8.04801 2.75 7.79134C2.75 7.53468 2.95167 7.33301 3.20833 7.33301H5.04167Z" fill="#4E4E4E"/>
<path d="M5.04167 10.083C5.29833 10.083 5.5 10.2847 5.5 10.5413C5.5 10.798 5.29833 10.9997 5.04167 10.9997H3.20833C2.95167 10.9997 2.75 10.798 2.75 10.5413C2.75 10.2847 2.95167 10.083 3.20833 10.083H5.04167Z" fill="#4E4E4E"/>
<path d="M8.25033 16.958C8.25033 16.7013 8.03949 16.4997 7.79199 16.4997H5.04199C4.78533 16.4997 4.58366 16.7013 4.58366 16.958V21.083H3.66699V16.958C3.66699 16.1972 4.28116 15.583 5.04199 15.583H7.79199C8.55283 15.583 9.16699 16.1972 9.16699 16.958V21.083H8.25033V16.958Z" fill="#4E4E4E"/>
<path d="M4.58366 21.083H8.25033H9.16699V21.5414C9.16699 21.798 8.96533 21.9997 8.70866 21.9997H4.12533C3.86866 21.9997 3.66699 21.798 3.66699 21.5414V21.083H4.58366Z" fill="#4E4E4E"/>
<path d="M1.60417 0.182886L11.6783 1.71372C12.3475 1.82372 12.8333 2.39205 12.8333 3.07039V8.33205L12.4667 8.25872C12.3292 8.23122 12.1917 8.26789 12.0817 8.35038C11.9808 8.44205 11.9167 8.57038 11.9167 8.70789V3.07039C11.9167 2.84122 11.7517 2.64872 11.5317 2.61205L1.4575 1.09039C1.43 1.08122 1.4025 1.08122 1.375 1.08122C1.265 1.08122 1.16417 1.11789 1.08167 1.19122C0.971667 1.28289 0.916667 1.40205 0.916667 1.53955V20.6246C0.916667 20.8812 1.1275 21.0829 1.375 21.0829H3.66667V21.5412C3.66667 21.7979 3.86833 21.9996 4.125 21.9996H1.375C0.614167 21.9996 0 21.3854 0 20.6246V1.53955C0 1.13622 0.174167 0.751219 0.485833 0.494552C0.7975 0.228719 1.20083 0.118719 1.60417 0.182886Z" fill="#4E4E4E"/>
</g>
<defs>
<clipPath id="clip0">
<rect width="22" height="22" fill="white"/>
</clipPath>
</defs>
</svg>
