<svg width="22" height="22" viewBox="0 0 22 22" fill="none" xmlns="http://www.w3.org/2000/svg">
<path d="M16.9024 11.5894H9.52344C9.34546 11.5894 9.20117 11.7336 9.20117 11.9116C9.20117 12.0896 9.34546 12.2339 9.52344 12.2339H16.9024C17.0804 12.2339 17.2247 12.0896 17.2247 11.9116C17.2247 11.7336 17.0804 11.5894 16.9024 11.5894Z" fill="#4E4E4E"/>
<path d="M16.9024 12.978H9.52344C9.34546 12.978 9.20117 13.1223 9.20117 13.3003C9.20117 13.4783 9.34546 13.6226 9.52344 13.6226H16.9024C17.0804 13.6226 17.2247 13.4783 17.2247 13.3003C17.2247 13.1223 17.0804 12.978 16.9024 12.978Z" fill="#4E4E4E"/>
<path d="M16.9024 14.3672H9.52344C9.34546 14.3672 9.20117 14.5115 9.20117 14.6895C9.20117 14.8674 9.34546 15.0117 9.52344 15.0117H16.9024C17.0804 15.0117 17.2247 14.8674 17.2247 14.6895C17.2247 14.5115 17.0804 14.3672 16.9024 14.3672Z" fill="#4E4E4E"/>
<path d="M16.9024 15.7563H9.52344C9.34546 15.7563 9.20117 15.9006 9.20117 16.0786C9.20117 16.2566 9.34546 16.4009 9.52344 16.4009H16.9024C17.0804 16.4009 17.2247 16.2566 17.2247 16.0786C17.2247 15.9006 17.0804 15.7563 16.9024 15.7563Z" fill="#4E4E4E"/>
<path d="M16.9024 17.145H9.52344C9.34546 17.145 9.20117 17.2893 9.20117 17.4673C9.20117 17.6453 9.34546 17.7896 9.52344 17.7896H16.9024C17.0804 17.7896 17.2247 17.6453 17.2247 17.4673C17.2247 17.2893 17.0804 17.145 16.9024 17.145Z" fill="#4E4E4E"/>
<path d="M16.9024 18.5342H9.52344C9.34546 18.5342 9.20117 18.6785 9.20117 18.8564C9.20117 19.0344 9.34546 19.1787 9.52344 19.1787H16.9024C17.0804 19.1787 17.2247 19.0344 17.2247 18.8564C17.2247 18.6785 17.0804 18.5342 16.9024 18.5342Z" fill="#4E4E4E"/>
<path d="M1.71094 20.5674H16.9028C17.0808 20.5674 17.2251 20.4231 17.2251 20.2451C17.2251 20.0671 17.0808 19.9229 16.9028 19.9229H1.71094C1.53296 19.9229 1.38867 20.0671 1.38867 20.2451C1.38867 20.4231 1.53296 20.5674 1.71094 20.5674Z" fill="#4E4E4E"/>
<path d="M1.38867 18.8565C1.38867 19.0345 1.53296 19.1788 1.71094 19.1788H7.78771C7.96568 19.1788 8.10997 19.0345 8.10997 18.8565V11.9116C8.10997 11.7336 7.96568 11.5894 7.78771 11.5894H1.71094C1.53296 11.5894 1.38867 11.7336 1.38867 11.9116V18.8565ZM2.0332 12.2339H7.46544V18.5342H2.0332V12.2339Z" fill="#4E4E4E"/>
<path d="M17.2251 4.35938C17.2251 4.1814 17.0808 4.03711 16.9028 4.03711H1.71094C1.53296 4.03711 1.38867 4.1814 1.38867 4.35938V10.1757C1.38867 10.3537 1.53296 10.498 1.71094 10.498H16.9028C17.0808 10.498 17.2251 10.3537 17.2251 10.1757V4.35938ZM16.5806 9.85345H2.0332V4.68164H16.5806V9.85345Z" fill="#4E4E4E"/>
<path d="M2.98344 9.10871C3.16142 9.10871 3.30571 8.96442 3.30571 8.78645V6.7875L4.76888 8.90629C4.86586 9.04641 5.02678 9.10622 5.17867 9.05874C5.33426 9.01014 5.43481 8.86306 5.43477 8.68092L5.40636 5.74495C5.40464 5.56801 5.2607 5.42578 5.08418 5.42578C5.08315 5.42578 5.08208 5.42578 5.081 5.42578C4.90303 5.4275 4.76016 5.57316 4.76187 5.75114L4.7816 7.79048L3.24856 5.57054C3.16842 5.45448 3.02216 5.40404 2.88749 5.44602C2.75283 5.488 2.66113 5.61265 2.66113 5.75368V8.7864C2.66118 8.96442 2.80546 9.10871 2.98344 9.10871Z" fill="#4E4E4E"/>
<path d="M6.47559 9.10867H7.75584C7.93382 9.10867 8.0781 8.96438 8.0781 8.7864C8.0781 8.60843 7.93382 8.46414 7.75584 8.46414H6.79785V7.58947H7.66144C7.83941 7.58947 7.9837 7.44518 7.9837 7.2672C7.9837 7.08923 7.83941 6.94494 7.66144 6.94494H6.79785V6.07031H7.75584C7.93382 6.07031 8.0781 5.92602 8.0781 5.74805C8.0781 5.57007 7.93382 5.42578 7.75584 5.42578H6.47559C6.29761 5.42578 6.15332 5.57007 6.15332 5.74805V8.7864C6.15332 8.96438 6.29761 9.10867 6.47559 9.10867Z" fill="#4E4E4E"/>
<path d="M14.7171 9.10872C15.3294 9.10872 15.8434 8.72007 15.939 8.18459C16.0105 7.78386 15.8257 7.25934 15.0924 6.98886C14.71 6.84779 14.3546 6.69396 14.2555 6.65048C14.177 6.59049 14.1391 6.49643 14.1537 6.39473C14.163 6.33019 14.209 6.17271 14.4357 6.10439C14.8951 5.96611 15.3147 6.29998 15.3249 6.30827C15.4611 6.42158 15.6634 6.40362 15.7776 6.2678C15.8921 6.13159 15.8745 5.9283 15.7382 5.81375C15.7105 5.79046 15.0504 5.24613 14.2498 5.48727C13.852 5.60711 13.5707 5.91971 13.5156 6.30316C13.4642 6.66156 13.6195 7.00626 13.9209 7.20275C13.9352 7.21204 13.9501 7.2202 13.9656 7.22707C13.9831 7.23489 14.3999 7.42039 14.8693 7.59356C15.1796 7.70802 15.3382 7.88213 15.3044 8.07128C15.2699 8.26443 15.0408 8.46419 14.717 8.46419C14.3991 8.46419 14.0925 8.33537 13.897 8.11962C13.7775 7.98775 13.5737 7.9777 13.4418 8.09724C13.3099 8.21677 13.2999 8.42053 13.4194 8.55245C13.7351 8.90079 14.2202 9.10872 14.7171 9.10872Z" fill="#4E4E4E"/>
<path d="M9.42044 8.8034C9.42349 8.81878 9.42761 8.83391 9.4329 8.84869C9.48824 9.00449 9.63601 9.10873 9.80118 9.10873H9.8038C9.97005 9.10762 10.1177 9.00114 10.1712 8.84375C10.1722 8.84095 10.1731 8.83812 10.174 8.83528L10.7906 6.84316L11.4044 8.83575C11.4058 8.84014 11.4072 8.84452 11.4088 8.84882C11.4642 9.00458 11.6119 9.10873 11.7771 9.10873H11.7797C11.9459 9.10762 12.0936 9.0011 12.1471 8.84375C12.1516 8.83038 12.1553 8.81672 12.158 8.80288L12.7524 5.8166C12.7871 5.64206 12.6737 5.47237 12.4992 5.43761C12.3247 5.40298 12.155 5.5162 12.1202 5.69079L11.7237 7.68299L11.0984 5.65323L11.0966 5.65379C11.0652 5.55784 10.9895 5.47796 10.8857 5.44582C10.7157 5.39327 10.5352 5.48836 10.4826 5.65839L9.85584 7.6832L9.4607 5.68559C9.42615 5.51096 9.25642 5.39739 9.08206 5.43198C8.90747 5.46653 8.79391 5.63609 8.82845 5.81062L9.42044 8.8034Z" fill="#4E4E4E"/>
<path d="M20.8737 0.000773437C20.8664 0.000472656 20.8383 0 20.8312 0H14.8925C14.7146 0 14.5703 0.144289 14.5703 0.322266C14.5703 0.500242 14.7146 0.644531 14.8925 0.644531H19.7868C19.7073 0.80227 19.6625 0.980375 19.6625 1.16875V8.48633C19.6625 8.6643 19.8068 8.80859 19.9848 8.80859C20.1627 8.80859 20.307 8.6643 20.307 8.48633V1.16875C20.3048 0.885414 20.5496 0.640578 20.8411 0.644016C21.1126 0.647496 21.3553 0.896156 21.3555 1.18895V20.0492C21.3555 20.7695 20.7406 21.3555 19.9849 21.3555C19.9849 21.3555 19.9849 21.3555 19.9849 21.3555C19.9848 21.3555 19.9848 21.3555 19.9848 21.3555C19.2292 21.3555 18.6145 20.7695 18.6145 20.0492V17.6159H19.1168C19.7731 17.6159 20.307 17.082 20.307 16.4257V9.99023C20.307 9.81226 20.1627 9.66797 19.9848 9.66797C19.8068 9.66797 19.6625 9.81226 19.6625 9.99023V16.4257C19.6625 16.7266 19.4177 16.9714 19.1168 16.9714H18.6145V3.88137C18.6145 3.22506 18.0803 2.69113 17.4238 2.69113H2.4243V1.16875C2.4243 0.879699 2.65925 0.644531 2.94809 0.644531H13.3886C13.5666 0.644531 13.7109 0.500242 13.7109 0.322266C13.7109 0.144289 13.5666 0 13.3886 0H2.94809C2.30386 0 1.77977 0.524305 1.77977 1.16875V2.69113H1.19023C0.53393 2.69113 0 3.22506 0 3.88137V13.3835C0 13.5615 0.144289 13.7057 0.322266 13.7057C0.500242 13.7057 0.644531 13.5615 0.644531 13.3835V3.88137C0.644531 3.58046 0.889324 3.33566 1.19023 3.33566H17.4238C17.725 3.33566 17.97 3.58046 17.97 3.88137V20.0492C17.97 20.5511 18.1668 21.0094 18.4896 21.3555H2.01523C1.25941 21.3555 0.644531 20.7695 0.644531 20.0492V14.8874C0.644531 14.7094 0.500242 14.5651 0.322266 14.5651C0.144289 14.5651 0 14.7094 0 14.8874V20.0492C0 21.1249 0.90402 22 2.01523 22H19.9848H19.9849C19.9849 22 19.9849 22 19.9849 22C21.096 22 22 21.1249 22 20.0492V1.18895C22 0.545145 21.5052 0.0232031 20.8737 0.000773437Z" fill="#4E4E4E"/>
</svg>
