<svg width="33" height="32" viewBox="0 0 33 32" fill="none" xmlns="http://www.w3.org/2000/svg">
<path d="M21.4492 1.09985H22.5492V2.19985H21.4492V1.09985Z" fill="#318124"/>
<path d="M22.5498 0H23.6498V1.1H22.5498V0Z" fill="#318124"/>
<path d="M23.6494 1.09985H24.7494V2.19985H23.6494V1.09985Z" fill="#318124"/>
<path d="M22.5498 2.20044H23.6498V3.30044H22.5498V2.20044Z" fill="#318124"/>
<path d="M31.9004 1.6499H33.0004V2.7499H31.9004V1.6499Z" fill="#318124"/>
<path d="M30.7998 8.7998H31.8998V9.8998H30.7998V8.7998Z" fill="#318124"/>
<path d="M4.39941 9.34985H5.49941V10.4499H4.39941V9.34985Z" fill="#318124"/>
<path d="M4.39941 11.5498H5.49941V12.6498H4.39941V11.5498Z" fill="#318124"/>
<path d="M5.5 10.4504H6.6V11.5504H5.5V10.4504Z" fill="#318124"/>
<path d="M3.2998 10.4504H4.3998V11.5504H3.2998V10.4504Z" fill="#318124"/>
<path d="M0 3.2998H1.1V4.3998H0V3.2998Z" fill="#318124"/>
<path d="M8.25098 11.5504C9.16068 11.5504 9.90097 12.2907 9.90097 13.2004H11.001C11.001 11.6841 9.76732 10.4504 8.25098 10.4504V11.5504Z" fill="#318124"/>
<path d="M28.0508 12.0998V10.9998C26.5344 10.9998 25.3008 12.2334 25.3008 13.7498H26.4008C26.4008 12.8401 27.1411 12.0998 28.0508 12.0998Z" fill="#318124"/>
<path d="M28.0488 4.3999H29.1488C29.1488 3.4902 29.8891 2.7499 30.7988 2.7499V1.6499C29.2825 1.6499 28.0488 2.88355 28.0488 4.3999Z" fill="#318124"/>
<path d="M8.80176 3.2998H9.90176V4.3998H8.80176V3.2998Z" fill="#318124"/>
<path d="M9.89941 2.20044H10.9994V3.30044H9.89941V2.20044Z" fill="#318124"/>
<path d="M10.999 3.2998H12.099V4.3998H10.999V3.2998Z" fill="#318124"/>
<path d="M9.89941 4.40015H10.9994V5.50015H9.89941V4.40015Z" fill="#318124"/>
<path d="M5.5 0H6.6V1.1H5.5V0Z" fill="#318124"/>
<path d="M17.2627 9.34985L18.6998 13.6607L20.137 9.34985H17.2627Z" fill="#318124"/>
<path d="M17.4407 13.3637L16.1031 9.34985H13.4268L17.4407 13.3637Z" fill="#318124"/>
<path d="M24.3277 8.2501L23.3382 6.6001H21.0205L21.3505 8.2501H24.3277Z" fill="#318124"/>
<path d="M23.9729 9.34985H21.2966L19.959 13.3637L23.9729 9.34985Z" fill="#318124"/>
<path d="M28.5173 15.457L19.7168 18.3902L21.5884 20.2618L30.6937 16.9074L28.5173 15.457Z" fill="#318124"/>
<path d="M28.05 19.0544L21.6403 21.4161C21.4401 21.4898 21.2124 21.4403 21.0611 21.2891L19.25 19.4774V31.6868L28.05 28.7537V19.0544Z" fill="#318124"/>
<path d="M4.40003 20.8997H15.1723L17.3723 18.6997H4.62773L2.42773 20.8997H4.40003Z" fill="#318124"/>
<path d="M18.1482 19.478L15.7871 21.8392C15.6842 21.9426 15.5445 22.0003 15.3982 22.0003H4.94824V31.9003H18.1482V19.478ZM7.14824 30.8003H6.04824V29.7003H7.14824V30.8003ZM9.34824 30.8003H8.24824V29.7003H9.34824V30.8003ZM11.5482 30.8003H10.4482V29.7003H11.5482V30.8003Z" fill="#318124"/>
<path d="M13.0723 8.2501H16.0494L16.3794 6.6001H14.0617L13.0723 8.2501Z" fill="#318124"/>
<path d="M19.8985 6.6001H17.5005L17.1699 8.2501H20.229L19.8985 6.6001Z" fill="#318124"/>
</svg>
