<svg width="24" height="24" viewBox="0 0 24 24" fill="none" xmlns="http://www.w3.org/2000/svg">
<path d="M11.8115 6.21094C8.62707 6.21094 6.04492 8.78367 6.04492 11.9565C6.04492 14.7894 8.10313 17.1442 10.8142 17.6142C11.1374 17.6728 11.472 17.702 11.8115 17.702C14.9976 17.702 17.5781 15.1293 17.5781 11.9565C17.5781 8.78367 14.9976 6.21094 11.8115 6.21094ZM11.5291 13.9177H9.97527V12.3712H11.5291V13.9177ZM11.5291 11.9435H9.97527V11.1873C9.97527 10.7498 10.3311 10.3969 10.7685 10.3969H11.5291V11.9435ZM13.6543 13.9177H12.1004V12.3712H13.6543V13.9177ZM13.6543 11.9435H12.1004V10.3969H12.8447C13.2919 10.3969 13.6543 10.7563 13.6543 11.2019V11.9435Z" fill="#318124"/>
<path d="M24 11.9578C24 15.5112 22.4445 18.7019 19.9733 20.8941L16.6224 19.6923L16.3972 19.6093C16.8624 19.3426 17.2998 19.0369 17.7095 18.6921C17.889 18.5409 18.0588 18.3848 18.2252 18.2205C19.8444 16.6252 20.8482 14.4053 20.8482 11.9578C20.8482 11.187 20.6964 10.4861 20.4336 9.83882H22.9652L12.0114 0.998518L1.04951 9.83882H3.66757C3.34603 10.4812 3.1518 11.1821 3.1518 11.9578C3.1518 15.5502 5.47933 18.4807 8.3716 19.9606C8.72089 20.1395 11.6099 21.3738 11.6099 21.3738L16.2764 23.1269C14.9461 23.6311 13.5065 23.9108 12.0016 23.9108C5.37486 23.9108 0 18.5604 0 11.9578C0 5.35037 5.37486 0 12.0016 0C18.6284 0 24 5.35037 24 11.9578Z" fill="#318124"/>
<path d="M17.6551 18.7378C17.6551 18.7378 16.8439 19.3557 16.4097 19.6029L10.8145 17.6221L10.8161 17.614C10.8846 17.6335 10.9532 17.653 11.0234 17.6693L11.0283 17.6709C11.3678 17.7555 17.6551 18.7378 17.6551 18.7378Z" fill="#CCCCCC"/>
</svg>
