<svg width="24" height="24" viewBox="0 0 24 24" fill="none" xmlns="http://www.w3.org/2000/svg">
<g clip-path="url(#clip0)">
<path d="M17.1537 10.85C14.2587 10.85 11.9037 13.205 11.9037 16.1C11.9037 18.995 14.2587 21.35 17.1537 21.35C20.0487 21.35 22.4037 18.995 22.4037 16.1C22.4037 13.205 20.0487 10.85 17.1537 10.85ZM17.0344 15.6436L17.5116 15.7928C18.0153 15.9502 18.3537 16.4104 18.3537 16.9381V17.1C18.3537 17.676 17.9457 18.1582 17.4037 18.2736V18.4C17.4037 18.6209 17.2246 18.8 17.0037 18.8C16.7828 18.8 16.6037 18.6209 16.6037 18.4V18.166C16.218 17.9662 15.9537 17.5635 15.9537 17.1C15.9537 16.8791 16.1328 16.7 16.3537 16.7C16.5746 16.7 16.7537 16.8791 16.7537 17.1C16.7537 17.3206 16.9331 17.5 17.1537 17.5C17.3742 17.5 17.5537 17.3206 17.5537 17.1V16.9382C17.5537 16.7623 17.4409 16.6089 17.273 16.5564L16.7958 16.4072C16.2921 16.2498 15.9537 15.7896 15.9537 15.2619V15.1C15.9537 14.5786 16.2881 14.134 16.7537 13.9688V13.8C16.7537 13.5791 16.9328 13.4 17.1537 13.4C17.3746 13.4 17.5537 13.5791 17.5537 13.8V13.9688C18.0192 14.134 18.3537 14.5786 18.3537 15.1C18.3537 15.3209 18.1746 15.5 17.9537 15.5C17.7328 15.5 17.5537 15.3209 17.5537 15.1C17.5537 14.8794 17.3742 14.7 17.1537 14.7C16.9331 14.7 16.7537 14.8794 16.7537 15.1V15.2619C16.7537 15.4377 16.8665 15.5911 17.0344 15.6436ZM7.95366 10.15H5.70366C5.48276 10.15 5.30366 9.9709 5.30366 9.75V8C5.30366 7.7791 5.48276 7.6 5.70366 7.6H7.95366C8.17456 7.6 8.35366 7.7791 8.35366 8V9.75C8.35366 9.9709 8.17456 10.15 7.95366 10.15ZM15.2475 3.85V1.199C15.2475 0.84275 15.6781 0.66425 15.9302 0.916L18.9851 3.967C19.2374 4.2189 19.059 4.65 18.7025 4.65H16.0475C15.6057 4.65 15.2475 4.29185 15.2475 3.85ZM8.35366 11.35V13.1C8.35366 13.3209 8.17456 13.5 7.95366 13.5H5.70366C5.48276 13.5 5.30366 13.3209 5.30366 13.1V11.35C5.30366 11.1291 5.48276 10.95 5.70366 10.95H7.95366C8.17456 10.95 8.35366 11.1291 8.35366 11.35ZM9.15366 9.75V8C9.15366 7.7791 9.33276 7.6 9.55366 7.6H11.9537C12.1746 7.6 12.3537 7.7791 12.3537 8V9.75C12.3537 9.9709 12.1746 10.15 11.9537 10.15H9.55366C9.33276 10.15 9.15366 9.9709 9.15366 9.75ZM9.15366 13.1V11.35C9.15366 11.1291 9.33276 10.95 9.55366 10.95H11.9537C12.1746 10.95 12.3537 11.1291 12.3537 11.35V13.1C12.3537 13.3209 12.1746 13.5 11.9537 13.5H9.55366C9.33276 13.5 9.15366 13.3209 9.15366 13.1ZM16.2037 8V9.75C16.2037 9.9709 16.0246 10.15 15.8037 10.15H13.5537C13.3328 10.15 13.1537 9.9709 13.1537 9.75V8C13.1537 7.7791 13.3328 7.6 13.5537 7.6H15.8037C16.0246 7.6 16.2037 7.7791 16.2037 8ZM11.2466 14.7863C11.3027 14.5369 11.1121 14.3 10.8564 14.3H5.70366C5.04091 14.3 4.50366 13.7628 4.50366 13.1V8C4.50366 7.33725 5.04091 6.8 5.70366 6.8H15.8037C16.4664 6.8 17.0037 7.33725 17.0037 8V9.6553C17.0037 9.87045 17.1739 10.0463 17.3889 10.0546C18.0635 10.0805 18.7256 10.2179 19.3535 10.4639C19.6177 10.5674 19.9037 10.3772 19.9037 10.0935V5.85C19.9037 5.6291 19.7246 5.45 19.5037 5.45H16.0475C15.1639 5.45 14.4475 4.73365 14.4475 3.85V0.4C14.4475 0.1791 14.2684 0 14.0475 0H3.19766C2.31401 0 1.59766 0.71635 1.59766 1.6V22.4C1.59766 23.2836 2.31401 24 3.19766 24H18.2977C19.1797 24 19.8977 23.282 19.8977 22.4L19.8978 22.1089C19.898 21.8279 19.6156 21.6334 19.3539 21.7359C14.8262 23.5098 10.1963 19.4517 11.2466 14.7863ZM4.90366 16.1H8.80366C9.02456 16.1 9.20366 16.2791 9.20366 16.5C9.20366 16.7209 9.02456 16.9 8.80366 16.9H4.90366C4.68276 16.9 4.50366 16.7209 4.50366 16.5C4.50366 16.2791 4.68276 16.1 4.90366 16.1ZM9.80366 19.9H4.90366C4.68276 19.9 4.50366 19.7209 4.50366 19.5C4.50366 19.2791 4.68276 19.1 4.90366 19.1H9.80366C10.0246 19.1 10.2037 19.2791 10.2037 19.5C10.2037 19.7209 10.0246 19.9 9.80366 19.9Z" fill="#318124"/>
</g>
<defs>
<clipPath id="clip0">
<rect width="24" height="24" fill="white"/>
</clipPath>
</defs>
</svg>
