<svg width="19" height="22" viewBox="0 0 19 22" fill="none" xmlns="http://www.w3.org/2000/svg">
<path d="M7.71895 20.4937H10.3329C10.073 20.9458 9.58523 21.2501 9.02591 21.2501C8.46657 21.2501 7.9788 20.9458 7.71895 20.4937Z" stroke="#6B6B6B" stroke-width="1.5"/>
<path d="M15.0449 15.2308V15.5414L15.2646 15.7611L17.3013 17.7978V17.8654H0.75V17.7979L2.78676 15.7611L3.00643 15.5414V15.2308V9.58978C3.00643 6.38244 4.68909 3.85796 7.50655 3.18923L8.08335 3.05233V2.4595V1.69231C8.08335 1.17009 8.50344 0.75 9.02566 0.75C9.54787 0.75 9.96797 1.17009 9.96797 1.69231V2.45945V3.05227L10.5448 3.18918C13.3622 3.85791 15.0449 6.38239 15.0449 9.58973V15.2308Z" stroke="#6B6B6B" stroke-width="1.5"/>
</svg>
