<svg width="27" height="27" viewBox="0 0 27 27" fill="none" xmlns="http://www.w3.org/2000/svg">
<path d="M24.0864 16.572L21.0944 20.4846C20.4957 21.2674 19.5665 21.7267 18.581 21.7267H13.0254C12.5885 21.7267 12.2344 21.3725 12.2344 20.9356C12.2344 20.4988 12.5885 20.1446 13.0254 20.1446H17.8405C18.8754 20.1446 19.7421 19.2977 19.7223 18.2629C19.7031 17.2602 18.8843 16.4532 17.877 16.4532H12.3398C10.7501 14.9246 8.29675 14.7457 6.50204 16.0277L5.90625 16.4532V25.4181H11.1797H12.2344H19.6628C21.2777 25.4181 22.7818 24.5969 23.6551 23.2384L26.7421 18.4364C26.9105 18.1745 26.9999 17.8697 26.9999 17.5583C27 16.0055 25.0296 15.3385 24.0864 16.572Z" fill="#318124"/>
<path d="M3.5332 14.8711H0.791016C0.354164 14.8711 0 15.2253 0 15.6621V26.209C0 26.6458 0.354164 27 0.791016 27H3.5332C3.97005 27 4.32422 26.6458 4.32422 26.209V15.6621C4.32422 15.2253 3.97005 14.8711 3.5332 14.8711Z" fill="#318124"/>
<path d="M15.0981 4.37207C14.9371 4.49547 14.8484 4.68231 14.8179 4.84436C14.7758 5.0679 14.8291 5.27557 14.9538 5.37334C14.9978 5.40777 15.0462 5.44163 15.0981 5.4749V4.37207Z" fill="#318124"/>
<path d="M15.6621 13.1836C19.2968 13.1836 22.2539 10.2265 22.2539 6.5918C22.2539 2.95708 19.2968 0 15.6621 0C12.0274 0 9.07031 2.95708 9.07031 6.5918C9.07031 10.2265 12.0274 13.1836 15.6621 13.1836ZM13.6667 8.747C13.8261 8.50337 14.153 8.43481 14.3967 8.59439C14.6815 8.7807 14.86 8.86148 15.0984 8.89497V6.66795C14.7616 6.51359 14.5098 6.36504 14.3032 6.20299C13.8656 5.85974 13.6658 5.26426 13.7818 4.6488C13.9081 3.97812 14.375 3.4445 15 3.25624C15.0331 3.24628 15.0659 3.23715 15.0984 3.22856V2.90039C15.0984 2.60919 15.3345 2.37305 15.6257 2.37305C15.9169 2.37305 16.1531 2.60919 16.1531 2.90039V3.17076C16.6651 3.25941 17.0269 3.51148 17.2022 3.71266C17.3935 3.93224 17.3705 4.26537 17.151 4.45663C16.9325 4.6469 16.6018 4.62528 16.41 4.40891C16.398 4.39673 16.3142 4.31604 16.1531 4.25661V5.96057C16.2467 5.99532 16.3402 6.02902 16.432 6.0615C17.359 6.38919 17.8746 7.24728 17.715 8.19677C17.5909 8.93478 17.0293 9.68324 16.1531 9.90552V10.2832C16.1531 10.5744 15.9169 10.8105 15.6257 10.8105C15.3345 10.8105 15.0984 10.5744 15.0984 10.2832V9.95614C14.6726 9.91934 14.3197 9.80432 13.8193 9.477C13.5756 9.31753 13.5073 8.99074 13.6667 8.747Z" fill="#318124"/>
<path d="M16.6752 8.02214C16.7098 7.816 16.724 7.32478 16.1533 7.08447V8.77835C16.45 8.60844 16.6271 8.30796 16.6752 8.02214Z" fill="#318124"/>
</svg>
