<svg width="33" height="33" viewBox="0 0 33 33" fill="none" xmlns="http://www.w3.org/2000/svg">
<path d="M3.09375 28.3594V28.875C3.09375 29.0118 3.14807 29.1429 3.24477 29.2396C3.34147 29.3363 3.47262 29.3906 3.60938 29.3906H5.71828C5.6564 29.0497 5.6564 28.7003 5.71828 28.3594H3.09375Z" fill="#318124"/>
<path d="M8.76562 30.9375C9.90471 30.9375 10.8281 30.0141 10.8281 28.875C10.8281 27.7359 9.90471 26.8125 8.76562 26.8125C7.62654 26.8125 6.70312 27.7359 6.70312 28.875C6.70312 30.0141 7.62654 30.9375 8.76562 30.9375Z" fill="#318124"/>
<path d="M10.3125 15.9844C10.3125 15.8476 10.2582 15.7165 10.1615 15.6198C10.0648 15.5231 9.93363 15.4688 9.79688 15.4688H9.28125V16.5H9.79688C9.93363 16.5 10.0648 16.4457 10.1615 16.349C10.2582 16.2523 10.3125 16.1211 10.3125 15.9844Z" fill="#318124"/>
<path d="M11.8125 28.3594C11.8744 28.7003 11.8744 29.0497 11.8125 29.3906H23.2491C23.1872 29.0497 23.1872 28.7003 23.2491 28.3594H11.8125Z" fill="#318124"/>
<path d="M26.2969 30.9375C27.436 30.9375 28.3594 30.0141 28.3594 28.875C28.3594 27.7359 27.436 26.8125 26.2969 26.8125C25.1578 26.8125 24.2344 27.7359 24.2344 28.875C24.2344 30.0141 25.1578 30.9375 26.2969 30.9375Z" fill="#318124"/>
<path d="M28.9719 27.3281H29.9062V23.7188H25.2656C24.8554 23.7188 24.4619 23.5558 24.1718 23.2657C23.8817 22.9756 23.7188 22.5821 23.7188 22.1719V18.0469H22.6875V27.3281H23.6218C23.8924 26.858 24.2822 26.4674 24.7518 26.1958C25.2215 25.9243 25.7544 25.7813 26.2969 25.7813C26.8394 25.7813 27.3723 25.9243 27.8419 26.1958C28.3116 26.4674 28.7013 26.858 28.9719 27.3281Z" fill="#318124"/>
<path d="M11.4407 27.3281H21.6562V25.2656H2.0625V27.3281H6.09056C6.36119 26.858 6.75095 26.4674 7.22058 26.1958C7.69022 25.9243 8.22313 25.7813 8.76562 25.7813C9.30812 25.7813 9.84103 25.9243 10.3107 26.1958C10.7803 26.4674 11.1701 26.858 11.4407 27.3281Z" fill="#318124"/>
<path d="M25.2656 22.6875H29.9062V21.6562C29.9052 20.6993 29.5245 19.7819 28.8479 19.1052C28.1712 18.4286 27.2538 18.048 26.2969 18.0469H24.75V22.1719C24.75 22.3086 24.8043 22.4398 24.901 22.5365C24.9977 22.6332 25.1289 22.6875 25.2656 22.6875Z" fill="#318124"/>
<path d="M21.6562 17.5312V11.8594H2.0625V24.2344H21.6562V17.5312ZM15.9844 14.9531C15.9844 14.8164 16.0387 14.6852 16.1354 14.5885C16.2321 14.4918 16.3632 14.4375 16.5 14.4375H18.5625C18.6993 14.4375 18.8304 14.4918 18.9271 14.5885C19.0238 14.6852 19.0781 14.8164 19.0781 14.9531C19.0781 15.0899 19.0238 15.221 18.9271 15.3177C18.8304 15.4144 18.6993 15.4688 18.5625 15.4688H17.0156V16.5H18.0469C18.1836 16.5 18.3148 16.5543 18.4115 16.651C18.5082 16.7477 18.5625 16.8789 18.5625 17.0156C18.5625 17.1524 18.5082 17.2835 18.4115 17.3802C18.3148 17.4769 18.1836 17.5312 18.0469 17.5312H17.0156V18.5625H18.5625C18.6993 18.5625 18.8304 18.6168 18.9271 18.7135C19.0238 18.8102 19.0781 18.9414 19.0781 19.0781C19.0781 19.2149 19.0238 19.346 18.9271 19.4427C18.8304 19.5394 18.6993 19.5938 18.5625 19.5938H16.5C16.3632 19.5938 16.2321 19.5394 16.1354 19.4427C16.0387 19.346 15.9844 19.2149 15.9844 19.0781V14.9531ZM12.375 14.9531C12.375 14.8164 12.4293 14.6852 12.526 14.5885C12.6227 14.4918 12.7539 14.4375 12.8906 14.4375H14.9531C15.0899 14.4375 15.221 14.4918 15.3177 14.5885C15.4144 14.6852 15.4688 14.8164 15.4688 14.9531C15.4688 15.0899 15.4144 15.221 15.3177 15.3177C15.221 15.4144 15.0899 15.4688 14.9531 15.4688H13.4062V16.5H14.4375C14.5743 16.5 14.7054 16.5543 14.8021 16.651C14.8988 16.7477 14.9531 16.8789 14.9531 17.0156C14.9531 17.1524 14.8988 17.2835 14.8021 17.3802C14.7054 17.4769 14.5743 17.5312 14.4375 17.5312H13.4062V18.5625H14.9531C15.0899 18.5625 15.221 18.6168 15.3177 18.7135C15.4144 18.8102 15.4688 18.9414 15.4688 19.0781C15.4688 19.2149 15.4144 19.346 15.3177 19.4427C15.221 19.5394 15.0899 19.5938 14.9531 19.5938H12.8906C12.7539 19.5938 12.6227 19.5394 12.526 19.4427C12.4293 19.346 12.375 19.2149 12.375 19.0781V14.9531ZM8.25 14.9531C8.25 14.8164 8.30432 14.6852 8.40102 14.5885C8.49772 14.4918 8.62887 14.4375 8.76562 14.4375H9.79688C10.1664 14.4368 10.524 14.5687 10.8045 14.8094C11.085 15.05 11.2697 15.3834 11.3252 15.7488C11.3806 16.1141 11.3031 16.4873 11.1066 16.8003C10.9102 17.1134 10.6079 17.3455 10.2548 17.4544L11.2406 18.7688C11.3227 18.8782 11.3579 19.0157 11.3386 19.151C11.3192 19.2864 11.2469 19.4086 11.1375 19.4906C11.0281 19.5727 10.8906 19.6079 10.7552 19.5886C10.6198 19.5692 10.4977 19.4969 10.4156 19.3875L9.28125 17.8752V19.0781C9.28125 19.2149 9.22693 19.346 9.13023 19.4427C9.03353 19.5394 8.90238 19.5938 8.76562 19.5938C8.62887 19.5938 8.49772 19.5394 8.40102 19.4427C8.30432 19.346 8.25 19.2149 8.25 19.0781V14.9531ZM4.64062 14.9531C4.64062 14.8164 4.69495 14.6852 4.79165 14.5885C4.88835 14.4918 5.0195 14.4375 5.15625 14.4375H7.21875C7.3555 14.4375 7.48665 14.4918 7.58335 14.5885C7.68005 14.6852 7.73438 14.8164 7.73438 14.9531C7.73438 15.0899 7.68005 15.221 7.58335 15.3177C7.48665 15.4144 7.3555 15.4688 7.21875 15.4688H5.67188V16.5H6.70312C6.83988 16.5 6.97103 16.5543 7.06773 16.651C7.16443 16.7477 7.21875 16.8789 7.21875 17.0156C7.21875 17.1524 7.16443 17.2835 7.06773 17.3802C6.97103 17.4769 6.83988 17.5312 6.70312 17.5312H5.67188V19.0781C5.67188 19.2149 5.61755 19.346 5.52085 19.4427C5.42415 19.5394 5.293 19.5938 5.15625 19.5938C5.0195 19.5938 4.88835 19.5394 4.79165 19.4427C4.69495 19.346 4.64062 19.2149 4.64062 19.0781V14.9531ZM20.1094 21.6562H3.60938C3.47262 21.6562 3.34147 21.6019 3.24477 21.5052C3.14807 21.4085 3.09375 21.2774 3.09375 21.1406C3.09375 21.0039 3.14807 20.8727 3.24477 20.776C3.34147 20.6793 3.47262 20.625 3.60938 20.625H20.1094C20.2461 20.625 20.3773 20.6793 20.474 20.776C20.5707 20.8727 20.625 21.0039 20.625 21.1406C20.625 21.2774 20.5707 21.4085 20.474 21.5052C20.3773 21.6019 20.2461 21.6562 20.1094 21.6562Z" fill="#318124"/>
<path d="M30.4214 29.3906C30.5582 29.3906 30.6893 29.3363 30.786 29.2396C30.8827 29.1429 30.937 29.0118 30.937 28.875V28.3594H29.3438C29.4056 28.7003 29.4056 29.0497 29.3438 29.3906H30.4214Z" fill="#318124"/>
</svg>
